<svg xmlns="http://www.w3.org/2000/svg" xml:lang="en" height="548.5pt" width="247.0pt" viewBox="-131.6 -3.8000000000000007 247.0 548.5"><polygon points="24.299999999999994,32.39999999999999 24.557028614123883,32.39796086831677 24.813992522668695,32.39184398660759 25.070827036344625,32.381650894764725 25.327467498436338,32.36738415884452 25.583849301079965,32.34904737042146 25.839907901527756,32.32664514568396 26.095578838396374,32.30018312427231 26.350797747894735,32.26966796785888 26.605500380027213,32.235107358471105 26.859622614768263,32.19650999655759 27.11310047820427,32.153885598797764 27.36587015863864,32.107244895655846 27.617868022656083,32.05659962867941 27.869030631141953,32.001962547543584 28.119294755252717,31.943347406841372 28.36859739233348,31.88076896262097 28.616875781778564,31.814242968671053 28.86406742083116,31.743786172554852 29.11011008031805,31.669416311393995 29.35494182031549,31.591152107403314 29.598501005742225,31.509013263177625 29.84072632187583,31.423020456731713 30.081556789788323,31.333195336294725 30.320931781697304,31.239560514860372 30.55879103622868,31.142139564494215 30.795074673587138,31.040957010399524 31.029723210630557,30.936038324743194 31.262677575844574,30.82740992024326 31.493879124213535,30.715099143519637 31.723269651984044,30.599134268209756 31.950791411317457,30.479544487850823 32.17638712482759,30.35635990853051 32.4,30.2296115413079 32.62157374348918,30.099331294406625 32.841052575290135,29.96555196518213 33.058381242780676,29.828307231865132 33.273505034630986,29.687631645083293 33.48636979457688,29.543560619163287 33.6969219350534,29.396130423215435 33.90510845068517,29.245378172003146 34.110876931630195,29.091341816599478 34.3141755767738,28.934060134833153 34.51495320676926,28.77357272152646 34.713159276921935,28.60991997852744 34.908743889913616,28.44314310453898 35.10165780836392,28.27328408474722 35.29185246722554,28.100385680252035 35.47927998601021,27.924491417302136 35.6638931808424,27.745645576337576 35.84564557633758,27.5638931808424 36.02449141730214,27.379279986010214 36.20038568025203,27.191852467225537 36.37328408474722,27.00165780836392 36.54314310453898,26.808743889913615 36.70991997852744,26.613159276921934 36.87357272152646,26.414953206769262 37.034060134833155,26.2141755767738 37.19134181659948,26.010876931630197 37.345378172003144,25.805108450685175 37.49613042321543,25.596921935053405 37.64356061916329,25.386369794576883 37.787631645083295,25.173505034630985 37.92830723186513,24.958381242780682 38.06555196518213,24.741052575290137 38.199331294406626,24.52157374348918 38.3296115413079,24.299999999999994 38.456359908530516,24.07638712482759 38.579544487850825,23.850791411317456 38.699134268209754,23.623269651984046 38.81509914351964,23.393879124213537 38.927409920243264,23.16267757584458 39.036038324743195,22.929723210630556 39.140957010399525,22.69507467358714 39.24213956449422,22.458791036228682 39.33956051486037,22.220931781697303 39.43319533629472,21.98155678978832 39.523020456731714,21.740726321875837 39.60901326317762,21.498501005742227 39.69115210740331,21.254941820315487 39.769416311394,21.01011008031805 39.84378617255486,20.764067420831157 39.91424296867106,20.516875781778563 39.98076896262097,20.26859739233348 40.04334740684138,20.01929475525272 40.10196254754359,19.769030631141955 40.156599628679416,19.517868022656085 40.20724489565585,19.265870158638645 40.25388559879777,19.01310047820427 40.29650999655759,18.759622614768265 40.33510735847111,18.505500380027218 40.36966796785888,18.250797747894737 40.40018312427232,17.99557883839638 40.42664514568397,17.739907901527754 40.44904737042147,17.48384930107997 40.467384158844524,17.227467498436344 40.481650894764726,16.97082703634462 40.4918439866076,16.713992522668693 40.497960868316774,16.457028614123885 40.5,16.2 40.5,16.200000000000003 40.497960868316774,15.942971385876113 40.4918439866076,15.686007477331307 40.481650894764726,15.429172963655379 40.467384158844524,15.172532501563659 40.44904737042147,14.91615069892003 40.42664514568397,14.660092098472242 40.40018312427232,14.404421161603624 40.36966796785888,14.149202252105265 40.33510735847111,13.894499619972784 40.29650999655759,13.640377385231734 40.25388559879777,13.38689952179573 40.20724489565585,13.134129841361357 40.156599628679416,12.882131977343912 40.10196254754359,12.630969368858045 40.04334740684138,12.380705244747281 39.98076896262097,12.131402607666518 39.91424296867106,11.883124218221434 39.84378617255486,11.635932579168841 39.769416311394004,11.389889919681949 39.69115210740331,11.14505817968451 39.60901326317763,10.901498994257771 39.523020456731714,10.659273678124167 39.43319533629472,10.418443210211677 39.33956051486037,10.179068218302696 39.24213956449422,9.941208963771318 39.140957010399525,9.70492532641286 39.036038324743195,9.470276789369441 38.927409920243264,9.23732242415542 38.81509914351964,9.006120875786461 38.699134268209754,8.776730348015953 38.579544487850825,8.549208588682541 38.456359908530516,8.323612875172408 38.329611541307905,8.1 38.199331294406626,7.878426256510817 38.06555196518213,7.6589474247098615 37.92830723186513,7.441618757219321 37.787631645083295,7.226494965369014 37.643560619163296,7.013630205423116 37.49613042321544,6.80307806494659 37.34537817200315,6.594891549314825 37.19134181659948,6.389123068369801 37.03406013483316,6.185824423226196 36.87357272152646,5.985046793230737 36.70991997852744,5.786840723078064 36.54314310453898,5.591256110086383 36.373284084747226,5.398342191636075 36.20038568025204,5.20814753277446 36.02449141730214,5.020720013989787 35.84564557633758,4.836106819157595 35.6638931808424,4.654354423662422 35.47927998601021,4.475508582697863 35.291852467225546,4.2996143197479615 35.10165780836392,4.126715915252774 34.908743889913616,3.9568568954610157 34.713159276921935,3.790080021472556 34.51495320676926,3.6264272784735394 34.314175576773806,3.4659398651668423 34.110876931630195,3.30865818340052 33.90510845068518,3.15462182799685 33.69692193505341,3.003869576784561 33.48636979457688,2.85643938083671 33.273505034630986,2.7123683549167033 33.05838124278068,2.571692768134866 32.841052575290135,2.434448034817867 32.621573743489186,2.3006687055933734 32.4,2.1703884586920927 32.17638712482759,2.043640091469484 31.95079141131746,1.9204555121491704 31.723269651984047,1.8008657317902397 31.493879124213535,1.684900856480359 31.262677575844577,1.5725900797567351 31.02972321063056,1.463961675256803 30.795074673587138,1.3590429896004708 30.55879103622868,1.25786043550578 30.320931781697304,1.1604394851396245 30.081556789788323,1.0668046637052722 29.84072632187583,0.9769795432682834 29.59850100574223,0.890986736822371 29.35494182031549,0.8088478925966839 29.110110080318055,0.7305836886060032 28.86406742083116,0.6562138274451426 28.616875781778564,0.5857570313289389 28.36859739233348,0.5192310373790288 28.119294755252717,0.4566525931586234 27.869030631141953,0.3980374524564058 27.61786802265609,0.3434003713205844 27.365870158638643,0.29275510434415136 27.11310047820427,0.24611440120222827 26.859622614768263,0.20349000344241072 26.605500380027216,0.16489264152889052 26.350797747894735,0.13033203214111547 26.095578838396374,0.0998168757276832 25.839907901527756,0.07335485431602966 25.58384930107997,0.050952629578533366 25.327467498436338,0.032615841155472114 25.070827036344625,0.018349105235271 24.813992522668695,0.008156013392401662 24.557028614123883,0.0020391316832238937 24.299999999999994,-0.0 -24.299999999999994,3.597122599785507e-15 -24.55702861412388,0.0020391316832274907 -24.813992522668695,0.00815601339240346 -25.07082703634462,0.0183491052352746 -25.327467498436338,0.03261584115547571 -25.583849301079965,0.05095262957853697 -25.839907901527756,0.07335485431603325 -26.095578838396374,0.0998168757276868 -26.350797747894735,0.13033203214111908 -26.605500380027213,0.1648926415288923 -26.859622614768263,0.2034900034424143 -27.113100478204267,0.24611440120223185 -27.36587015863864,0.2927551043441549 -27.617868022656083,0.34340037132058615 -27.869030631141953,0.3980374524564094 -28.119294755252714,0.456652593158627 -28.368597392333477,0.5192310373790305 -28.616875781778564,0.5857570313289407 -28.864067420831155,0.6562138274451444 -29.110110080318048,0.730583688606005 -29.354941820315485,0.8088478925966874 -29.598501005742225,0.8909867368223727 -29.840726321875827,0.9769795432682871 -30.08155678978832,1.0668046637052722 -30.320931781697304,1.1604394851396262 -30.55879103622868,1.2578604355057836 -30.795074673587138,1.3590429896004743 -31.029723210630554,1.463961675256803 -31.262677575844574,1.572590079756737 -31.49387912421353,1.684900856480359 -31.723269651984047,1.8008657317902432 -31.950791411317457,1.920455512149174 -32.17638712482759,2.0436400914694857 -32.39999999999999,2.1703884586920963 -32.62157374348918,2.3006687055933734 -32.84105257529013,2.434448034817867 -33.058381242780676,2.5716927681348642 -33.273505034630986,2.712368354916707 -33.48636979457687,2.8564393808367083 -33.6969219350534,3.0038695767845627 -33.90510845068517,3.1546218279968516 -34.110876931630195,3.30865818340052 -34.3141755767738,3.465939865166844 -34.514953206769256,3.6264272784735394 -34.71315927692193,3.790080021472554 -34.90874388991361,3.956856895461014 -35.10165780836392,4.126715915252776 -35.29185246722554,4.2996143197479615 -35.47927998601021,4.475508582697865 -35.6638931808424,4.654354423662422 -35.845645576337574,4.836106819157595 -36.02449141730213,5.020720013989785 -36.20038568025203,5.208147532774457 -36.37328408474722,5.398342191636077 -36.54314310453898,5.591256110086383 -36.70991997852744,5.786840723078064 -36.87357272152646,5.985046793230735 -37.034060134833155,6.185824423226194 -37.191341816599476,6.389123068369799 -37.345378172003144,6.594891549314822 -37.49613042321544,6.803078064946591 -37.64356061916329,7.01363020542311 -37.787631645083295,7.226494965369016 -37.92830723186513,7.441618757219319 -38.06555196518213,7.65894742470986 -38.199331294406626,7.878426256510815 -38.3296115413079,8.099999999999998 -38.456359908530516,8.323612875172412 -38.579544487850825,8.549208588682536 -38.699134268209754,8.776730348015953 -38.81509914351964,9.00612087578646 -38.92740992024326,9.23732242415542 -39.03603832474319,9.470276789369438 -39.140957010399525,9.704925326412857 -39.24213956449422,9.94120896377132 -39.33956051486037,10.17906821830269 -39.43319533629472,10.418443210211677 -39.52302045673171,10.65927367812416 -39.60901326317762,10.90149899425777 -39.69115210740331,11.145058179684508 -39.769416311394,11.389889919681945 -39.84378617255486,11.635932579168841 -39.914242968671054,11.883124218221429 -39.98076896262097,12.131402607666518 -40.04334740684138,12.380705244747272 -40.10196254754359,12.630969368858043 -40.156599628679416,12.882131977343908 -40.20724489565585,13.134129841361352 -40.25388559879777,13.386899521795725 -40.29650999655759,13.640377385231728 -40.33510735847111,13.894499619972784 -40.36966796785888,14.149202252105257 -40.40018312427232,14.404421161603622 -40.42664514568397,14.660092098472239 -40.44904737042146,14.916150698920026 -40.467384158844524,15.172532501563653 -40.481650894764726,15.42917296365537 -40.4918439866076,15.686007477331307 -40.497960868316774,15.942971385876106 -40.5,16.2 -40.5,16.200000000000003 -40.497960868316774,16.45702861412389 -40.4918439866076,16.713992522668693 -40.481650894764726,16.970827036344623 -40.46738415884453,17.22746749843635 -40.44904737042147,17.483849301079978 -40.42664514568397,17.73990790152776 -40.400183124272324,17.99557883839638 -40.36966796785888,18.250797747894737 -40.33510735847111,18.50550038002722 -40.296509996557596,18.75962261476827 -40.25388559879777,19.01310047820427 -40.207244895655855,19.26587015863865 -40.156599628679416,19.517868022656092 -40.10196254754359,19.769030631141963 -40.04334740684138,20.019294755252723 -39.98076896262097,20.268597392333483 -39.91424296867106,20.516875781778566 -39.84378617255486,20.76406742083116 -39.769416311394004,21.010110080318057 -39.69115210740331,21.254941820315494 -39.60901326317763,21.498501005742234 -39.523020456731714,21.740726321875837 -39.43319533629473,21.981556789788325 -39.33956051486038,22.220931781697306 -39.24213956449422,22.458791036228686 -39.140957010399525,22.695074673587143 -39.036038324743195,22.929723210630566 -38.927409920243264,23.162677575844583 -38.81509914351964,23.393879124213544 -38.69913426820976,23.623269651984046 -38.57954448785083,23.85079141131746 -38.456359908530516,24.07638712482759 -38.329611541307905,24.300000000000008 -38.19933129440663,24.52157374348918 -38.06555196518213,24.741052575290144 -37.92830723186514,24.958381242780682 -37.787631645083295,25.17350503463099 -37.643560619163296,25.386369794576886 -37.49613042321544,25.596921935053413 -37.34537817200315,25.805108450685175 -37.19134181659948,26.010876931630197 -37.03406013483316,26.214175576773805 -36.87357272152646,26.414953206769265 -36.70991997852744,26.613159276921937 -36.54314310453898,26.808743889913618 -36.373284084747226,27.001657808363927 -36.20038568025204,27.19185246722554 -36.024491417302144,27.379279986010214 -35.84564557633758,27.563893180842406 -35.6638931808424,27.74564557633758 -35.47927998601021,27.92449141730214 -35.291852467225546,28.100385680252042 -35.101657808363925,28.273284084747225 -34.908743889913616,28.44314310453898 -34.71315927692194,28.60991997852744 -34.51495320676926,28.773572721526463 -34.314175576773806,28.934060134833153 -34.110876931630195,29.09134181659948 -33.90510845068518,29.245378172003154 -33.69692193505341,29.396130423215443 -33.48636979457689,29.54356061916329 -33.273505034630986,29.687631645083293 -33.05838124278069,29.828307231865132 -32.84105257529014,29.96555196518213 -32.62157374348918,30.099331294406632 -32.4,30.229611541307907 -32.17638712482759,30.356359908530518 -31.95079141131746,30.479544487850827 -31.72326965198405,30.59913426820976 -31.493879124213535,30.715099143519645 -31.262677575844585,30.827409920243262 -31.02972321063056,30.936038324743198 -30.795074673587145,31.040957010399524 -30.558791036228683,31.14213956449422 -30.320931781697308,31.239560514860376 -30.081556789788326,31.33319533629473 -29.840726321875835,31.423020456731717 -29.59850100574223,31.50901326317763 -29.354941820315492,31.591152107403314 -29.110110080318055,31.669416311393995 -28.86406742083116,31.74378617255486 -28.616875781778568,31.81424296867106 -28.368597392333484,31.880768962620973 -28.11929475525272,31.943347406841376 -27.869030631141957,32.00196254754359 -27.61786802265609,32.056599628679415 -27.365870158638646,32.107244895655846 -27.113100478204274,32.15388559879777 -26.859622614768266,32.19650999655759 -26.60550038002722,32.23510735847111 -26.35079774789474,32.26966796785889 -26.09557883839638,32.300183124272316 -25.83990790152776,32.32664514568397 -25.583849301079972,32.34904737042147 -25.327467498436345,32.36738415884452 -25.070827036344625,32.38165089476473 -24.8139925226687,32.3918439866076 -24.557028614123887,32.39796086831678 -24.300000000000004,32.4 24.299999999999994,32.39999999999999 " style="stroke:black;fill:none;stroke-width:2;stroke-linecap:round;stroke-linejoin:round;" /><polygon points="28.349999999999994,97.19999999999999 28.671285767654854,97.19745108539595 28.99249065333587,97.18980498325949 29.31353379543078,97.1770636184559 29.63433437304543,97.15923019855565 29.954811626349958,97.13630921302683 30.274884876909695,97.10830643210497 30.59447354799547,97.0752289053404 30.91349718486842,97.0370849598236 31.23187547503402,96.99388419808888 31.549528268460335,96.94563749569697 31.866375597755336,96.89235699849722 32.182337698298305,96.83405611956981 32.49733502832011,96.77074953584926 32.81128828892744,96.70245318442949 33.12411844406589,96.62918425855172 33.43574674041685,96.55096120327622 33.7460947272232,96.46780371083882 34.05508427603895,96.37973271569358 34.36263760039756,96.2867703892425 34.668677275394366,96.18894013425414 34.97312625717778,96.08626657897203 35.27590790234479,95.97877557091464 35.5769459872354,95.8664941703684 35.876164727121626,95.74945064357546 36.17348879528585,95.62767445561776 36.46884334198392,95.5011962629994 36.762154013288196,95.370047905929 37.05334696980572,95.23426240030408 37.342348905266924,95.09387392939955 37.629087064980055,94.9489178352622 37.91348926414682,94.79943060981354 38.19548390603448,94.64544988566314 38.475,94.48701442663487 38.75196717936147,94.32416411800828 39.026315719112674,94.15693995647766 39.29797655347585,93.98538403983142 39.56688129328872,93.80953955635411 39.832962243221104,93.6294507739541 40.096152418816764,93.44516302901928 40.35638556335647,93.25672271500395 40.613596164537746,93.06417727074935 40.86771947096725,92.86757516854145 41.11869150846158,92.66696590190807 41.366449096152415,92.46239997315931 41.61092986239202,92.25392888067373 41.8520722604549,92.04160510593402 42.08981558403192,91.82548210031504 42.32409998251277,91.60561427162766 42.554866476053,91.38205697042196 42.78205697042197,91.154866476053 43.005614271627664,90.92409998251277 43.22548210031505,90.68981558403192 43.44160510593403,90.4520722604549 43.653928880673725,90.21092986239202 43.8623999731593,89.96644909615242 44.06696590190807,89.71869150846157 44.26757516854145,89.46771947096725 44.464177270749346,89.21359616453775 44.65672271500393,88.95638556335646 44.84516302901929,88.69615241881675 45.02945077395411,88.43296224322111 45.209539556354116,88.16688129328872 45.385384039831415,87.89797655347586 45.556939956477656,87.62631571911267 45.724164118008275,87.35196717936147 45.88701442663488,87.075 46.045449885663146,86.79548390603449 46.19943060981353,86.51348926414683 46.34891783526219,86.22908706498006 46.49387392939955,85.94234890526693 46.634262400304074,85.65334696980572 46.770047905929,85.36215401328819 46.901196262999406,85.06884334198392 47.02767445561777,84.77348879528584 47.14945064357546,84.47616472712163 47.266494170368404,84.1769459872354 47.37877557091464,83.87590790234479 47.486266578972035,83.57312625717778 47.58894013425414,83.26867727539437 47.68677038924248,82.96263760039756 47.77973271569357,82.65508427603895 47.86780371083882,82.3460947272232 47.95096120327621,82.03574674041685 48.02918425855171,81.7241184440659 48.102453184429486,81.41128828892744 48.17074953584926,81.0973350283201 48.23405611956981,80.7823376982983 48.292356998497205,80.46637559775533 48.345637495696984,80.14952826846033 48.39388419808888,79.83187547503401 48.4370849598236,79.51349718486841 48.475228905340394,79.19447354799547 48.50830643210496,78.87488487690969 48.53630921302683,78.55481162634996 48.55923019855565,78.23433437304543 48.5770636184559,77.91353379543078 48.5898049832595,77.59249065333586 48.59745108539596,77.27128576765485 48.599999999999994,76.95 48.599999999999994,76.95 48.59745108539596,76.62871423234515 48.5898049832595,76.30750934666413 48.5770636184559,75.98646620456923 48.55923019855565,75.66566562695456 48.53630921302683,75.34518837365003 48.50830643210496,75.02511512309029 48.475228905340394,74.70552645200452 48.4370849598236,74.38650281513158 48.39388419808888,74.06812452496597 48.34563749569698,73.75047173153966 48.292356998497205,73.43362440224466 48.23405611956981,73.11766230170169 48.17074953584926,72.80266497167989 48.102453184429486,72.48871171107254 48.02918425855171,72.1758815559341 47.95096120327621,71.86425325958314 47.86780371083882,71.55390527277679 47.77973271569356,71.24491572396104 47.68677038924248,70.93736239960243 47.58894013425414,70.63132272460564 47.48626657897203,70.3268737428222 47.37877557091464,70.02409209765521 47.266494170368404,69.72305401276459 47.14945064357546,69.42383527287836 47.02767445561777,69.12651120471415 46.901196262999406,68.83115665801607 46.770047905929,68.5378459867118 46.634262400304074,68.24665303019427 46.49387392939955,67.95765109473307 46.34891783526219,67.67091293501993 46.19943060981353,67.38651073585316 46.04544988566314,67.1045160939655 45.88701442663487,66.825 45.724164118008275,66.54803282063853 45.556939956477656,66.27368428088732 45.385384039831415,66.00202344652415 45.20953955635411,65.73311870671127 45.02945077395411,65.4670377567789 44.84516302901929,65.20384758118324 44.65672271500393,64.94361443664353 44.464177270749346,64.68640383546224 44.26757516854145,64.43228052903274 44.06696590190807,64.18130849153842 43.8623999731593,63.933550903847575 43.653928880673725,63.68907013760798 43.44160510593403,63.44792773954509 43.22548210031504,63.21018441596807 43.005614271627664,62.97590001748723 42.78205697042197,62.74513352394699 42.554866476053,62.51794302957803 42.32409998251277,62.29438572837233 42.08981558403192,62.07451789968495 41.8520722604549,61.85839489406597 41.61092986239202,61.64607111932627 41.366449096152415,61.43760002684069 41.11869150846158,61.23303409809193 40.86771947096725,61.03242483145855 40.61359616453774,60.83582272925065 40.35638556335647,60.64327728499606 40.09615241881676,60.4548369709807 39.832962243221104,60.27054922604589 39.56688129328872,60.090460443645874 39.29797655347585,59.91461596016858 39.02631571911267,59.743060043522334 38.75196717936147,59.575835881991715 38.474999999999994,59.41298557336511 38.19548390603448,59.25455011433685 37.91348926414682,59.10056939018646 37.629087064980055,58.9510821647378 37.34234890526692,58.80612607060044 37.05334696980572,58.665737599695916 36.762154013288196,58.529952094071 36.46884334198392,58.398803737000584 36.17348879528585,58.27232554438223 35.876164727121626,58.15054935642453 35.5769459872354,58.033505829631586 35.27590790234479,57.921224429085356 34.97312625717778,57.813733421027955 34.668677275394366,57.711059865745845 34.36263760039756,57.6132296107575 34.05508427603894,57.52026728430643 33.7460947272232,57.43219628916117 33.43574674041685,57.34903879672378 33.12411844406589,57.270815741448274 32.81128828892744,57.197546815570504 32.49733502832011,57.12925046415072 32.182337698298305,57.06594388043018 31.866375597755336,57.007643001502785 31.549528268460328,56.954362504303006 31.23187547503402,56.90611580191111 30.91349718486842,56.8629150401764 30.59447354799547,56.8247710946596 30.27488487690969,56.79169356789503 29.954811626349958,56.763690786973164 29.63433437304543,56.740769801444344 29.313533795430775,56.72293638154409 28.992490653335864,56.7101950167405 28.671285767654854,56.70254891460403 28.349999999999994,56.699999999999996 -28.349999999999994,56.699999999999996 -28.671285767654854,56.70254891460403 -28.992490653335867,56.7101950167405 -29.313533795430775,56.72293638154409 -29.634334373045427,56.740769801444344 -29.954811626349958,56.763690786973164 -30.274884876909695,56.79169356789503 -30.594473547995467,56.8247710946596 -30.913497184868415,56.8629150401764 -31.231875475034016,56.906115801911106 -31.54952826846033,56.95436250430301 -31.866375597755333,57.007643001502785 -32.1823376982983,57.06594388043018 -32.49733502832011,57.12925046415072 -32.81128828892744,57.197546815570504 -33.12411844406589,57.270815741448274 -33.435746740416846,57.34903879672378 -33.7460947272232,57.43219628916117 -34.05508427603894,57.52026728430643 -34.362637600397555,57.6132296107575 -34.66867727539435,57.711059865745845 -34.97312625717778,57.813733421027955 -35.27590790234479,57.92122442908535 -35.5769459872354,58.033505829631586 -35.876164727121626,58.15054935642453 -36.17348879528585,58.27232554438223 -36.46884334198392,58.398803737000584 -36.762154013288196,58.529952094071 -37.05334696980572,58.665737599695916 -37.34234890526692,58.80612607060044 -37.629087064980055,58.9510821647378 -37.91348926414681,59.10056939018646 -38.19548390603448,59.25455011433685 -38.475,59.41298557336512 -38.75196717936147,59.57583588199171 -39.02631571911267,59.743060043522334 -39.29797655347585,59.91461596016858 -39.56688129328872,60.090460443645874 -39.832962243221104,60.27054922604588 -40.09615241881676,60.4548369709807 -40.35638556335646,60.64327728499606 -40.61359616453774,60.835822729250644 -40.86771947096725,61.03242483145855 -41.11869150846158,61.23303409809193 -41.366449096152415,61.43760002684069 -41.61092986239202,61.64607111932627 -41.8520722604549,61.85839489406596 -42.08981558403192,62.07451789968495 -42.32409998251276,62.294385728372326 -42.554866476053,62.517943029578035 -42.78205697042197,62.74513352394699 -43.005614271627664,62.97590001748723 -43.22548210031504,63.21018441596807 -43.44160510593402,63.44792773954509 -43.653928880673725,63.68907013760798 -43.8623999731593,63.93355090384757 -44.06696590190807,64.18130849153842 -44.26757516854144,64.43228052903274 -44.464177270749346,64.68640383546224 -44.65672271500393,64.94361443664353 -44.84516302901929,65.20384758118323 -45.0294507739541,65.4670377567789 -45.20953955635411,65.73311870671127 -45.385384039831415,66.00202344652415 -45.556939956477656,66.27368428088731 -45.724164118008275,66.54803282063853 -45.88701442663488,66.825 -46.04544988566314,67.1045160939655 -46.19943060981353,67.38651073585316 -46.34891783526219,67.67091293501993 -46.49387392939955,67.95765109473308 -46.63426240030407,68.24665303019427 -46.770047905929,68.5378459867118 -46.9011962629994,68.83115665801606 -47.02767445561777,69.12651120471415 -47.14945064357546,69.42383527287836 -47.266494170368404,69.72305401276459 -47.37877557091464,70.02409209765521 -47.48626657897203,70.3268737428222 -47.58894013425414,70.63132272460564 -47.68677038924248,70.93736239960242 -47.77973271569356,71.24491572396104 -47.86780371083882,71.55390527277677 -47.95096120327621,71.86425325958314 -48.02918425855171,72.17588155593408 -48.102453184429486,72.48871171107254 -48.17074953584926,72.80266497167989 -48.2340561195698,73.11766230170169 -48.292356998497205,73.43362440224466 -48.34563749569698,73.75047173153966 -48.39388419808888,74.06812452496597 -48.4370849598236,74.38650281513156 -48.475228905340394,74.70552645200452 -48.50830643210496,75.0251151230903 -48.536309213026826,75.34518837365003 -48.55923019855565,75.66566562695456 -48.5770636184559,75.98646620456923 -48.5898049832595,76.30750934666413 -48.59745108539596,76.62871423234515 -48.599999999999994,76.95 -48.599999999999994,76.95 -48.59745108539597,77.27128576765485 -48.589804983259505,77.59249065333586 -48.57706361845592,77.91353379543078 -48.55923019855566,78.23433437304543 -48.53630921302683,78.55481162634996 -48.508306432104966,78.8748848769097 -48.475228905340394,79.19447354799546 -48.43708495982361,79.51349718486841 -48.39388419808889,79.83187547503401 -48.34563749569699,80.14952826846033 -48.29235699849722,80.46637559775533 -48.234056119569814,80.7823376982983 -48.17074953584927,81.0973350283201 -48.1024531844295,81.41128828892745 -48.029184258551716,81.7241184440659 -47.95096120327622,82.03574674041685 -47.867803710838835,82.3460947272232 -47.77973271569358,82.65508427603893 -47.686770389242504,82.96263760039756 -47.588940134254145,83.26867727539437 -47.486266578972035,83.57312625717779 -47.378775570914655,83.87590790234479 -47.26649417036841,84.1769459872354 -47.14945064357548,84.47616472712163 -47.02767445561777,84.77348879528584 -46.901196262999406,85.06884334198392 -46.770047905929,85.36215401328819 -46.63426240030408,85.65334696980572 -46.493873929399555,85.94234890526693 -46.3489178352622,86.22908706498006 -46.19943060981354,86.51348926414681 -46.045449885663146,86.79548390603449 -45.887014426634885,87.075 -45.72416411800829,87.35196717936147 -45.55693995647767,87.62631571911267 -45.385384039831415,87.89797655347586 -45.20953955635412,88.16688129328872 -45.02945077395412,88.43296224322111 -44.845163029019304,88.69615241881675 -44.656722715003944,88.95638556335646 -44.46417727074935,89.21359616453775 -44.26757516854145,89.46771947096725 -44.06696590190808,89.71869150846157 -43.862399973159306,89.96644909615242 -43.65392888067373,90.21092986239202 -43.44160510593404,90.4520722604549 -43.225482100315055,90.68981558403192 -43.00561427162768,90.92409998251277 -42.782056970421976,91.154866476053 -42.554866476053,91.38205697042197 -42.32409998251277,91.60561427162766 -42.08981558403193,91.82548210031504 -41.852072260454904,92.04160510593402 -41.61092986239203,92.25392888067373 -41.36644909615243,92.46239997315931 -41.11869150846158,92.66696590190807 -40.867719470967266,92.86757516854145 -40.613596164537746,93.06417727074935 -40.35638556335648,93.25672271500393 -40.09615241881677,93.44516302901928 -39.83296224322112,93.6294507739541 -39.56688129328874,93.80953955635411 -39.297976553475856,93.98538403983142 -39.02631571911268,94.15693995647766 -38.75196717936148,94.32416411800828 -38.475,94.48701442663489 -38.19548390603449,94.64544988566314 -37.91348926414683,94.79943060981353 -37.62908706498006,94.9489178352622 -37.342348905266924,95.09387392939955 -37.05334696980574,95.23426240030408 -36.7621540132882,95.370047905929 -36.46884334198394,95.5011962629994 -36.173488795285856,95.62767445561776 -35.87616472712165,95.74945064357546 -35.576945987235405,95.8664941703684 -35.27590790234479,95.97877557091464 -34.973126257177796,96.08626657897202 -34.668677275394366,96.18894013425414 -34.362637600397576,96.2867703892425 -34.05508427603895,96.37973271569358 -33.74609472722322,96.46780371083882 -33.43574674041686,96.55096120327622 -33.1241184440659,96.62918425855172 -32.81128828892745,96.70245318442949 -32.49733502832011,96.77074953584926 -32.18233769829832,96.83405611956981 -31.86637559775534,96.89235699849722 -31.54952826846035,96.94563749569697 -31.23187547503403,96.99388419808888 -30.91349718486842,97.0370849598236 -30.594473547995477,97.0752289053404 -30.274884876909695,97.10830643210497 -29.954811626349976,97.13630921302683 -29.634334373045434,97.15923019855565 -29.313533795430793,97.1770636184559 -28.992490653335874,97.18980498325949 -28.671285767654858,97.19745108539595 -28.350000000000005,97.19999999999999 28.349999999999994,97.19999999999999 " style="stroke:black;fill:none;stroke-width:2;stroke-linecap:round;stroke-linejoin:round;" /><polygon points="-64.8,259.2 -1.4879458609640344e-15,210.6 64.8,259.2 -1.4879458609640344e-15,307.8 " style="stroke:black;fill:none;stroke-width:2;stroke-linecap:round;stroke-linejoin:round;" /><polygon points="28.34999999999999,486.0 28.67128576765485,485.99745108539594 28.992490653335864,485.9898049832595 29.31353379543077,485.9770636184559 29.634334373045423,485.95923019855564 29.954811626349954,485.9363092130268 30.274884876909685,485.90830643210495 30.594473547995463,485.87522890534035 30.91349718486841,485.8370849598236 31.231875475034013,485.79388419808885 31.549528268460328,485.74563749569694 31.86637559775533,485.6923569984972 32.1823376982983,485.6340561195698 32.497335028320094,485.57074953584925 32.811288288927436,485.5024531844295 33.12411844406589,485.4291842585517 33.435746740416846,485.3509612032762 33.746094727223195,485.2678037108388 34.05508427603894,485.17973271569355 34.362637600397555,485.0867703892425 34.668677275394344,484.9889401342541 34.973126257177775,484.886266578972 35.275907902344784,484.7787755709146 35.57694598723539,484.6664941703684 35.876164727121626,484.5494506435755 36.17348879528584,484.42767445561776 36.46884334198391,484.3011962629994 36.76215401328819,484.170047905929 37.05334696980571,484.03426240030404 37.34234890526691,483.89387392939955 37.62908706498005,483.7489178352622 37.91348926414681,483.5994306098135 38.195483906034475,483.44544988566315 38.47499999999999,483.28701442663487 38.75196717936147,483.12416411800825 39.02631571911267,482.95693995647764 39.29797655347584,482.7853840398314 39.566881293288716,482.6095395563541 39.8329622432211,482.4294507739541 40.09615241881676,482.2451630290193 40.356385563356454,482.0567227150039 40.61359616453773,481.86417727074934 40.86771947096724,481.6675751685414 41.118691508461566,481.46696590190805 41.366449096152415,481.2623999731593 41.610929862392005,481.0539288806737 41.85207226045489,480.84160510593404 42.08981558403191,480.625482100315 42.324099982512756,480.40561427162766 42.554866476052986,480.18205697042197 42.782056970421955,479.9548664760529 43.00561427162766,479.72409998251277 43.225482100315034,479.48981558403193 43.44160510593402,479.2520722604549 43.65392888067371,479.010929862392 43.86239997315929,478.76644909615237 44.066965901908056,478.51869150846153 44.267575168541434,478.2677194709672 44.46417727074934,478.0135961645377 44.65672271500392,477.75638556335645 44.84516302901928,477.49615241881673 45.0294507739541,477.23296224322104 45.20953955635411,476.9668812932887 45.3853840398314,476.6979765534758 45.55693995647765,476.42631571911267 45.72416411800827,476.15196717936146 45.88701442663486,475.875 46.04544988566313,475.5954839060344 46.199430609813525,475.3134892641468 46.34891783526218,475.02908706498005 46.49387392939954,474.7423489052669 46.63426240030407,474.4533469698057 46.77004790592898,474.1621540132882 46.90119626299939,473.8688433419839 47.027674455617756,473.5734887952858 47.149450643575456,473.2761647271216 47.26649417036839,472.9769459872354 47.37877557091463,472.67590790234476 47.48626657897202,472.3731262571778 47.58894013425413,472.06867727539435 47.686770389242476,471.76263760039757 47.779732715693555,471.4550842760389 47.86780371083881,471.1460947272232 47.9509612032762,470.8357467404168 48.0291842585517,470.52411844406583 48.10245318442948,470.21128828892745 48.170749535849254,469.89733502832013 48.2340561195698,469.58233769829826 48.2923569984972,469.2663755977553 48.34563749569696,468.9495282684603 48.39388419808886,468.631875475034 48.437084959823586,468.3134971848684 48.47522890534038,467.9944735479954 48.50830643210495,467.6748848769097 48.53630921302682,467.35481162634994 48.55923019855564,467.03433437304545 48.577063618455895,466.71353379543075 48.589804983259484,466.3924906533358 48.597451085395946,466.07128576765484 48.59999999999998,465.75 48.59999999999998,465.75 48.59745108539595,465.42871423234516 48.589804983259484,465.10750934666413 48.5770636184559,464.7864662045692 48.559230198555646,464.46566562695455 48.53630921302682,464.14518837365006 48.50830643210495,463.82511512309026 48.47522890534038,463.5055264520045 48.43708495982359,463.1865028151316 48.39388419808887,462.86812452496594 48.34563749569698,462.55047173153963 48.292356998497205,462.23362440224463 48.2340561195698,461.9176623017017 48.170749535849254,461.60266497167987 48.102453184429486,461.2887117110725 48.0291842585517,460.9758815559341 47.95096120327621,460.6642532595831 47.86780371083882,460.3539052727768 47.77973271569356,460.044915723961 47.68677038924248,459.7373623996024 47.58894013425413,459.43132272460565 47.48626657897202,459.1268737428222 47.37877557091464,458.8240920976552 47.2664941703684,458.52305401276453 47.14945064357546,458.2238352728783 47.027674455617756,457.92651120471413 46.90119626299939,457.6311566580161 46.77004790592898,457.3378459867117 46.63426240030407,457.04665303019425 46.49387392939954,456.75765109473303 46.348917835262185,456.4709129350199 46.199430609813525,456.1865107358531 46.04544988566313,455.90451609396547 45.88701442663487,455.625 45.724164118008275,455.3480328206385 45.556939956477656,455.0736842808873 45.3853840398314,454.8020234465242 45.20953955635411,454.53311870671126 45.0294507739541,454.2670377567789 44.84516302901929,454.0038475811832 44.65672271500393,453.7436144366435 44.46417727074934,453.4864038354622 44.267575168541434,453.2322805290328 44.06696590190806,452.9813084915384 43.86239997315929,452.7335509038476 43.65392888067372,452.489070137608 43.44160510593402,452.2479277395451 43.225482100315034,452.01018441596807 43.00561427162766,451.77590001748723 42.78205697042196,451.545133523947 42.554866476052986,451.31794302957803 42.324099982512756,451.0943857283723 42.08981558403192,450.8745178996849 41.85207226045489,450.6583948940659 41.610929862392005,450.4460711193263 41.366449096152415,450.2376000268407 41.118691508461566,450.03303409809195 40.86771947096724,449.8324248314585 40.61359616453773,449.6358227292506 40.35638556335646,449.44327728499604 40.09615241881676,449.25483697098065 39.8329622432211,449.07054922604584 39.566881293288716,448.89046044364585 39.29797655347584,448.7146159601686 39.02631571911266,448.5430600435223 38.75196717936147,448.3758358819917 38.47499999999999,448.2129855733651 38.195483906034475,448.0545501143368 37.91348926414681,447.90056939018643 37.62908706498005,447.75108216473774 37.34234890526691,447.60612607060045 37.053346969805716,447.4657375996959 36.76215401328819,447.32995209407096 36.46884334198391,447.1988037370006 36.17348879528584,447.0723255443822 35.876164727121626,446.95054935642446 35.57694598723539,446.8335058296315 35.275907902344784,446.72122442908534 34.973126257177775,446.6137334210279 34.668677275394344,446.51105986574584 34.362637600397555,446.41322961075747 34.05508427603893,446.32026728430645 33.746094727223195,446.23219628916115 33.43574674041684,446.1490387967238 33.12411844406589,446.07081574144826 32.811288288927436,445.99754681557044 32.497335028320094,445.92925046415075 32.1823376982983,445.8659438804302 31.86637559775533,445.80764300150275 31.54952826846032,445.754362504303 31.231875475034013,445.7061158019111 30.91349718486841,445.66291504017636 30.594473547995463,445.6247710946596 30.274884876909685,445.591693567895 29.95481162634995,445.56369078697315 29.634334373045423,445.5407698014443 29.313533795430768,445.52293638154407 28.992490653335857,445.5101950167405 28.671285767654847,445.502548914604 28.349999999999987,445.5 -28.35,445.5 -28.67128576765486,445.502548914604 -28.992490653335874,445.5101950167405 -29.313533795430782,445.52293638154407 -29.634334373045434,445.5407698014443 -29.954811626349965,445.56369078697315 -30.2748848769097,445.591693567895 -30.594473547995474,445.6247710946596 -30.913497184868422,445.66291504017636 -31.231875475034027,445.7061158019111 -31.54952826846034,445.754362504303 -31.86637559775534,445.80764300150275 -32.182337698298305,445.8659438804302 -32.49733502832011,445.92925046415075 -32.81128828892744,445.99754681557044 -33.1241184440659,446.07081574144826 -33.43574674041685,446.1490387967238 -33.74609472722321,446.23219628916115 -34.05508427603895,446.32026728430645 -34.36263760039756,446.41322961075747 -34.668677275394366,446.51105986574584 -34.97312625717779,446.6137334210279 -35.27590790234479,446.72122442908534 -35.576945987235405,446.8335058296315 -35.87616472712163,446.95054935642446 -36.173488795285856,447.0723255443822 -36.468843341983934,447.1988037370006 -36.7621540132882,447.32995209407096 -37.05334696980572,447.4657375996959 -37.342348905266924,447.60612607060045 -37.629087064980055,447.75108216473774 -37.91348926414682,447.90056939018643 -38.19548390603449,448.0545501143368 -38.475,448.2129855733651 -38.75196717936148,448.3758358819917 -39.026315719112674,448.5430600435223 -39.297976553475856,448.7146159601686 -39.56688129328873,448.89046044364585 -39.832962243221104,449.07054922604584 -40.09615241881676,449.25483697098065 -40.35638556335647,449.44327728499604 -40.613596164537746,449.6358227292506 -40.86771947096725,449.8324248314586 -41.11869150846158,450.03303409809195 -41.36644909615242,450.2376000268407 -41.61092986239202,450.4460711193263 -41.8520722604549,450.6583948940659 -42.08981558403193,450.8745178996849 -42.32409998251277,451.0943857283723 -42.554866476053,451.31794302957803 -42.78205697042197,451.545133523947 -43.005614271627664,451.77590001748723 -43.22548210031505,452.01018441596807 -43.44160510593403,452.2479277395451 -43.653928880673725,452.489070137608 -43.862399973159306,452.7335509038476 -44.06696590190808,452.9813084915384 -44.26757516854144,453.2322805290327 -44.46417727074935,453.4864038354622 -44.65672271500394,453.7436144366435 -44.8451630290193,454.0038475811832 -45.02945077395411,454.26703775677885 -45.209539556354116,454.53311870671126 -45.385384039831415,454.8020234465242 -45.55693995647766,455.0736842808873 -45.72416411800828,455.3480328206385 -45.88701442663488,455.625 -46.045449885663146,455.90451609396547 -46.19943060981354,456.1865107358531 -46.34891783526219,456.4709129350199 -46.493873929399555,456.75765109473303 -46.634262400304074,457.04665303019425 -46.770047905929,457.3378459867117 -46.901196262999406,457.6311566580161 -47.02767445561777,457.92651120471413 -47.14945064357547,458.2238352728783 -47.266494170368404,458.52305401276453 -47.37877557091464,458.8240920976552 -47.486266578972035,459.1268737428222 -47.588940134254145,459.43132272460565 -47.68677038924249,459.7373623996024 -47.77973271569357,460.044915723961 -47.86780371083882,460.3539052727768 -47.950961203276215,460.6642532595831 -48.029184258551716,460.9758815559341 -48.10245318442949,461.2887117110725 -48.17074953584927,461.60266497167987 -48.23405611956981,461.9176623017016 -48.29235699849721,462.23362440224463 -48.345637495696984,462.55047173153963 -48.39388419808888,462.86812452496594 -48.4370849598236,463.1865028151316 -48.475228905340394,463.5055264520045 -48.508306432104966,463.82511512309026 -48.53630921302683,464.14518837365006 -48.55923019855565,464.4656656269546 -48.57706361845591,464.7864662045692 -48.5898049832595,465.10750934666413 -48.59745108539596,465.4287142323451 -48.599999999999994,465.75 -48.600000000000016,465.75 -48.597451085395974,466.07128576765484 -48.58980498325951,466.3924906533358 -48.57706361845592,466.71353379543075 -48.55923019855567,467.03433437304545 -48.53630921302685,467.35481162634994 -48.50830643210497,467.6748848769097 -48.47522890534041,467.9944735479954 -48.437084959823615,468.3134971848684 -48.39388419808889,468.631875475034 -48.345637495697,468.9495282684603 -48.292356998497226,469.2663755977553 -48.23405611956982,469.58233769829826 -48.170749535849275,469.89733502832013 -48.1024531844295,470.21128828892745 -48.02918425855173,470.52411844406583 -47.95096120327622,470.8357467404168 -47.867803710838835,471.1460947272232 -47.779732715693584,471.4550842760389 -47.686770389242504,471.76263760039757 -47.588940134254145,472.06867727539435 -47.48626657897204,472.3731262571778 -47.378775570914655,472.67590790234476 -47.26649417036842,472.9769459872354 -47.14945064357548,473.2761647271216 -47.027674455617785,473.5734887952858 -46.90119626299942,473.8688433419839 -46.77004790592901,474.1621540132882 -46.63426240030409,474.45334696980575 -46.49387392939956,474.7423489052669 -46.348917835262206,475.02908706498005 -46.19943060981355,475.3134892641468 -46.04544988566316,475.5954839060344 -45.887014426634885,475.875 -45.7241641180083,476.15196717936146 -45.55693995647767,476.42631571911267 -45.38538403983143,476.6979765534758 -45.20953955635413,476.9668812932887 -45.029450773954125,477.23296224322104 -44.845163029019304,477.49615241881673 -44.656722715003944,477.75638556335645 -44.46417727074936,478.0135961645377 -44.267575168541455,478.2677194709673 -44.066965901908084,478.51869150846153 -43.86239997315931,478.76644909615237 -43.65392888067374,479.010929862392 -43.441605105934045,479.2520722604549 -43.22548210031506,479.48981558403193 -43.00561427162768,479.72409998251277 -42.782056970421976,479.954866476053 -42.554866476053014,480.18205697042197 -42.324099982512784,480.40561427162766 -42.08981558403193,480.625482100315 -41.85207226045492,480.84160510593404 -41.610929862392034,481.0539288806737 -41.36644909615244,481.2623999731593 -41.11869150846159,481.46696590190805 -40.86771947096727,481.6675751685414 -40.61359616453775,481.86417727074934 -40.35638556335648,482.0567227150039 -40.09615241881678,482.2451630290193 -39.832962243221125,482.4294507739541 -39.566881293288745,482.6095395563541 -39.297976553475856,482.7853840398314 -39.02631571911269,482.95693995647764 -38.751967179361486,483.12416411800825 -38.475,483.28701442663487 -38.195483906034504,483.44544988566315 -37.91348926414684,483.5994306098135 -37.62908706498008,483.7489178352622 -37.34234890526693,483.89387392939955 -37.05334696980574,484.03426240030404 -36.76215401328821,484.170047905929 -36.46884334198395,484.3011962629994 -36.17348879528586,484.42767445561776 -35.876164727121655,484.5494506435755 -35.57694598723541,484.6664941703684 -35.2759079023448,484.7787755709146 -34.9731262571778,484.886266578972 -34.66867727539437,484.9889401342541 -34.36263760039758,485.0867703892425 -34.05508427603896,485.17973271569355 -33.74609472722323,485.2678037108388 -33.43574674041687,485.3509612032762 -33.12411844406591,485.4291842585517 -32.811288288927464,485.5024531844295 -32.497335028320116,485.57074953584925 -32.182337698298326,485.6340561195698 -31.866375597755347,485.6923569984972 -31.549528268460357,485.74563749569694 -31.231875475034037,485.79388419808885 -30.913497184868426,485.8370849598236 -30.594473547995484,485.87522890534035 -30.274884876909702,485.90830643210495 -29.954811626349983,485.9363092130268 -29.63433437304544,485.95923019855564 -29.3135337954308,485.9770636184559 -28.99249065333588,485.9898049832595 -28.671285767654865,485.99745108539594 -28.350000000000012,486.0 28.34999999999999,486.0 " style="stroke:black;fill:none;stroke-width:2;stroke-linecap:round;stroke-linejoin:round;" /><polygon points="24.299999999999986,542.6999999999999 24.557028614123876,542.6979608683167 24.813992522668688,542.6918439866075 25.070827036344618,542.6816508947647 25.32746749843633,542.6673841588445 25.583849301079958,542.6490473704215 25.83990790152775,542.6266451456839 26.095578838396367,542.6001831242723 26.350797747894728,542.5696679678589 26.605500380027205,542.5351073584711 26.859622614768256,542.4965099965575 27.11310047820426,542.4538855987977 27.365870158638632,542.4072448956558 27.61786802265608,542.3565996286794 27.869030631141946,542.3019625475436 28.119294755252707,542.2433474068413 28.368597392333474,542.180768962621 28.616875781778557,542.1142429686711 28.864067420831148,542.0437861725547 29.11011008031804,541.969416311394 29.35494182031548,541.8911521074033 29.59850100574222,541.8090132631776 29.840726321875824,541.7230204567317 30.081556789788316,541.6331953362946 30.320931781697297,541.5395605148603 30.558791036228673,541.4421395644941 30.79507467358713,541.3409570103995 31.029723210630547,541.2360383247432 31.26267757584457,541.1274099202433 31.493879124213528,541.0150991435196 31.723269651984037,540.8991342682098 31.950791411317446,540.7795444878508 32.17638712482758,540.6563599085305 32.39999999999999,540.5296115413079 32.62157374348917,540.3993312944066 32.84105257529013,540.2655519651821 33.058381242780676,540.1283072318652 33.27350503463097,539.9876316450833 33.48636979457687,539.8435606191632 33.6969219350534,539.6961304232153 33.90510845068516,539.5453781720031 34.11087693163019,539.3913418165994 34.31417557677379,539.2340601348332 34.51495320676925,539.0735727215264 34.71315927692193,538.9099199785275 34.9087438899136,538.7431431045391 35.10165780836391,538.5732840847471 35.29185246722553,538.400385680252 35.4792799860102,538.2244914173021 35.66389318084239,538.0456455763376 35.84564557633757,537.8638931808423 36.02449141730213,537.6792799860102 36.200385680252026,537.4918524672255 36.37328408474721,537.3016578083639 36.54314310453897,537.1087438899136 36.70991997852743,536.9131592769219 36.87357272152644,536.7149532067692 37.03406013483315,536.5141755767738 37.19134181659947,536.3108769316301 37.34537817200314,536.1051084506852 37.496130423215426,535.8969219350533 37.64356061916328,535.6863697945769 37.78763164508329,535.473505034631 37.928307231865126,535.2583812427806 38.06555196518212,535.0410525752901 38.19933129440662,534.8215737434892 38.32961154130789,534.6 38.4563599085305,534.3763871248276 38.57954448785082,534.1507914113175 38.69913426820975,533.923269651984 38.81509914351963,533.6938791242135 38.92740992024325,533.4626775758445 39.03603832474319,533.2297232106305 39.14095701039952,532.9950746735872 39.24213956449421,532.7587910362286 39.339560514860366,532.5209317816973 39.433195336294716,532.2815567897883 39.5230204567317,532.0407263218758 39.609013263177616,531.7985010057422 39.691152107403305,531.5549418203155 39.76941631139399,531.310110080318 39.84378617255484,531.0640674208311 39.914242968671054,530.8168757817785 39.98076896262096,530.5685973923335 40.04334740684136,530.3192947552527 40.10196254754358,530.0690306311419 40.1565996286794,529.8178680226561 40.20724489565584,529.5658701586386 40.25388559879776,529.3131004782043 40.29650999655758,529.0596226147683 40.33510735847109,528.8055003800272 40.36966796785887,528.5507977478948 40.40018312427231,528.2955788383963 40.426645145683956,528.0399079015277 40.449047370421454,527.78384930108 40.46738415884452,527.5274674984363 40.48165089476471,527.2708270363446 40.491843986607584,527.0139925226687 40.49796086831676,526.7570286141238 40.499999999999986,526.5 40.499999999999986,526.5 40.49796086831676,526.2429713858761 40.491843986607584,525.9860074773313 40.48165089476471,525.7291729636554 40.46738415884452,525.4725325015636 40.449047370421454,525.2161506989199 40.426645145683956,524.9600920984722 40.40018312427231,524.7044211616036 40.36966796785887,524.4492022521052 40.33510735847109,524.1944996199727 40.29650999655758,523.9403773852317 40.25388559879776,523.6868995217957 40.20724489565584,523.4341298413613 40.1565996286794,523.1821319773439 40.10196254754358,522.930969368858 40.04334740684136,522.6807052447472 39.98076896262096,522.4314026076665 39.91424296867105,522.1831242182215 39.84378617255484,521.9359325791688 39.76941631139399,521.689889919682 39.691152107403305,521.4450581796845 39.609013263177616,521.2014989942578 39.52302045673171,520.9592736781241 39.433195336294716,520.7184432102117 39.339560514860366,520.4790682183027 39.2421395644942,520.2412089637713 39.14095701039952,520.0049253264128 39.03603832474318,519.7702767893695 38.92740992024325,519.5373224241554 38.81509914351963,519.3061208757864 38.69913426820975,519.0767303480159 38.57954448785082,518.8492085886825 38.4563599085305,518.6236128751724 38.32961154130789,518.4 38.19933129440662,518.1784262565108 38.06555196518212,517.9589474247098 37.928307231865126,517.7416187572193 37.78763164508328,517.526494965369 37.64356061916328,517.3136302054231 37.496130423215426,517.1030780649465 37.34537817200314,516.8948915493148 37.19134181659947,516.6891230683698 37.03406013483315,516.4858244232262 36.87357272152644,516.2850467932307 36.70991997852743,516.086840723078 36.54314310453897,515.8912561100864 36.37328408474721,515.698342191636 36.200385680252026,515.5081475327744 36.02449141730213,515.3207200139898 35.84564557633757,515.1361068191576 35.66389318084239,514.9543544236624 35.4792799860102,514.7755085826979 35.29185246722553,514.599614319748 35.10165780836391,514.4267159152528 34.9087438899136,514.2568568954609 34.71315927692193,514.0900800214725 34.51495320676925,513.9264272784735 34.31417557677379,513.7659398651668 34.11087693163019,513.6086581834005 33.90510845068516,513.4546218279968 33.696921935053396,513.3038695767846 33.48636979457687,513.1564393808367 33.27350503463097,513.0123683549167 33.058381242780676,512.8716927681348 32.84105257529013,512.7344480348178 32.62157374348917,512.6006687055934 32.399999999999984,512.4703884586921 32.17638712482758,512.3436400914694 31.950791411317446,512.2204555121491 31.723269651984037,512.1008657317902 31.493879124213525,511.9849008564803 31.262677575844567,511.8725900797567 31.029723210630547,511.7639616752568 30.79507467358713,511.65904298960044 30.55879103622867,511.55786043550575 30.320931781697297,511.4604394851396 30.081556789788316,511.36680466370524 29.840726321875824,511.2769795432682 29.598501005742218,511.19098673682237 29.35494182031548,511.10884789259666 29.11011008031804,511.030583688606 28.864067420831145,510.9562138274451 28.616875781778557,510.8857570313289 28.368597392333474,510.819231037379 28.119294755252707,510.7566525931586 27.869030631141943,510.6980374524564 27.617868022656076,510.6434003713206 27.365870158638632,510.5927551043441 27.11310047820426,510.5461144012022 26.859622614768252,510.5034900034424 26.605500380027205,510.4648926415289 26.350797747894728,510.4303320321411 26.095578838396367,510.39981687572765 25.839907901527745,510.373354854316 25.583849301079958,510.3509526295785 25.32746749843633,510.3326158411554 25.070827036344614,510.31834910523526 24.813992522668684,510.3081560133924 24.557028614123876,510.3020391316832 24.299999999999986,510.29999999999995 -24.300000000000004,510.29999999999995 -24.557028614123887,510.3020391316832 -24.813992522668702,510.3081560133924 -25.070827036344628,510.31834910523526 -25.327467498436345,510.3326158411554 -25.583849301079972,510.3509526295785 -25.839907901527763,510.373354854316 -26.09557883839638,510.39981687572765 -26.35079774789474,510.4303320321411 -26.60550038002722,510.4648926415288 -26.85962261476827,510.5034900034424 -27.113100478204274,510.5461144012022 -27.365870158638646,510.5927551043441 -27.617868022656094,510.6434003713206 -27.86903063114196,510.6980374524564 -28.11929475525272,510.7566525931586 -28.368597392333484,510.819231037379 -28.616875781778568,510.8857570313289 -28.864067420831162,510.9562138274451 -29.110110080318055,511.030583688606 -29.354941820315492,511.10884789259666 -29.598501005742232,511.19098673682237 -29.840726321875835,511.2769795432682 -30.081556789788326,511.36680466370524 -30.320931781697308,511.4604394851396 -30.558791036228687,511.55786043550575 -30.795074673587145,511.65904298960044 -31.02972321063056,511.7639616752568 -31.262677575844585,511.8725900797567 -31.493879124213542,511.9849008564803 -31.72326965198405,512.1008657317902 -31.95079141131746,512.2204555121491 -32.17638712482759,512.3436400914694 -32.400000000000006,512.4703884586921 -32.62157374348918,512.6006687055934 -32.84105257529014,512.7344480348178 -33.05838124278069,512.8716927681348 -33.273505034630986,513.0123683549167 -33.48636979457689,513.1564393808367 -33.69692193505341,513.3038695767846 -33.90510845068518,513.4546218279968 -34.110876931630195,513.6086581834005 -34.314175576773806,513.7659398651668 -34.51495320676926,513.9264272784735 -34.71315927692194,514.0900800214725 -34.908743889913616,514.2568568954609 -35.101657808363925,514.4267159152528 -35.291852467225546,514.599614319748 -35.47927998601021,514.7755085826979 -35.66389318084241,514.9543544236624 -35.84564557633758,515.1361068191576 -36.024491417302144,515.3207200139898 -36.20038568025204,515.5081475327744 -36.373284084747226,515.698342191636 -36.54314310453898,515.8912561100864 -36.70991997852744,516.086840723078 -36.873572721526465,516.2850467932307 -37.03406013483316,516.4858244232262 -37.19134181659948,516.6891230683698 -37.34537817200315,516.8948915493148 -37.49613042321544,517.1030780649465 -37.643560619163296,517.3136302054231 -37.787631645083295,517.526494965369 -37.92830723186514,517.7416187572193 -38.06555196518213,517.9589474247098 -38.19933129440663,518.1784262565108 -38.329611541307905,518.4 -38.456359908530516,518.6236128751724 -38.57954448785083,518.8492085886825 -38.69913426820976,519.0767303480159 -38.815099143519646,519.3061208757864 -38.927409920243264,519.5373224241554 -39.0360383247432,519.7702767893695 -39.140957010399525,520.0049253264128 -39.24213956449422,520.2412089637713 -39.33956051486038,520.4790682183027 -39.43319533629473,520.7184432102117 -39.523020456731714,520.9592736781241 -39.60901326317763,521.2014989942578 -39.69115210740332,521.4450581796845 -39.769416311394004,521.689889919682 -39.84378617255486,521.9359325791688 -39.91424296867106,522.1831242182215 -39.98076896262097,522.4314026076665 -40.04334740684138,522.6807052447472 -40.10196254754359,522.930969368858 -40.156599628679416,523.1821319773439 -40.207244895655855,523.4341298413613 -40.25388559879777,523.6868995217957 -40.296509996557596,523.9403773852317 -40.33510735847111,524.1944996199727 -40.36966796785888,524.4492022521052 -40.400183124272324,524.7044211616036 -40.42664514568397,524.9600920984722 -40.44904737042147,525.2161506989199 -40.46738415884453,525.4725325015636 -40.481650894764726,525.7291729636554 -40.4918439866076,525.9860074773313 -40.497960868316774,526.2429713858761 -40.5,526.5 -40.500000000000014,526.5 -40.49796086831678,526.7570286141238 -40.49184398660761,527.0139925226687 -40.48165089476473,527.2708270363446 -40.46738415884454,527.5274674984363 -40.449047370421475,527.78384930108 -40.42664514568398,528.0399079015277 -40.400183124272324,528.2955788383963 -40.369667967858895,528.5507977478948 -40.33510735847113,528.8055003800272 -40.2965099965576,529.0596226147683 -40.25388559879779,529.3131004782042 -40.20724489565586,529.5658701586386 -40.15659962867942,529.8178680226561 -40.1019625475436,530.0690306311419 -40.04334740684139,530.3192947552527 -39.98076896262098,530.5685973923335 -39.91424296867107,530.8168757817785 -39.84378617255487,531.0640674208311 -39.76941631139401,531.310110080318 -39.691152107403326,531.5549418203155 -39.60901326317764,531.7985010057422 -39.52302045673172,532.0407263218758 -39.43319533629474,532.2815567897883 -39.33956051486039,532.5209317816973 -39.242139564494224,532.7587910362286 -39.14095701039954,532.9950746735872 -39.0360383247432,533.2297232106305 -38.92740992024327,533.4626775758445 -38.81509914351965,533.6938791242135 -38.69913426820977,533.923269651984 -38.57954448785084,534.1507914113175 -38.45635990853053,534.3763871248276 -38.32961154130791,534.6 -38.19933129440664,534.8215737434892 -38.06555196518214,535.0410525752901 -37.92830723186515,535.2583812427806 -37.78763164508331,535.473505034631 -37.6435606191633,535.6863697945769 -37.49613042321545,535.8969219350533 -37.34537817200316,536.1051084506852 -37.1913418165995,536.3108769316301 -37.03406013483317,536.5141755767738 -36.87357272152647,536.7149532067692 -36.70991997852745,536.9131592769219 -36.54314310453899,537.1087438899136 -36.37328408474723,537.3016578083639 -36.20038568025205,537.4918524672255 -36.02449141730215,537.6792799860102 -35.84564557633759,537.8638931808423 -35.663893180842415,538.0456455763376 -35.479279986010226,538.2244914173021 -35.29185246722555,538.400385680252 -35.10165780836393,538.5732840847471 -34.90874388991363,538.743143104539 -34.71315927692195,538.9099199785275 -34.51495320676927,539.0735727215264 -34.31417557677382,539.2340601348332 -34.1108769316302,539.3913418165994 -33.90510845068519,539.5453781720031 -33.69692193505342,539.6961304232153 -33.4863697945769,539.8435606191632 -33.273505034631,539.9876316450833 -33.05838124278069,540.1283072318652 -32.84105257529015,540.2655519651821 -32.62157374348919,540.3993312944066 -32.400000000000006,540.5296115413079 -32.176387124827606,540.6563599085305 -31.95079141131748,540.7795444878508 -31.72326965198406,540.8991342682098 -31.493879124213546,541.0150991435196 -31.26267757584459,541.1274099202433 -31.029723210630568,541.2360383247432 -30.79507467358716,541.3409570103995 -30.558791036228694,541.4421395644941 -30.320931781697325,541.5395605148603 -30.081556789788337,541.6331953362946 -29.84072632187584,541.7230204567317 -29.598501005742243,541.8090132631776 -29.3549418203155,541.8911521074033 -29.11011008031807,541.969416311394 -28.86406742083117,542.0437861725547 -28.616875781778585,542.1142429686711 -28.368597392333495,542.180768962621 -28.119294755252724,542.2433474068414 -27.86903063114197,542.3019625475436 -27.617868022656097,542.3565996286794 -27.36587015863866,542.4072448956558 -27.11310047820428,542.4538855987977 -26.859622614768284,542.4965099965575 -26.60550038002723,542.5351073584711 -26.350797747894745,542.5696679678589 -26.095578838396392,542.6001831242723 -25.839907901527766,542.6266451456839 -25.58384930107999,542.6490473704215 -25.327467498436356,542.6673841588445 -25.070827036344642,542.6816508947647 -24.81399252266871,542.6918439866075 -24.55702861412389,542.6979608683167 -24.300000000000015,542.6999999999999 24.299999999999986,542.6999999999999 " style="stroke:black;fill:none;stroke-width:2;stroke-linecap:round;stroke-linejoin:round;" /><path d="M -64.8 259.2 C -113.39999999999999 259.2 -129.6 285.01875 -129.6 362.47499999999997" style="stroke:black;fill:none;stroke-width:2;stroke-linecap:round;" /><path d="M -129.6 362.47499999999997 C -129.6 439.93125 -109.35 465.75 -52.65 465.75" style="stroke:black;fill:none;stroke-width:2;stroke-linecap:round;" /><path d="M -50.599999999999994 465.75 L -56.69999999999999 468.99 L -56.69999999999999 462.51 Z" style="stroke:black;fill:black;stroke-linecap:butt;stroke-linejoin:miter;" /><path d="M 56.69999999999999 388.79999999999995 C 99.225 388.79999999999995 113.39999999999999 349.81874999999997 113.39999999999999 232.875" style="stroke:black;fill:none;stroke-width:2;stroke-linecap:round;" /><path d="M 113.39999999999999 232.875 C 113.39999999999999 115.93124999999999 97.19999999999999 76.95 52.65 76.95" style="stroke:black;fill:none;stroke-width:2;stroke-linecap:round;" /><path d="M 50.599999999999994 76.95 L 56.69999999999999 73.71000000000001 L 56.69999999999999 80.19 Z" style="stroke:black;fill:black;stroke-linecap:butt;stroke-linejoin:miter;" /><path d="M 0.0,32.4 L 7.43972930482017e-16,44.55 L 9.91963907309356e-16,48.599999999999994" style="stroke:black;fill:none;stroke-width:2;stroke-linecap:round;stroke-linejoin:round;" /><path d="M 1.3654811810492986e-15 54.699999999999996 L -2.429999999999999 48.6 L 2.4300000000000006 48.6 Z" style="stroke:black;fill:black;stroke-linecap:butt;stroke-linejoin:miter;" /><path d="M 1.487945860964034e-15,97.19999999999999 L 2.231918791446051e-15,109.35 L 2.47990976827339e-15,113.39999999999999" style="stroke:black;fill:none;stroke-width:2;stroke-linecap:round;stroke-linejoin:round;" /><path d="M 2.853427042013333e-15 119.5 L -2.4299999999999975 113.4 L 2.430000000000002 113.4 Z" style="stroke:black;fill:black;stroke-linecap:butt;stroke-linejoin:miter;" /><path d="M -64.8,153.9 L -64.8,121.5 L 64.8,121.5 L 64.8,186.29999999999998 L -64.8,186.29999999999998 L -64.8,153.9" style="stroke:black;fill:none;stroke-width:2;stroke-linecap:round;stroke-linejoin:round;" /><path d="M 55.080000000000005,121.5 L 55.080000000000005,186.29999999999998" style="stroke:black;fill:none;stroke-width:2;stroke-linecap:round;stroke-linejoin:round;" /><path d="M -55.08,121.5 L -55.08,186.29999999999998" style="stroke:black;fill:none;stroke-width:2;stroke-linecap:round;stroke-linejoin:round;" /><path d="M 2.975891721928068e-15,186.29999999999998 L 7.439729304820168e-16,198.45 L -1.85366514725959e-16,202.5" style="stroke:black;fill:none;stroke-width:2;stroke-linecap:round;stroke-linejoin:round;" /><path d="M -1.1663213310287071e-15 208.6 L -2.43 202.49999999999997 L 2.4299999999999993 202.49999999999997 Z" style="stroke:black;fill:black;stroke-linecap:butt;stroke-linejoin:miter;" /><path d="M -1.4879458609640344e-15,307.8 L -5.951783443856137e-15,332.09999999999997 L -9.113041680510164e-15,348.3" style="stroke:black;fill:none;stroke-width:2;stroke-linecap:round;stroke-linejoin:round;" /><path d="M -1.0093996496812913e-14 354.4 L -2.430000000000009 348.29999999999995 L 2.4299999999999904 348.29999999999995 Z" style="stroke:black;fill:black;stroke-linecap:butt;stroke-linejoin:miter;" /><path d="M -56.7,388.79999999999995 L -56.7,356.4 L 56.69999999999999,356.4 L 56.69999999999999,421.2 L -56.7,421.2 L -56.7,388.79999999999995" style="stroke:black;fill:none;stroke-width:2;stroke-linecap:round;stroke-linejoin:round;" /><path d="M -1.041562102674824e-14,486.0 L -9.671648096266222e-15,498.15 L -9.423657119438884e-15,502.2" style="stroke:black;fill:none;stroke-width:2;stroke-linecap:round;stroke-linejoin:round;" /><path d="M -9.050139845698941e-15 508.29999999999995 L -2.4300000000000095 502.19999999999993 L 2.42999999999999 502.19999999999993 Z" style="stroke:black;fill:black;stroke-linecap:butt;stroke-linejoin:miter;" /><text x="0.0" y="8.499999999999998" fill="black" font-size="14" font-family="sans-serif" text-anchor="middle" transform="rotate(0 0.0 14.1)"><tspan x="0.0" dy="11.200000000000001">Start</tspan></text><text x="1.487945860964034e-15" y="69.24999999999999" fill="black" font-size="14" font-family="sans-serif" text-anchor="middle" transform="rotate(0 1.487945860964034e-15 74.85)"><tspan x="1.487945860964034e-15" dy="11.200000000000001">add_more:</tspan></text><text x="2.975891721928068e-15" y="146.2" fill="black" font-size="14" font-family="sans-serif" text-anchor="middle" transform="rotate(0 2.975891721928068e-15 151.79999999999998)"><tspan x="2.975891721928068e-15" dy="11.200000000000001">Load Number</tspan></text><text x="-1.4879458609640344e-15" y="243.09999999999997" fill="black" font-size="14" font-family="sans-serif" text-anchor="middle" transform="rotate(0 -1.4879458609640344e-15 257.09999999999997)"><tspan x="-1.4879458609640344e-15" dy="14">Is number</tspan><tspan x="-1.4879458609640344e-15" dy="14">equal to 0?</tspan></text><text x="-3.240000000000006" y="324.40000000000003" fill="black" font-size="14" font-family="sans-serif" text-anchor="end" transform="rotate(0 -3.240000000000006 330.0)"><tspan x="-3.240000000000006" dy="11.200000000000001">No</tspan></text><text x="-1.041562102674824e-14" y="381.1" fill="black" font-size="14" font-family="sans-serif" text-anchor="middle" transform="rotate(0 -1.041562102674824e-14 386.7)"><tspan x="-1.041562102674824e-14" dy="11.200000000000001">Add Number</tspan></text><text x="-1.041562102674824e-14" y="458.05" fill="black" font-size="14" font-family="sans-serif" text-anchor="middle" transform="rotate(0 -1.041562102674824e-14 463.65)"><tspan x="-1.041562102674824e-14" dy="11.200000000000001">end:</tspan></text><text x="-8.927675165784206e-15" y="518.8" fill="black" font-size="14" font-family="sans-serif" text-anchor="middle" transform="rotate(0 -8.927675165784206e-15 524.4)"><tspan x="-8.927675165784206e-15" dy="11.200000000000001">Stop</tspan></text><text x="-74.52" y="278.0975" fill="black" font-size="14" font-family="sans-serif" text-anchor="end" transform="rotate(0 -74.52 289.2975)"><tspan x="-74.52" dy="11.200000000000001">Yes</tspan></text></svg>