<svg xmlns="http://www.w3.org/2000/svg" xml:lang="en" height="726.7pt" width="198.39999999999998pt" viewBox="-131.6 -3.8000000000000007 198.39999999999998 726.7"><polygon points="24.299999999999994,32.39999999999999 24.557028614123883,32.39796086831677 24.813992522668695,32.39184398660759 25.070827036344625,32.381650894764725 25.327467498436338,32.36738415884452 25.583849301079965,32.34904737042146 25.839907901527756,32.32664514568396 26.095578838396374,32.30018312427231 26.350797747894735,32.26966796785888 26.605500380027213,32.235107358471105 26.859622614768263,32.19650999655759 27.11310047820427,32.153885598797764 27.36587015863864,32.107244895655846 27.617868022656083,32.05659962867941 27.869030631141953,32.001962547543584 28.119294755252717,31.943347406841372 28.36859739233348,31.88076896262097 28.616875781778564,31.814242968671053 28.86406742083116,31.743786172554852 29.11011008031805,31.669416311393995 29.35494182031549,31.591152107403314 29.598501005742225,31.509013263177625 29.84072632187583,31.423020456731713 30.081556789788323,31.333195336294725 30.320931781697304,31.239560514860372 30.55879103622868,31.142139564494215 30.795074673587138,31.040957010399524 31.029723210630557,30.936038324743194 31.262677575844574,30.82740992024326 31.493879124213535,30.715099143519637 31.723269651984044,30.599134268209756 31.950791411317457,30.479544487850823 32.17638712482759,30.35635990853051 32.4,30.2296115413079 32.62157374348918,30.099331294406625 32.841052575290135,29.96555196518213 33.058381242780676,29.828307231865132 33.273505034630986,29.687631645083293 33.48636979457688,29.543560619163287 33.6969219350534,29.396130423215435 33.90510845068517,29.245378172003146 34.110876931630195,29.091341816599478 34.3141755767738,28.934060134833153 34.51495320676926,28.77357272152646 34.713159276921935,28.60991997852744 34.908743889913616,28.44314310453898 35.10165780836392,28.27328408474722 35.29185246722554,28.100385680252035 35.47927998601021,27.924491417302136 35.6638931808424,27.745645576337576 35.84564557633758,27.5638931808424 36.02449141730214,27.379279986010214 36.20038568025203,27.191852467225537 36.37328408474722,27.00165780836392 36.54314310453898,26.808743889913615 36.70991997852744,26.613159276921934 36.87357272152646,26.414953206769262 37.034060134833155,26.2141755767738 37.19134181659948,26.010876931630197 37.345378172003144,25.805108450685175 37.49613042321543,25.596921935053405 37.64356061916329,25.386369794576883 37.787631645083295,25.173505034630985 37.92830723186513,24.958381242780682 38.06555196518213,24.741052575290137 38.199331294406626,24.52157374348918 38.3296115413079,24.299999999999994 38.456359908530516,24.07638712482759 38.579544487850825,23.850791411317456 38.699134268209754,23.623269651984046 38.81509914351964,23.393879124213537 38.927409920243264,23.16267757584458 39.036038324743195,22.929723210630556 39.140957010399525,22.69507467358714 39.24213956449422,22.458791036228682 39.33956051486037,22.220931781697303 39.43319533629472,21.98155678978832 39.523020456731714,21.740726321875837 39.60901326317762,21.498501005742227 39.69115210740331,21.254941820315487 39.769416311394,21.01011008031805 39.84378617255486,20.764067420831157 39.91424296867106,20.516875781778563 39.98076896262097,20.26859739233348 40.04334740684138,20.01929475525272 40.10196254754359,19.769030631141955 40.156599628679416,19.517868022656085 40.20724489565585,19.265870158638645 40.25388559879777,19.01310047820427 40.29650999655759,18.759622614768265 40.33510735847111,18.505500380027218 40.36966796785888,18.250797747894737 40.40018312427232,17.99557883839638 40.42664514568397,17.739907901527754 40.44904737042147,17.48384930107997 40.467384158844524,17.227467498436344 40.481650894764726,16.97082703634462 40.4918439866076,16.713992522668693 40.497960868316774,16.457028614123885 40.5,16.2 40.5,16.200000000000003 40.497960868316774,15.942971385876113 40.4918439866076,15.686007477331307 40.481650894764726,15.429172963655379 40.467384158844524,15.172532501563659 40.44904737042147,14.91615069892003 40.42664514568397,14.660092098472242 40.40018312427232,14.404421161603624 40.36966796785888,14.149202252105265 40.33510735847111,13.894499619972784 40.29650999655759,13.640377385231734 40.25388559879777,13.38689952179573 40.20724489565585,13.134129841361357 40.156599628679416,12.882131977343912 40.10196254754359,12.630969368858045 40.04334740684138,12.380705244747281 39.98076896262097,12.131402607666518 39.91424296867106,11.883124218221434 39.84378617255486,11.635932579168841 39.769416311394004,11.389889919681949 39.69115210740331,11.14505817968451 39.60901326317763,10.901498994257771 39.523020456731714,10.659273678124167 39.43319533629472,10.418443210211677 39.33956051486037,10.179068218302696 39.24213956449422,9.941208963771318 39.140957010399525,9.70492532641286 39.036038324743195,9.470276789369441 38.927409920243264,9.23732242415542 38.81509914351964,9.006120875786461 38.699134268209754,8.776730348015953 38.579544487850825,8.549208588682541 38.456359908530516,8.323612875172408 38.329611541307905,8.1 38.199331294406626,7.878426256510817 38.06555196518213,7.6589474247098615 37.92830723186513,7.441618757219321 37.787631645083295,7.226494965369014 37.643560619163296,7.013630205423116 37.49613042321544,6.80307806494659 37.34537817200315,6.594891549314825 37.19134181659948,6.389123068369801 37.03406013483316,6.185824423226196 36.87357272152646,5.985046793230737 36.70991997852744,5.786840723078064 36.54314310453898,5.591256110086383 36.373284084747226,5.398342191636075 36.20038568025204,5.20814753277446 36.02449141730214,5.020720013989787 35.84564557633758,4.836106819157595 35.6638931808424,4.654354423662422 35.47927998601021,4.475508582697863 35.291852467225546,4.2996143197479615 35.10165780836392,4.126715915252774 34.908743889913616,3.9568568954610157 34.713159276921935,3.790080021472556 34.51495320676926,3.6264272784735394 34.314175576773806,3.4659398651668423 34.110876931630195,3.30865818340052 33.90510845068518,3.15462182799685 33.69692193505341,3.003869576784561 33.48636979457688,2.85643938083671 33.273505034630986,2.7123683549167033 33.05838124278068,2.571692768134866 32.841052575290135,2.434448034817867 32.621573743489186,2.3006687055933734 32.4,2.1703884586920927 32.17638712482759,2.043640091469484 31.95079141131746,1.9204555121491704 31.723269651984047,1.8008657317902397 31.493879124213535,1.684900856480359 31.262677575844577,1.5725900797567351 31.02972321063056,1.463961675256803 30.795074673587138,1.3590429896004708 30.55879103622868,1.25786043550578 30.320931781697304,1.1604394851396245 30.081556789788323,1.0668046637052722 29.84072632187583,0.9769795432682834 29.59850100574223,0.890986736822371 29.35494182031549,0.8088478925966839 29.110110080318055,0.7305836886060032 28.86406742083116,0.6562138274451426 28.616875781778564,0.5857570313289389 28.36859739233348,0.5192310373790288 28.119294755252717,0.4566525931586234 27.869030631141953,0.3980374524564058 27.61786802265609,0.3434003713205844 27.365870158638643,0.29275510434415136 27.11310047820427,0.24611440120222827 26.859622614768263,0.20349000344241072 26.605500380027216,0.16489264152889052 26.350797747894735,0.13033203214111547 26.095578838396374,0.0998168757276832 25.839907901527756,0.07335485431602966 25.58384930107997,0.050952629578533366 25.327467498436338,0.032615841155472114 25.070827036344625,0.018349105235271 24.813992522668695,0.008156013392401662 24.557028614123883,0.0020391316832238937 24.299999999999994,-0.0 -24.299999999999994,3.597122599785507e-15 -24.55702861412388,0.0020391316832274907 -24.813992522668695,0.00815601339240346 -25.07082703634462,0.0183491052352746 -25.327467498436338,0.03261584115547571 -25.583849301079965,0.05095262957853697 -25.839907901527756,0.07335485431603325 -26.095578838396374,0.0998168757276868 -26.350797747894735,0.13033203214111908 -26.605500380027213,0.1648926415288923 -26.859622614768263,0.2034900034424143 -27.113100478204267,0.24611440120223185 -27.36587015863864,0.2927551043441549 -27.617868022656083,0.34340037132058615 -27.869030631141953,0.3980374524564094 -28.119294755252714,0.456652593158627 -28.368597392333477,0.5192310373790305 -28.616875781778564,0.5857570313289407 -28.864067420831155,0.6562138274451444 -29.110110080318048,0.730583688606005 -29.354941820315485,0.8088478925966874 -29.598501005742225,0.8909867368223727 -29.840726321875827,0.9769795432682871 -30.08155678978832,1.0668046637052722 -30.320931781697304,1.1604394851396262 -30.55879103622868,1.2578604355057836 -30.795074673587138,1.3590429896004743 -31.029723210630554,1.463961675256803 -31.262677575844574,1.572590079756737 -31.49387912421353,1.684900856480359 -31.723269651984047,1.8008657317902432 -31.950791411317457,1.920455512149174 -32.17638712482759,2.0436400914694857 -32.39999999999999,2.1703884586920963 -32.62157374348918,2.3006687055933734 -32.84105257529013,2.434448034817867 -33.058381242780676,2.5716927681348642 -33.273505034630986,2.712368354916707 -33.48636979457687,2.8564393808367083 -33.6969219350534,3.0038695767845627 -33.90510845068517,3.1546218279968516 -34.110876931630195,3.30865818340052 -34.3141755767738,3.465939865166844 -34.514953206769256,3.6264272784735394 -34.71315927692193,3.790080021472554 -34.90874388991361,3.956856895461014 -35.10165780836392,4.126715915252776 -35.29185246722554,4.2996143197479615 -35.47927998601021,4.475508582697865 -35.6638931808424,4.654354423662422 -35.845645576337574,4.836106819157595 -36.02449141730213,5.020720013989785 -36.20038568025203,5.208147532774457 -36.37328408474722,5.398342191636077 -36.54314310453898,5.591256110086383 -36.70991997852744,5.786840723078064 -36.87357272152646,5.985046793230735 -37.034060134833155,6.185824423226194 -37.191341816599476,6.389123068369799 -37.345378172003144,6.594891549314822 -37.49613042321544,6.803078064946591 -37.64356061916329,7.01363020542311 -37.787631645083295,7.226494965369016 -37.92830723186513,7.441618757219319 -38.06555196518213,7.65894742470986 -38.199331294406626,7.878426256510815 -38.3296115413079,8.099999999999998 -38.456359908530516,8.323612875172412 -38.579544487850825,8.549208588682536 -38.699134268209754,8.776730348015953 -38.81509914351964,9.00612087578646 -38.92740992024326,9.23732242415542 -39.03603832474319,9.470276789369438 -39.140957010399525,9.704925326412857 -39.24213956449422,9.94120896377132 -39.33956051486037,10.17906821830269 -39.43319533629472,10.418443210211677 -39.52302045673171,10.65927367812416 -39.60901326317762,10.90149899425777 -39.69115210740331,11.145058179684508 -39.769416311394,11.389889919681945 -39.84378617255486,11.635932579168841 -39.914242968671054,11.883124218221429 -39.98076896262097,12.131402607666518 -40.04334740684138,12.380705244747272 -40.10196254754359,12.630969368858043 -40.156599628679416,12.882131977343908 -40.20724489565585,13.134129841361352 -40.25388559879777,13.386899521795725 -40.29650999655759,13.640377385231728 -40.33510735847111,13.894499619972784 -40.36966796785888,14.149202252105257 -40.40018312427232,14.404421161603622 -40.42664514568397,14.660092098472239 -40.44904737042146,14.916150698920026 -40.467384158844524,15.172532501563653 -40.481650894764726,15.42917296365537 -40.4918439866076,15.686007477331307 -40.497960868316774,15.942971385876106 -40.5,16.2 -40.5,16.200000000000003 -40.497960868316774,16.45702861412389 -40.4918439866076,16.713992522668693 -40.481650894764726,16.970827036344623 -40.46738415884453,17.22746749843635 -40.44904737042147,17.483849301079978 -40.42664514568397,17.73990790152776 -40.400183124272324,17.99557883839638 -40.36966796785888,18.250797747894737 -40.33510735847111,18.50550038002722 -40.296509996557596,18.75962261476827 -40.25388559879777,19.01310047820427 -40.207244895655855,19.26587015863865 -40.156599628679416,19.517868022656092 -40.10196254754359,19.769030631141963 -40.04334740684138,20.019294755252723 -39.98076896262097,20.268597392333483 -39.91424296867106,20.516875781778566 -39.84378617255486,20.76406742083116 -39.769416311394004,21.010110080318057 -39.69115210740331,21.254941820315494 -39.60901326317763,21.498501005742234 -39.523020456731714,21.740726321875837 -39.43319533629473,21.981556789788325 -39.33956051486038,22.220931781697306 -39.24213956449422,22.458791036228686 -39.140957010399525,22.695074673587143 -39.036038324743195,22.929723210630566 -38.927409920243264,23.162677575844583 -38.81509914351964,23.393879124213544 -38.69913426820976,23.623269651984046 -38.57954448785083,23.85079141131746 -38.456359908530516,24.07638712482759 -38.329611541307905,24.300000000000008 -38.19933129440663,24.52157374348918 -38.06555196518213,24.741052575290144 -37.92830723186514,24.958381242780682 -37.787631645083295,25.17350503463099 -37.643560619163296,25.386369794576886 -37.49613042321544,25.596921935053413 -37.34537817200315,25.805108450685175 -37.19134181659948,26.010876931630197 -37.03406013483316,26.214175576773805 -36.87357272152646,26.414953206769265 -36.70991997852744,26.613159276921937 -36.54314310453898,26.808743889913618 -36.373284084747226,27.001657808363927 -36.20038568025204,27.19185246722554 -36.024491417302144,27.379279986010214 -35.84564557633758,27.563893180842406 -35.6638931808424,27.74564557633758 -35.47927998601021,27.92449141730214 -35.291852467225546,28.100385680252042 -35.101657808363925,28.273284084747225 -34.908743889913616,28.44314310453898 -34.71315927692194,28.60991997852744 -34.51495320676926,28.773572721526463 -34.314175576773806,28.934060134833153 -34.110876931630195,29.09134181659948 -33.90510845068518,29.245378172003154 -33.69692193505341,29.396130423215443 -33.48636979457689,29.54356061916329 -33.273505034630986,29.687631645083293 -33.05838124278069,29.828307231865132 -32.84105257529014,29.96555196518213 -32.62157374348918,30.099331294406632 -32.4,30.229611541307907 -32.17638712482759,30.356359908530518 -31.95079141131746,30.479544487850827 -31.72326965198405,30.59913426820976 -31.493879124213535,30.715099143519645 -31.262677575844585,30.827409920243262 -31.02972321063056,30.936038324743198 -30.795074673587145,31.040957010399524 -30.558791036228683,31.14213956449422 -30.320931781697308,31.239560514860376 -30.081556789788326,31.33319533629473 -29.840726321875835,31.423020456731717 -29.59850100574223,31.50901326317763 -29.354941820315492,31.591152107403314 -29.110110080318055,31.669416311393995 -28.86406742083116,31.74378617255486 -28.616875781778568,31.81424296867106 -28.368597392333484,31.880768962620973 -28.11929475525272,31.943347406841376 -27.869030631141957,32.00196254754359 -27.61786802265609,32.056599628679415 -27.365870158638646,32.107244895655846 -27.113100478204274,32.15388559879777 -26.859622614768266,32.19650999655759 -26.60550038002722,32.23510735847111 -26.35079774789474,32.26966796785889 -26.09557883839638,32.300183124272316 -25.83990790152776,32.32664514568397 -25.583849301079972,32.34904737042147 -25.327467498436345,32.36738415884452 -25.070827036344625,32.38165089476473 -24.8139925226687,32.3918439866076 -24.557028614123887,32.39796086831678 -24.300000000000004,32.4 24.299999999999994,32.39999999999999 " style="stroke:black;fill:none;stroke-width:2;stroke-linecap:round;stroke-linejoin:round;" /><polygon points="28.349999999999994,186.29999999999998 28.671285767654854,186.29745108539598 28.99249065333587,186.28980498325947 29.31353379543078,186.27706361845588 29.63433437304543,186.25923019855566 29.954811626349958,186.23630921302683 30.274884876909695,186.20830643210493 30.59447354799547,186.1752289053404 30.91349718486842,186.1370849598236 31.23187547503402,186.0938841980889 31.549528268460335,186.04563749569698 31.866375597755336,185.9923569984972 32.182337698298305,185.93405611956982 32.49733502832011,185.87074953584926 32.81128828892744,185.80245318442948 33.12411844406589,185.7291842585517 33.43574674041685,185.6509612032762 33.7460947272232,185.5678037108388 34.05508427603895,185.47973271569356 34.36263760039756,185.38677038924249 34.668677275394366,185.28894013425415 34.97312625717778,185.186266578972 35.27590790234479,185.07877557091464 35.5769459872354,184.9664941703684 35.876164727121626,184.84945064357547 36.17348879528585,184.72767445561777 36.46884334198392,184.6011962629994 36.762154013288196,184.470047905929 37.05334696980572,184.33426240030408 37.342348905266924,184.19387392939953 37.629087064980055,184.0489178352622 37.91348926414682,183.89943060981352 38.19548390603448,183.74544988566313 38.475,183.58701442663485 38.75196717936147,183.4241641180083 39.026315719112674,183.25693995647765 39.29797655347585,183.08538403983138 39.56688129328872,182.9095395563541 39.832962243221104,182.72945077395408 40.096152418816764,182.5451630290193 40.35638556335647,182.35672271500394 40.613596164537746,182.16417727074935 40.86771947096725,181.96757516854143 41.11869150846158,181.76696590190807 41.366449096152415,181.56239997315927 41.61092986239202,181.35392888067372 41.8520722604549,181.14160510593402 42.08981558403192,180.92548210031504 42.32409998251277,180.70561427162767 42.554866476053,180.48205697042195 42.78205697042197,180.254866476053 43.005614271627664,180.02409998251275 43.22548210031505,179.7898155840319 43.44160510593403,179.55207226045488 43.653928880673725,179.310929862392 43.8623999731593,179.0664490961524 44.06696590190807,178.81869150846157 44.26757516854145,178.56771947096726 44.464177270749346,178.31359616453776 44.65672271500393,178.05638556335649 44.84516302901929,177.79615241881675 45.02945077395411,177.5329622432211 45.209539556354116,177.26688129328872 45.385384039831415,176.99797655347584 45.556939956477656,176.72631571911265 45.724164118008275,176.45196717936147 45.88701442663488,176.17499999999998 46.045449885663146,175.89548390603449 46.19943060981353,175.6134892641468 46.34891783526219,175.32908706498003 46.49387392939955,175.04234890526692 46.634262400304074,174.7533469698057 46.770047905929,174.4621540132882 46.901196262999406,174.16884334198394 47.02767445561777,173.87348879528585 47.14945064357546,173.57616472712164 47.266494170368404,173.2769459872354 47.37877557091464,172.9759079023448 47.486266578972035,172.67312625717776 47.58894013425414,172.36867727539433 47.68677038924248,172.06263760039758 47.77973271569357,171.75508427603893 47.86780371083882,171.4460947272232 47.95096120327621,171.13574674041683 48.02918425855171,170.8241184440659 48.102453184429486,170.51128828892743 48.17074953584926,170.19733502832008 48.23405611956981,169.8823376982983 48.292356998497205,169.56637559775535 48.345637495696984,169.24952826846032 48.39388419808888,168.93187547503402 48.4370849598236,168.61349718486844 48.475228905340394,168.29447354799547 48.50830643210496,167.9748848769097 48.53630921302683,167.65481162634998 48.55923019855565,167.33433437304544 48.5770636184559,167.0135337954308 48.5898049832595,166.69249065333585 48.59745108539596,166.37128576765485 48.599999999999994,166.04999999999998 48.599999999999994,166.04999999999998 48.59745108539596,165.7287142323451 48.5898049832595,165.4075093466641 48.5770636184559,165.0864662045692 48.55923019855565,164.76566562695456 48.53630921302683,164.44518837365 48.50830643210496,164.1251151230903 48.475228905340394,163.80552645200453 48.4370849598236,163.48650281513156 48.39388419808888,163.16812452496598 48.34563749569698,162.85047173153967 48.292356998497205,162.53362440224464 48.23405611956981,162.2176623017017 48.17074953584926,161.90266497167985 48.102453184429486,161.58871171107256 48.02918425855171,161.2758815559341 47.95096120327621,160.96425325958313 47.86780371083882,160.65390527277677 47.77973271569356,160.34491572396107 47.68677038924248,160.03736239960242 47.58894013425414,159.73132272460563 47.48626657897203,159.4268737428222 47.37877557091464,159.1240920976552 47.266494170368404,158.8230540127646 47.14945064357546,158.52383527287836 47.02767445561777,158.22651120471414 46.901196262999406,157.93115665801605 46.770047905929,157.6378459867118 46.634262400304074,157.34665303019426 46.49387392939955,157.05765109473307 46.34891783526219,156.77091293501994 46.19943060981353,156.4865107358532 46.04544988566314,156.2045160939655 45.88701442663487,155.92499999999998 45.724164118008275,155.64803282063852 45.556939956477656,155.37368428088732 45.385384039831415,155.10202344652413 45.20953955635411,154.83311870671128 45.02945077395411,154.5670377567789 44.84516302901929,154.30384758118325 44.65672271500393,154.0436144366435 44.464177270749346,153.78640383546224 44.26757516854145,153.53228052903273 44.06696590190807,153.28130849153843 43.8623999731593,153.03355090384758 43.653928880673725,152.78907013760795 43.44160510593403,152.5479277395451 43.22548210031504,152.31018441596805 43.005614271627664,152.0759000174872 42.78205697042197,151.845133523947 42.554866476053,151.61794302957802 42.32409998251277,151.39438572837233 42.08981558403192,151.17451789968496 41.8520722604549,150.95839489406598 41.61092986239202,150.74607111932625 41.366449096152415,150.5376000268407 41.11869150846158,150.3330340980919 40.86771947096725,150.13242483145854 40.61359616453774,149.93582272925065 40.35638556335647,149.74327728499605 40.09615241881676,149.5548369709807 39.832962243221104,149.37054922604588 39.56688129328872,149.1904604436459 39.29797655347585,149.01461596016858 39.02631571911267,148.84306004352234 38.75196717936147,148.6758358819917 38.474999999999994,148.5129855733651 38.19548390603448,148.35455011433686 37.91348926414682,148.20056939018644 37.629087064980055,148.0510821647378 37.34234890526692,147.90612607060046 37.05334696980572,147.7657375996959 36.762154013288196,147.62995209407097 36.46884334198392,147.49880373700057 36.17348879528585,147.3723255443822 35.876164727121626,147.25054935642453 35.5769459872354,147.1335058296316 35.27590790234479,147.02122442908535 34.97312625717778,146.91373342102796 34.668677275394366,146.81105986574585 34.36263760039756,146.71322961075748 34.05508427603894,146.6202672843064 33.7460947272232,146.53219628916116 33.43574674041685,146.44903879672378 33.12411844406589,146.3708157414483 32.81128828892744,146.2975468155705 32.49733502832011,146.2292504641507 32.182337698298305,146.16594388043018 31.866375597755336,146.10764300150277 31.549528268460328,146.05436250430301 31.23187547503402,146.0061158019111 30.91349718486842,145.9629150401764 30.59447354799547,145.9247710946596 30.27488487690969,145.89169356789503 29.954811626349958,145.86369078697317 29.63433437304543,145.8407698014443 29.313533795430775,145.82293638154408 28.992490653335864,145.81019501674052 28.671285767654854,145.80254891460402 28.349999999999994,145.79999999999998 -28.349999999999994,145.79999999999998 -28.671285767654854,145.80254891460402 -28.992490653335867,145.81019501674052 -29.313533795430775,145.82293638154408 -29.634334373045427,145.8407698014443 -29.954811626349958,145.86369078697317 -30.274884876909695,145.89169356789503 -30.594473547995467,145.9247710946596 -30.913497184868415,145.9629150401764 -31.231875475034016,146.0061158019111 -31.54952826846033,146.05436250430301 -31.866375597755333,146.10764300150277 -32.1823376982983,146.16594388043018 -32.49733502832011,146.2292504641507 -32.81128828892744,146.2975468155705 -33.12411844406589,146.3708157414483 -33.435746740416846,146.44903879672378 -33.7460947272232,146.53219628916116 -34.05508427603894,146.6202672843064 -34.362637600397555,146.71322961075748 -34.66867727539435,146.81105986574585 -34.97312625717778,146.91373342102796 -35.27590790234479,147.02122442908535 -35.5769459872354,147.1335058296316 -35.876164727121626,147.25054935642453 -36.17348879528585,147.3723255443822 -36.46884334198392,147.49880373700057 -36.762154013288196,147.62995209407097 -37.05334696980572,147.7657375996959 -37.34234890526692,147.90612607060046 -37.629087064980055,148.0510821647378 -37.91348926414681,148.20056939018644 -38.19548390603448,148.35455011433683 -38.475,148.5129855733651 -38.75196717936147,148.6758358819917 -39.02631571911267,148.84306004352234 -39.29797655347585,149.01461596016858 -39.56688129328872,149.1904604436459 -39.832962243221104,149.37054922604588 -40.09615241881676,149.5548369709807 -40.35638556335646,149.74327728499605 -40.61359616453774,149.93582272925065 -40.86771947096725,150.13242483145854 -41.11869150846158,150.3330340980919 -41.366449096152415,150.5376000268407 -41.61092986239202,150.74607111932625 -41.8520722604549,150.95839489406598 -42.08981558403192,151.17451789968493 -42.32409998251276,151.39438572837233 -42.554866476053,151.61794302957802 -42.78205697042197,151.845133523947 -43.005614271627664,152.0759000174872 -43.22548210031504,152.31018441596805 -43.44160510593402,152.5479277395451 -43.653928880673725,152.78907013760795 -43.8623999731593,153.03355090384758 -44.06696590190807,153.28130849153843 -44.26757516854144,153.53228052903273 -44.464177270749346,153.78640383546224 -44.65672271500393,154.0436144366435 -44.84516302901929,154.30384758118325 -45.0294507739541,154.5670377567789 -45.20953955635411,154.83311870671128 -45.385384039831415,155.10202344652413 -45.556939956477656,155.37368428088732 -45.724164118008275,155.64803282063852 -45.88701442663488,155.92499999999998 -46.04544988566314,156.2045160939655 -46.19943060981353,156.4865107358532 -46.34891783526219,156.77091293501994 -46.49387392939955,157.05765109473307 -46.63426240030407,157.34665303019426 -46.770047905929,157.6378459867118 -46.9011962629994,157.93115665801605 -47.02767445561777,158.22651120471414 -47.14945064357546,158.52383527287836 -47.266494170368404,158.8230540127646 -47.37877557091464,159.1240920976552 -47.48626657897203,159.4268737428222 -47.58894013425414,159.73132272460563 -47.68677038924248,160.03736239960242 -47.77973271569356,160.34491572396107 -47.86780371083882,160.65390527277677 -47.95096120327621,160.96425325958313 -48.02918425855171,161.2758815559341 -48.102453184429486,161.58871171107256 -48.17074953584926,161.90266497167988 -48.2340561195698,162.2176623017017 -48.292356998497205,162.53362440224464 -48.34563749569698,162.85047173153967 -48.39388419808888,163.16812452496598 -48.4370849598236,163.48650281513156 -48.475228905340394,163.80552645200453 -48.50830643210496,164.1251151230903 -48.536309213026826,164.44518837365 -48.55923019855565,164.76566562695456 -48.5770636184559,165.0864662045692 -48.5898049832595,165.4075093466641 -48.59745108539596,165.7287142323451 -48.599999999999994,166.04999999999998 -48.599999999999994,166.04999999999998 -48.59745108539597,166.37128576765485 -48.589804983259505,166.69249065333585 -48.57706361845592,167.01353379543076 -48.55923019855566,167.33433437304544 -48.53630921302683,167.65481162634998 -48.508306432104966,167.9748848769097 -48.475228905340394,168.29447354799547 -48.43708495982361,168.61349718486844 -48.39388419808889,168.93187547503402 -48.34563749569699,169.24952826846032 -48.29235699849722,169.56637559775533 -48.234056119569814,169.8823376982983 -48.17074953584927,170.1973350283201 -48.1024531844295,170.51128828892743 -48.029184258551716,170.8241184440659 -47.95096120327622,171.13574674041683 -47.867803710838835,171.4460947272232 -47.77973271569358,171.75508427603893 -47.686770389242504,172.06263760039758 -47.588940134254145,172.36867727539433 -47.486266578972035,172.67312625717776 -47.378775570914655,172.9759079023448 -47.26649417036841,173.2769459872354 -47.14945064357548,173.57616472712164 -47.02767445561777,173.87348879528585 -46.901196262999406,174.16884334198394 -46.770047905929,174.4621540132882 -46.63426240030408,174.7533469698057 -46.493873929399555,175.04234890526692 -46.3489178352622,175.32908706498003 -46.19943060981354,175.6134892641468 -46.045449885663146,175.89548390603449 -45.887014426634885,176.17499999999998 -45.72416411800829,176.45196717936147 -45.55693995647767,176.72631571911265 -45.385384039831415,176.99797655347584 -45.20953955635412,177.26688129328872 -45.02945077395412,177.5329622432211 -44.845163029019304,177.79615241881675 -44.656722715003944,178.05638556335646 -44.46417727074935,178.31359616453776 -44.26757516854145,178.56771947096726 -44.06696590190808,178.81869150846157 -43.862399973159306,179.0664490961524 -43.65392888067373,179.310929862392 -43.44160510593404,179.55207226045488 -43.225482100315055,179.7898155840319 -43.00561427162768,180.02409998251275 -42.782056970421976,180.254866476053 -42.554866476053,180.48205697042195 -42.32409998251277,180.70561427162767 -42.08981558403193,180.92548210031504 -41.852072260454904,181.14160510593402 -41.61092986239203,181.3539288806737 -41.36644909615243,181.56239997315927 -41.11869150846158,181.76696590190807 -40.867719470967266,181.96757516854143 -40.613596164537746,182.16417727074935 -40.35638556335648,182.3567227150039 -40.09615241881677,182.5451630290193 -39.83296224322112,182.72945077395408 -39.56688129328874,182.9095395563541 -39.297976553475856,183.08538403983138 -39.02631571911268,183.25693995647765 -38.75196717936148,183.4241641180083 -38.475,183.58701442663488 -38.19548390603449,183.74544988566313 -37.91348926414683,183.89943060981352 -37.62908706498006,184.0489178352622 -37.342348905266924,184.19387392939953 -37.05334696980574,184.33426240030408 -36.7621540132882,184.470047905929 -36.46884334198394,184.6011962629994 -36.173488795285856,184.72767445561777 -35.87616472712165,184.84945064357547 -35.576945987235405,184.9664941703684 -35.27590790234479,185.07877557091464 -34.973126257177796,185.186266578972 -34.668677275394366,185.28894013425415 -34.362637600397576,185.38677038924249 -34.05508427603895,185.47973271569356 -33.74609472722322,185.5678037108388 -33.43574674041686,185.6509612032762 -33.1241184440659,185.72918425855173 -32.81128828892745,185.80245318442948 -32.49733502832011,185.87074953584926 -32.18233769829832,185.93405611956982 -31.86637559775534,185.9923569984972 -31.54952826846035,186.04563749569698 -31.23187547503403,186.0938841980889 -30.91349718486842,186.1370849598236 -30.594473547995477,186.1752289053404 -30.274884876909695,186.20830643210493 -29.954811626349976,186.23630921302683 -29.634334373045434,186.25923019855566 -29.313533795430793,186.27706361845588 -28.992490653335874,186.28980498325947 -28.671285767654858,186.29745108539598 -28.350000000000005,186.29999999999998 28.349999999999994,186.29999999999998 " style="stroke:black;fill:none;stroke-width:2;stroke-linecap:round;stroke-linejoin:round;" /><polygon points="-64.80000000000001,526.5 -1.4879458609640343e-14,477.9 64.79999999999998,526.5 -1.4879458609640343e-14,575.1 " style="stroke:black;fill:none;stroke-width:2;stroke-linecap:round;stroke-linejoin:round;" /><path d="M -64.80000000000001 526.5 C -113.39999999999999 526.5 -129.6 481.44374999999997 -129.6 346.275" style="stroke:black;fill:none;stroke-width:2;stroke-linecap:round;" /><path d="M -129.6 346.275 C -129.6 211.10625 -109.35 166.04999999999995 -52.65 166.04999999999998" style="stroke:black;fill:none;stroke-width:2;stroke-linecap:round;" /><path d="M -50.599999999999994 166.04999999999998 L -56.699999999999996 169.29 L -56.69999999999999 162.80999999999997 Z" style="stroke:black;fill:black;stroke-linecap:butt;stroke-linejoin:miter;" /><polygon points="28.349999999999977,664.1999999999999 28.671285767654837,664.197451085396 28.99249065333585,664.1898049832595 29.313533795430757,664.1770636184559 29.63433437304541,664.1592301985556 29.95481162634994,664.1363092130268 30.27488487690967,664.108306432105 30.59447354799545,664.0752289053404 30.913497184868397,664.0370849598236 31.231875475034,663.993884198089 31.549528268460314,663.9456374956969 31.866375597755315,663.8923569984971 32.182337698298284,663.8340561195698 32.49733502832008,663.7707495358493 32.81128828892742,663.7024531844294 33.12411844406588,663.6291842585516 33.43574674041683,663.5509612032762 33.74609472722318,663.4678037108388 34.055084276038926,663.3797327156935 34.36263760039754,663.2867703892425 34.66867727539433,663.1889401342542 34.97312625717776,663.0862665789721 35.27590790234477,662.9787755709146 35.576945987235376,662.8664941703684 35.87616472712161,662.7494506435754 36.17348879528583,662.6276744556178 36.4688433419839,662.5011962629993 36.762154013288175,662.3700479059289 37.053346969805695,662.234262400304 37.342348905266896,662.0938739293996 37.629087064980034,661.9489178352623 37.9134892641468,661.7994306098135 38.19548390603446,661.6454498856631 38.47499999999997,661.4870144266348 38.75196717936146,661.3241641180083 39.02631571911265,661.1569399564776 39.29797655347583,660.9853840398314 39.5668812932887,660.8095395563541 39.83296224322108,660.6294507739541 40.09615241881674,660.4451630290192 40.35638556335644,660.2567227150039 40.61359616453772,660.0641772707494 40.867719470967224,659.8675751685414 41.11869150846155,659.666965901908 41.3664490961524,659.4623999731592 41.61092986239199,659.2539288806737 41.852072260454875,659.041605105934 42.089815584031896,658.8254821003151 42.324099982512735,658.6056142716277 42.55486647605297,658.382056970422 42.78205697042194,658.1548664760529 43.00561427162764,657.9240999825128 43.22548210031502,657.6898155840319 43.44160510593401,657.4520722604549 43.653928880673696,657.210929862392 43.86239997315928,656.9664490961525 44.06696590190804,656.7186915084616 44.26757516854142,656.4677194709673 44.464177270749325,656.2135961645378 44.65672271500391,655.9563855633564 44.84516302901927,655.6961524188167 45.02945077395409,655.4329622432211 45.209539556354095,655.1668812932887 45.385384039831386,654.8979765534758 45.556939956477635,654.6263157191127 45.724164118008254,654.3519671793615 45.88701442663485,654.0749999999999 46.04544988566312,653.7954839060345 46.19943060981351,653.5134892641468 46.348917835262164,653.22908706498 46.49387392939953,652.942348905267 46.63426240030405,652.6533469698056 46.77004790592897,652.3621540132882 46.90119626299938,652.0688433419839 47.02767445561774,651.7734887952859 47.14945064357544,651.4761647271216 47.266494170368375,651.1769459872354 47.37877557091461,650.8759079023448 47.48626657897201,650.5731262571777 47.588940134254116,650.2686772753943 47.68677038924246,649.9626376003974 47.77973271569354,649.6550842760389 47.86780371083879,649.3460947272231 47.95096120327619,649.0357467404168 48.02918425855169,648.7241184440659 48.102453184429464,648.4112882889274 48.17074953584924,648.0973350283201 48.234056119569786,647.7823376982983 48.29235699849718,647.4663755977552 48.34563749569695,647.1495282684602 48.39388419808885,646.8318754750339 48.43708495982357,646.5134971848684 48.475228905340366,646.1944735479955 48.50830643210494,645.8748848769096 48.536309213026804,645.55481162635 48.559230198555625,645.2343343730454 48.57706361845588,644.9135337954307 48.58980498325946,644.5924906533359 48.59745108539593,644.2712857676548 48.599999999999966,643.9499999999999 48.599999999999966,643.9499999999999 48.59745108539594,643.6287142323451 48.58980498325946,643.307509346664 48.57706361845589,642.9864662045692 48.55923019855563,642.6656656269545 48.536309213026804,642.34518837365 48.50830643210494,642.0251151230904 48.475228905340366,641.7055264520045 48.43708495982358,641.3865028151315 48.393884198088855,641.0681245249659 48.345637495696955,640.7504717315396 48.29235699849719,640.4336244022447 48.234056119569786,640.1176623017017 48.17074953584924,639.8026649716799 48.10245318442947,639.4887117110726 48.02918425855169,639.1758815559341 47.950961203276194,638.864253259583 47.8678037108388,638.5539052727768 47.77973271569355,638.2449157239611 47.68677038924247,637.9373623996024 47.588940134254116,637.6313227246055 47.48626657897201,637.3268737428222 47.37877557091463,637.0240920976552 47.26649417036838,636.7230540127646 47.14945064357545,636.4238352728784 47.02767445561774,636.1265112047141 46.90119626299938,635.831156658016 46.77004790592897,635.5378459867118 46.63426240030405,635.2466530301942 46.49387392939953,634.957651094733 46.34891783526217,634.6709129350199 46.19943060981351,634.3865107358532 46.04544988566312,634.1045160939655 45.887014426634856,633.8249999999999 45.72416411800826,633.5480328206385 45.55693995647764,633.2736842808873 45.385384039831386,633.0020234465242 45.209539556354095,632.7331187067113 45.02945077395409,632.4670377567788 44.845163029019275,632.2038475811833 44.656722715003916,631.9436144366435 44.464177270749325,631.6864038354622 44.26757516854142,631.4322805290327 44.06696590190805,631.1813084915384 43.86239997315928,630.9335509038475 43.6539288806737,630.6890701376079 43.44160510593401,630.4479277395451 43.22548210031502,630.210184415968 43.00561427162764,629.9759000174872 42.78205697042195,629.745133523947 42.55486647605297,629.517943029578 42.324099982512735,629.2943857283723 42.0898155840319,629.0745178996849 41.852072260454875,628.8583948940659 41.61092986239199,628.6460711193263 41.3664490961524,628.4376000268406 41.11869150846155,628.2330340980918 40.867719470967224,628.0324248314585 40.61359616453772,627.8358227292506 40.35638556335645,627.643277284996 40.09615241881674,627.4548369709806 39.83296224322108,627.2705492260459 39.5668812932887,627.0904604436458 39.29797655347583,626.9146159601685 39.026315719112645,626.7430600435223 38.75196717936146,626.5758358819917 38.47499999999997,626.4129855733652 38.19548390603446,626.2545501143368 37.9134892641468,626.1005693901865 37.629087064980034,625.9510821647377 37.342348905266896,625.8061260706004 37.0533469698057,625.665737599696 36.762154013288175,625.5299520940711 36.4688433419839,625.3988037370005 36.17348879528583,625.2723255443822 35.87616472712161,625.1505493564244 35.576945987235376,625.0335058296315 35.27590790234477,624.9212244290853 34.97312625717776,624.8137334210279 34.66867727539433,624.7110598657458 34.36263760039754,624.6132296107575 34.05508427603892,624.5202672843063 33.74609472722318,624.4321962891612 33.435746740416825,624.3490387967237 33.12411844406588,624.2708157414482 32.81128828892742,624.1975468155705 32.49733502832008,624.1292504641507 32.182337698298284,624.0659438804302 31.866375597755315,624.0076430015029 31.549528268460307,623.954362504303 31.231875475034,623.906115801911 30.913497184868397,623.8629150401764 30.59447354799545,623.8247710946596 30.27488487690967,623.791693567895 29.954811626349937,623.7636907869731 29.63433437304541,623.7407698014443 29.313533795430754,623.7229363815441 28.992490653335842,623.7101950167405 28.671285767654833,623.702548914604 28.349999999999973,623.6999999999999 -28.350000000000016,623.6999999999999 -28.671285767654876,623.702548914604 -28.99249065333589,623.7101950167405 -29.313533795430796,623.7229363815441 -29.634334373045448,623.7407698014443 -29.954811626349983,623.7636907869731 -30.274884876909713,623.791693567895 -30.594473547995488,623.8247710946596 -30.913497184868437,623.8629150401764 -31.23187547503404,623.906115801911 -31.549528268460353,623.954362504303 -31.866375597755354,624.0076430015029 -32.18233769829832,624.0659438804302 -32.49733502832012,624.1292504641507 -32.81128828892746,624.1975468155705 -33.124118444065914,624.2708157414482 -33.43574674041687,624.3490387967237 -33.74609472722322,624.4321962891612 -34.05508427603896,624.5202672843063 -34.362637600397576,624.6132296107575 -34.66867727539438,624.7110598657458 -34.9731262571778,624.8137334210279 -35.275907902344805,624.9212244290853 -35.57694598723542,625.0335058296315 -35.87616472712165,625.1505493564244 -36.17348879528587,625.2723255443822 -36.46884334198395,625.3988037370005 -36.76215401328822,625.5299520940711 -37.05334696980574,625.665737599696 -37.34234890526694,625.8061260706004 -37.62908706498007,625.9510821647377 -37.91348926414683,626.1005693901865 -38.195483906034504,626.2545501143368 -38.475000000000016,626.4129855733652 -38.75196717936149,626.5758358819917 -39.02631571911269,626.7430600435223 -39.29797655347587,626.9146159601685 -39.566881293288745,627.0904604436458 -39.83296224322112,627.2705492260459 -40.09615241881677,627.4548369709806 -40.35638556335648,627.643277284996 -40.61359616453776,627.8358227292506 -40.86771947096727,628.0324248314585 -41.118691508461595,628.2330340980918 -41.36644909615244,628.4376000268406 -41.610929862392034,628.6460711193263 -41.85207226045491,628.8583948940659 -42.089815584031946,629.0745178996849 -42.324099982512784,629.2943857283723 -42.554866476053014,629.517943029578 -42.78205697042198,629.745133523947 -43.00561427162768,629.9759000174872 -43.22548210031506,630.210184415968 -43.441605105934045,630.4479277395451 -43.65392888067374,630.6890701376079 -43.86239997315932,630.9335509038475 -44.06696590190809,631.1813084915384 -44.267575168541455,631.4322805290327 -44.46417727074937,631.6864038354622 -44.65672271500395,631.9436144366435 -44.84516302901931,632.2038475811833 -45.029450773954125,632.4670377567788 -45.20953955635413,632.7331187067113 -45.38538403983143,633.0020234465242 -45.55693995647768,633.2736842808873 -45.7241641180083,633.5480328206385 -45.88701442663489,633.8249999999999 -46.04544988566316,634.1045160939655 -46.199430609813554,634.3865107358532 -46.348917835262206,634.6709129350199 -46.49387392939957,634.957651094733 -46.63426240030409,635.2466530301942 -46.77004790592901,635.5378459867118 -46.90119626299942,635.831156658016 -47.027674455617785,636.1265112047141 -47.149450643575484,636.4238352728784 -47.26649417036842,636.7230540127646 -47.378775570914655,637.0240920976552 -47.48626657897205,637.3268737428222 -47.58894013425416,637.6313227246055 -47.68677038924251,637.9373623996024 -47.779732715693584,638.2449157239611 -47.867803710838835,638.5539052727767 -47.95096120327623,638.864253259583 -48.02918425855173,639.1758815559341 -48.10245318442951,639.4887117110726 -48.17074953584928,639.8026649716799 -48.23405611956982,640.1176623017017 -48.292356998497226,640.4336244022447 -48.345637495697,640.7504717315396 -48.39388419808889,641.0681245249659 -48.437084959823615,641.3865028151315 -48.47522890534041,641.7055264520045 -48.50830643210498,642.0251151230904 -48.53630921302685,642.34518837365 -48.55923019855567,642.6656656269545 -48.577063618455924,642.9864662045692 -48.58980498325951,643.307509346664 -48.597451085395974,643.6287142323451 -48.600000000000016,643.9499999999999 -48.60000000000003,643.9499999999999 -48.59745108539599,644.2712857676548 -48.589804983259526,644.5924906533359 -48.57706361845593,644.9135337954307 -48.55923019855568,645.2343343730454 -48.53630921302686,645.55481162635 -48.50830643210499,645.8748848769096 -48.47522890534042,646.1944735479955 -48.43708495982363,646.5134971848684 -48.393884198088905,646.8318754750339 -48.34563749569701,647.1495282684602 -48.29235699849724,647.4663755977552 -48.234056119569836,647.7823376982983 -48.17074953584929,648.0973350283201 -48.102453184429514,648.4112882889274 -48.029184258551744,648.7241184440659 -47.950961203276236,649.0357467404168 -47.86780371083885,649.3460947272231 -47.7797327156936,649.6550842760389 -47.68677038924252,649.9626376003974 -47.58894013425416,650.2686772753943 -47.48626657897206,650.5731262571777 -47.37877557091467,650.8759079023448 -47.26649417036843,651.1769459872354 -47.14945064357549,651.4761647271216 -47.0276744556178,651.7734887952859 -46.901196262999434,652.0688433419839 -46.770047905929026,652.3621540132882 -46.6342624003041,652.6533469698056 -46.49387392939958,652.942348905267 -46.34891783526222,653.22908706498 -46.19943060981356,653.5134892641468 -46.045449885663174,653.7954839060345 -45.8870144266349,654.0749999999999 -45.72416411800831,654.3519671793615 -45.556939956477684,654.6263157191127 -45.38538403983144,654.8979765534758 -45.209539556354144,655.1668812932887 -45.02945077395414,655.4329622432211 -44.84516302901932,655.6961524188167 -44.65672271500396,655.9563855633564 -44.464177270749374,656.2135961645378 -44.26757516854147,656.4677194709673 -44.0669659019081,656.7186915084616 -43.86239997315933,656.9664490961525 -43.65392888067375,657.210929862392 -43.44160510593406,657.4520722604549 -43.22548210031508,657.6898155840319 -43.00561427162769,657.9240999825128 -42.78205697042199,658.1548664760529 -42.55486647605303,658.382056970422 -42.3240999825128,658.6056142716277 -42.089815584031946,658.8254821003151 -41.85207226045493,659.041605105934 -41.61092986239205,659.2539288806737 -41.36644909615245,659.4623999731592 -41.1186915084616,659.666965901908 -40.86771947096729,659.8675751685414 -40.61359616453777,660.0641772707494 -40.3563855633565,660.2567227150039 -40.09615241881679,660.4451630290192 -39.83296224322114,660.6294507739541 -39.56688129328876,660.8095395563541 -39.29797655347587,660.9853840398314 -39.0263157191127,661.1569399564776 -38.7519671793615,661.3241641180083 -38.475000000000016,661.4870144266348 -38.19548390603452,661.6454498856631 -37.913489264146854,661.7994306098135 -37.62908706498009,661.9489178352623 -37.342348905266945,662.0938739293996 -37.05334696980575,662.234262400304 -36.762154013288225,662.3700479059289 -36.46884334198396,662.5011962629993 -36.17348879528588,662.6276744556178 -35.87616472712167,662.7494506435754 -35.576945987235426,662.8664941703684 -35.27590790234481,662.9787755709146 -34.97312625717782,663.0862665789721 -34.66867727539439,663.1889401342542 -34.3626376003976,663.2867703892425 -34.05508427603898,663.3797327156935 -33.746094727223245,663.4678037108388 -33.43574674041688,663.5509612032762 -33.12411844406592,663.6291842585516 -32.81128828892748,663.7024531844294 -32.49733502832013,663.7707495358493 -32.18233769829834,663.8340561195698 -31.86637559775536,663.8923569984971 -31.54952826846037,663.9456374956969 -31.23187547503405,663.993884198089 -30.91349718486844,664.0370849598236 -30.5944735479955,664.0752289053404 -30.274884876909717,664.108306432105 -29.954811626349997,664.1363092130268 -29.634334373045455,664.1592301985556 -29.313533795430814,664.1770636184559 -28.992490653335896,664.1898049832595 -28.67128576765488,664.197451085396 -28.350000000000026,664.1999999999999 28.349999999999977,664.1999999999999 " style="stroke:black;fill:none;stroke-width:2;stroke-linecap:round;stroke-linejoin:round;" /><polygon points="24.299999999999972,720.9 24.557028614123862,720.8979608683168 24.813992522668674,720.8918439866076 25.070827036344603,720.8816508947647 25.327467498436317,720.8673841588444 25.583849301079944,720.8490473704214 25.839907901527734,720.8266451456839 26.095578838396353,720.8001831242723 26.350797747894713,720.7696679678589 26.60550038002719,720.735107358471 26.85962261476824,720.6965099965576 27.113100478204245,720.6538855987977 27.365870158638618,720.6072448956559 27.617868022656065,720.5565996286794 27.869030631141932,720.5019625475436 28.119294755252692,720.4433474068413 28.36859739233346,720.380768962621 28.616875781778543,720.314242968671 28.864067420831134,720.2437861725548 29.110110080318027,720.169416311394 29.354941820315467,720.0911521074033 29.598501005742207,720.0090132631776 29.84072632187581,719.9230204567316 30.0815567897883,719.8331953362947 30.320931781697283,719.7395605148603 30.55879103622866,719.6421395644942 30.795074673587116,719.5409570103994 31.029723210630532,719.4360383247431 31.262677575844556,719.3274099202432 31.493879124213514,719.2150991435195 31.723269651984022,719.0991342682097 31.950791411317432,718.9795444878508 32.17638712482756,718.8563599085304 32.39999999999998,718.7296115413079 32.62157374348916,718.5993312944066 32.841052575290114,718.4655519651822 33.05838124278066,718.3283072318651 33.27350503463096,718.1876316450832 33.48636979457686,718.0435606191633 33.69692193505339,717.8961304232154 33.90510845068515,717.745378172003 34.11087693163017,717.5913418165994 34.31417557677378,717.4340601348332 34.514953206769235,717.2735727215264 34.713159276921914,717.1099199785274 34.90874388991359,716.943143104539 35.101657808363896,716.7732840847472 35.29185246722552,716.600385680252 35.479279986010184,716.4244914173021 35.66389318084238,716.2456455763376 35.84564557633755,716.0638931808423 36.024491417302116,715.8792799860101 36.20038568025201,715.6918524672254 36.3732840847472,715.5016578083639 36.543143104538956,715.3087438899136 36.70991997852742,715.1131592769218 36.87357272152643,714.9149532067693 37.03406013483313,714.7141755767738 37.191341816599454,714.5108769316302 37.34537817200312,714.3051084506851 37.49613042321541,714.0969219350534 37.64356061916327,713.8863697945769 37.78763164508327,713.6735050346309 37.92830723186511,713.4583812427807 38.0655519651821,713.24105257529 38.199331294406605,713.0215737434892 38.32961154130788,712.8 38.45635990853049,712.5763871248275 38.579544487850804,712.3507914113175 38.69913426820973,712.1232696519841 38.81509914351962,711.8938791242135 38.927409920243235,711.6626775758446 39.036038324743174,711.4297232106305 39.140957010399504,711.1950746735871 39.242139564494195,710.9587910362286 39.33956051486035,710.7209317816972 39.4331953362947,710.4815567897883 39.523020456731686,710.2407263218759 39.6090132631776,709.9985010057421 39.69115210740329,709.7549418203155 39.769416311393975,709.5101100803181 39.84378617255483,709.2640674208311 39.91424296867104,709.0168757817785 39.98076896262094,708.7685973923334 40.04334740684135,708.5192947552528 40.101962547543565,708.269030631142 40.15659962867939,708.017868022656 40.207244895655826,707.7658701586387 40.253885598797744,707.5131004782043 40.29650999655757,707.2596226147682 40.33510735847108,707.0055003800272 40.36966796785885,706.7507977478947 40.400183124272296,706.4955788383963 40.42664514568394,706.2399079015278 40.44904737042144,705.98384930108 40.4673841588445,705.7274674984363 40.4816508947647,705.4708270363445 40.49184398660757,705.2139925226687 40.497960868316746,704.9570286141238 40.49999999999997,704.6999999999999 40.49999999999997,704.6999999999999 40.497960868316746,704.4429713858761 40.49184398660757,704.1860074773313 40.4816508947647,703.9291729636553 40.4673841588445,703.6725325015636 40.44904737042144,703.41615069892 40.42664514568394,703.1600920984722 40.400183124272296,702.9044211616036 40.36966796785885,702.6492022521052 40.33510735847108,702.3944996199727 40.29650999655757,702.1403773852317 40.253885598797744,701.8868995217956 40.207244895655826,701.6341298413613 40.15659962867939,701.3821319773439 40.101962547543565,701.130969368858 40.04334740684135,700.8807052447472 39.98076896262094,700.6314026076665 39.91424296867103,700.3831242182214 39.84378617255483,700.1359325791689 39.769416311393975,699.8898899196819 39.69115210740329,699.6450581796845 39.6090132631776,699.4014989942578 39.52302045673169,699.1592736781241 39.4331953362947,698.9184432102116 39.33956051486035,698.6790682183026 39.24213956449419,698.4412089637714 39.140957010399504,698.2049253264128 39.03603832474317,697.9702767893694 38.927409920243235,697.7373224241554 38.81509914351962,697.5061208757865 38.69913426820973,697.2767303480159 38.579544487850804,697.0492085886825 38.45635990853049,696.8236128751724 38.32961154130788,696.6 38.199331294406605,696.3784262565107 38.0655519651821,696.1589474247099 37.92830723186511,695.9416187572193 37.787631645083266,695.726494965369 37.64356061916327,695.513630205423 37.49613042321541,695.3030780649466 37.34537817200312,695.0948915493148 37.191341816599454,694.8891230683698 37.03406013483313,694.6858244232261 36.87357272152643,694.4850467932307 36.70991997852742,694.2868407230781 36.543143104538956,694.0912561100864 36.3732840847472,693.8983421916361 36.20038568025201,693.7081475327744 36.024491417302116,693.5207200139897 35.84564557633755,693.3361068191576 35.66389318084238,693.1543544236624 35.479279986010184,692.9755085826978 35.29185246722552,692.7996143197479 35.101657808363896,692.6267159152528 34.90874388991359,692.4568568954609 34.713159276921914,692.2900800214725 34.514953206769235,692.1264272784736 34.31417557677378,691.9659398651668 34.11087693163017,691.8086581834006 33.90510845068515,691.6546218279968 33.69692193505338,691.5038695767846 33.48636979457686,691.3564393808367 33.27350503463096,691.2123683549167 33.05838124278066,691.0716927681348 32.841052575290114,690.9344480348178 32.62157374348916,690.8006687055934 32.39999999999997,690.6703884586921 32.17638712482756,690.5436400914695 31.950791411317432,690.4204555121491 31.723269651984022,690.3008657317902 31.49387912421351,690.1849008564803 31.262677575844553,690.0725900797567 31.029723210630532,689.9639616752568 30.795074673587116,689.8590429896005 30.558791036228655,689.7578604355058 30.320931781697283,689.6604394851396 30.0815567897883,689.5668046637053 29.84072632187581,689.4769795432683 29.598501005742204,689.3909867368224 29.354941820315467,689.3088478925966 29.110110080318027,689.230583688606 28.86406742083113,689.1562138274452 28.616875781778543,689.085757031329 28.36859739233346,689.019231037379 28.119294755252692,688.9566525931587 27.86903063114193,688.8980374524564 27.61786802265606,688.8434003713205 27.365870158638618,688.7927551043441 27.113100478204245,688.7461144012022 26.859622614768238,688.7034900034424 26.60550038002719,688.6648926415288 26.350797747894713,688.630332032141 26.095578838396353,688.5998168757276 25.83990790152773,688.5733548543161 25.583849301079944,688.5509526295784 25.327467498436317,688.5326158411555 25.0708270363446,688.5183491052353 24.81399252266867,688.5081560133924 24.557028614123862,688.5020391316832 24.299999999999972,688.5 -24.30000000000002,688.5 -24.5570286141239,688.5020391316832 -24.813992522668716,688.5081560133924 -25.070827036344642,688.5183491052353 -25.327467498436363,688.5326158411555 -25.58384930107999,688.5509526295784 -25.839907901527777,688.5733548543161 -26.095578838396396,688.5998168757276 -26.350797747894756,688.630332032141 -26.605500380027234,688.6648926415288 -26.859622614768284,688.7034900034424 -27.113100478204288,688.7461144012022 -27.36587015863866,688.7927551043441 -27.617868022656108,688.8434003713205 -27.869030631141975,688.8980374524564 -28.11929475525274,688.9566525931587 -28.3685973923335,689.019231037379 -28.61687578177858,689.085757031329 -28.86406742083118,689.1562138274452 -29.11011008031807,689.230583688606 -29.354941820315506,689.3088478925966 -29.598501005742246,689.3909867368224 -29.84072632187585,689.4769795432683 -30.08155678978834,689.5668046637053 -30.320931781697322,689.6604394851396 -30.5587910362287,689.7578604355058 -30.79507467358716,689.8590429896005 -31.029723210630575,689.9639616752568 -31.2626775758446,690.0725900797567 -31.49387912421356,690.1849008564803 -31.723269651984065,690.3008657317902 -31.950791411317475,690.4204555121491 -32.176387124827606,690.5436400914693 -32.40000000000002,690.6703884586921 -32.62157374348919,690.8006687055934 -32.841052575290156,690.9344480348178 -33.058381242780705,691.0716927681348 -33.273505034631,691.2123683549167 -33.4863697945769,691.3564393808367 -33.696921935053425,691.5038695767846 -33.90510845068519,691.6546218279968 -34.11087693163021,691.8086581834006 -34.31417557677382,691.9659398651668 -34.51495320676928,692.1264272784736 -34.71315927692196,692.2900800214725 -34.90874388991363,692.4568568954609 -35.10165780836394,692.6267159152528 -35.29185246722556,692.7996143197479 -35.479279986010226,692.9755085826978 -35.66389318084242,693.1543544236624 -35.845645576337596,693.3361068191576 -36.02449141730216,693.5207200139897 -36.200385680252054,693.7081475327744 -36.37328408474725,693.8983421916361 -36.54314310453899,694.0912561100864 -36.70991997852745,694.2868407230781 -36.87357272152648,694.4850467932307 -37.034060134833176,694.6858244232261 -37.1913418165995,694.8891230683698 -37.345378172003166,695.0948915493148 -37.496130423215455,695.3030780649466 -37.64356061916331,695.513630205423 -37.78763164508331,695.726494965369 -37.928307231865155,695.9416187572193 -38.065551965182145,696.1589474247099 -38.19933129440665,696.3784262565107 -38.32961154130792,696.6 -38.45635990853053,696.8236128751724 -38.579544487850846,697.0492085886825 -38.699134268209775,697.2767303480159 -38.81509914351966,697.5061208757865 -38.92740992024328,697.7373224241554 -39.03603832474322,697.9702767893694 -39.14095701039954,698.2049253264128 -39.24213956449423,698.4412089637714 -39.339560514860395,698.6790682183026 -39.433195336294744,698.9184432102116 -39.52302045673173,699.1592736781241 -39.609013263177644,699.4014989942578 -39.69115210740333,699.6450581796845 -39.76941631139402,699.8898899196819 -39.84378617255487,700.1359325791689 -39.914242968671076,700.3831242182214 -39.980768962620985,700.6314026076665 -40.04334740684139,700.8807052447472 -40.10196254754361,701.130969368858 -40.15659962867943,701.3821319773439 -40.20724489565587,701.6341298413613 -40.25388559879779,701.8868995217956 -40.29650999655761,702.1403773852317 -40.33510735847113,702.3944996199727 -40.369667967858895,702.6492022521052 -40.40018312427234,702.9044211616036 -40.426645145683985,703.1600920984722 -40.44904737042148,703.41615069892 -40.467384158844546,703.6725325015636 -40.48165089476474,703.9291729636553 -40.49184398660761,704.1860074773313 -40.49796086831679,704.4429713858761 -40.500000000000014,704.6999999999999 -40.50000000000003,704.6999999999999 -40.497960868316795,704.9570286141238 -40.49184398660763,705.2139925226687 -40.48165089476475,705.4708270363445 -40.46738415884455,705.7274674984363 -40.44904737042149,705.98384930108 -40.42664514568399,706.2399079015278 -40.40018312427234,706.4955788383963 -40.36966796785891,706.7507977478947 -40.33510735847114,707.0055003800272 -40.29650999655762,707.2596226147682 -40.2538855987978,707.5131004782041 -40.207244895655876,707.7658701586387 -40.15659962867944,708.017868022656 -40.101962547543614,708.269030631142 -40.043347406841406,708.5192947552528 -39.98076896262099,708.7685973923334 -39.91424296867108,709.0168757817785 -39.843786172554886,709.2640674208311 -39.769416311394025,709.5101100803181 -39.69115210740334,709.7549418203155 -39.60901326317765,709.9985010057421 -39.523020456731736,710.2407263218759 -39.43319533629475,710.4815567897883 -39.3395605148604,710.7209317816972 -39.24213956449424,710.9587910362286 -39.14095701039955,711.1950746735871 -39.03603832474322,711.4297232106305 -38.927409920243285,711.6626775758446 -38.81509914351967,711.8938791242135 -38.69913426820978,712.1232696519841 -38.57954448785085,712.3507914113175 -38.456359908530544,712.5763871248275 -38.329611541307926,712.8 -38.199331294406655,713.0215737434892 -38.06555196518215,713.24105257529 -37.92830723186516,713.4583812427807 -37.78763164508332,713.6735050346309 -37.64356061916332,713.8863697945769 -37.49613042321546,714.0969219350534 -37.34537817200317,714.3051084506851 -37.19134181659951,714.5108769316302 -37.03406013483318,714.7141755767738 -36.873572721526486,714.9149532067693 -36.709919978527466,715.1131592769218 -36.54314310453901,715.3087438899136 -36.373284084747254,715.5016578083639 -36.20038568025206,715.6918524672254 -36.024491417302166,715.8792799860101 -35.8456455763376,716.0638931808423 -35.66389318084243,716.2456455763376 -35.47927998601024,716.4244914173021 -35.29185246722557,716.600385680252 -35.101657808363946,716.7732840847472 -34.908743889913644,716.9431431045389 -34.713159276921964,717.1099199785274 -34.514953206769285,717.2735727215264 -34.314175576773835,717.4340601348332 -34.110876931630216,717.5913418165994 -33.905108450685205,717.745378172003 -33.69692193505343,717.8961304232154 -33.486369794576916,718.0435606191633 -33.273505034631015,718.1876316450832 -33.058381242780705,718.3283072318651 -32.84105257529016,718.4655519651822 -32.62157374348921,718.5993312944066 -32.40000000000002,718.7296115413079 -32.17638712482762,718.8563599085304 -31.950791411317493,718.9795444878508 -31.723269651984076,719.0991342682097 -31.493879124213564,719.2150991435195 -31.262677575844606,719.3274099202432 -31.029723210630582,719.4360383247431 -30.795074673587173,719.5409570103994 -30.55879103622871,719.6421395644942 -30.32093178169734,719.7395605148603 -30.08155678978835,719.8331953362947 -29.840726321875856,719.9230204567316 -29.598501005742257,720.0090132631776 -29.354941820315513,720.0911521074033 -29.110110080318083,720.169416311394 -28.864067420831187,720.2437861725548 -28.6168757817786,720.314242968671 -28.36859739233351,720.380768962621 -28.119294755252742,720.4433474068414 -27.869030631141985,720.5019625475436 -27.61786802265611,720.5565996286794 -27.365870158638675,720.6072448956559 -27.113100478204295,720.6538855987977 -26.859622614768302,720.6965099965576 -26.605500380027244,720.735107358471 -26.35079774789476,720.7696679678589 -26.095578838396406,720.8001831242723 -25.83990790152778,720.8266451456839 -25.583849301080004,720.8490473704214 -25.32746749843637,720.8673841588444 -25.070827036344657,720.8816508947647 -24.813992522668723,720.8918439866076 -24.557028614123904,720.8979608683168 -24.30000000000003,720.9 24.299999999999972,720.9 " style="stroke:black;fill:none;stroke-width:2;stroke-linecap:round;stroke-linejoin:round;" /><path d="M 0.0,32.4 L 7.43972930482017e-16,44.55 L 9.91963907309356e-16,48.599999999999994" style="stroke:black;fill:none;stroke-width:2;stroke-linecap:round;stroke-linejoin:round;" /><path d="M 1.3654811810492986e-15 54.699999999999996 L -2.429999999999999 48.6 L 2.4300000000000006 48.6 Z" style="stroke:black;fill:black;stroke-linecap:butt;stroke-linejoin:miter;" /><path d="M -56.699999999999996,89.1 L -56.699999999999996,56.699999999999996 L 56.699999999999996,56.699999999999996 L 56.699999999999996,121.5 L -56.699999999999996,121.5 L -56.699999999999996,89.1" style="stroke:black;fill:none;stroke-width:2;stroke-linecap:round;stroke-linejoin:round;" /><path d="M 1.487945860964034e-15,121.5 L -7.439729304820172e-16,133.65 L -1.673312375689993e-15,137.7" style="stroke:black;fill:none;stroke-width:2;stroke-linecap:round;stroke-linejoin:round;" /><path d="M -2.654267191992741e-15 143.79999999999998 L -2.4300000000000015 137.69999999999996 L 2.429999999999998 137.69999999999996 Z" style="stroke:black;fill:black;stroke-linecap:butt;stroke-linejoin:miter;" /><path d="M -2.9758917219280684e-15,186.29999999999998 L -2.231918791446051e-15,198.45 L -1.9839278146187126e-15,202.5" style="stroke:black;fill:none;stroke-width:2;stroke-linecap:round;stroke-linejoin:round;" /><path d="M -1.6104105408787697e-15 208.6 L -2.430000000000002 202.49999999999997 L 2.4299999999999975 202.49999999999997 Z" style="stroke:black;fill:black;stroke-linecap:butt;stroke-linejoin:miter;" /><path d="M -64.8,243.0 L -64.8,210.6 L 64.8,210.6 L 64.8,275.4 L -64.8,275.4 L -64.8,243.0" style="stroke:black;fill:none;stroke-width:2;stroke-linecap:round;stroke-linejoin:round;" /><path d="M 55.080000000000005,210.6 L 55.080000000000005,275.4" style="stroke:black;fill:none;stroke-width:2;stroke-linecap:round;stroke-linejoin:round;" /><path d="M -55.08,210.6 L -55.08,275.4" style="stroke:black;fill:none;stroke-width:2;stroke-linecap:round;stroke-linejoin:round;" /><path d="M -1.4879458609640344e-15,275.4 L -3.719864652410086e-15,287.55 L -4.649204097618061e-15,291.59999999999997" style="stroke:black;fill:none;stroke-width:2;stroke-linecap:round;stroke-linejoin:round;" /><path d="M -5.630158913920809e-15 297.7 L -2.4300000000000046 291.59999999999997 L 2.429999999999995 291.59999999999997 Z" style="stroke:black;fill:black;stroke-linecap:butt;stroke-linejoin:miter;" /><path d="M -56.7,332.09999999999997 L -56.7,299.7 L 56.69999999999999,299.7 L 56.69999999999999,364.5 L -56.7,364.5 L -56.7,332.09999999999997" style="stroke:black;fill:none;stroke-width:2;stroke-linecap:round;stroke-linejoin:round;" /><path d="M -5.951783443856137e-15,364.5 L -8.183702235302189e-15,376.65 L -9.113041680510164e-15,380.7" style="stroke:black;fill:none;stroke-width:2;stroke-linecap:round;stroke-linejoin:round;" /><path d="M -1.0093996496812913e-14 386.79999999999995 L -2.430000000000009 380.69999999999993 L 2.4299999999999904 380.69999999999993 Z" style="stroke:black;fill:black;stroke-linecap:butt;stroke-linejoin:miter;" /><path d="M -56.7,421.2 L -56.7,388.79999999999995 L 56.69999999999999,388.79999999999995 L 56.69999999999999,453.59999999999997 L -56.7,453.59999999999997 L -56.7,421.2" style="stroke:black;fill:none;stroke-width:2;stroke-linecap:round;stroke-linejoin:round;" /><path d="M -1.041562102674824e-14,453.59999999999997 L -1.264753981819429e-14,465.75 L -1.3576879263402266e-14,469.79999999999995" style="stroke:black;fill:none;stroke-width:2;stroke-linecap:round;stroke-linejoin:round;" /><path d="M -1.4557834079705015e-14 475.9 L -2.4300000000000135 469.79999999999995 L 2.429999999999986 469.79999999999995 Z" style="stroke:black;fill:black;stroke-linecap:butt;stroke-linejoin:miter;" /><path d="M -1.4879458609640343e-14,575.1 L -1.9343296192532443e-14,599.4 L -2.250455442918647e-14,615.6" style="stroke:black;fill:none;stroke-width:2;stroke-linecap:round;stroke-linejoin:round;" /><path d="M -2.348550924548922e-14 621.6999999999999 L -2.4300000000000224 615.6 L 2.429999999999977 615.6 Z" style="stroke:black;fill:black;stroke-linecap:butt;stroke-linejoin:miter;" /><path d="M -2.3807133775424547e-14,664.1999999999999 L -2.306316084494253e-14,676.35 L -2.2815169868115188e-14,680.4" style="stroke:black;fill:none;stroke-width:2;stroke-linecap:round;stroke-linejoin:round;" /><path d="M -2.2441652594375247e-14 686.5 L -2.430000000000023 680.4000000000001 L 2.4299999999999766 680.4000000000001 Z" style="stroke:black;fill:black;stroke-linecap:butt;stroke-linejoin:miter;" /><text x="0.0" y="8.499999999999998" fill="black" font-size="14" font-family="sans-serif" text-anchor="middle" transform="rotate(0 0.0 14.1)"><tspan x="0.0" dy="11.200000000000001">Start</tspan></text><text x="1.487945860964034e-15" y="81.39999999999999" fill="black" font-size="14" font-family="sans-serif" text-anchor="middle" transform="rotate(0 1.487945860964034e-15 87.0)"><tspan x="1.487945860964034e-15" dy="11.200000000000001">Initialize Index</tspan></text><text x="-2.9758917219280684e-15" y="158.35" fill="black" font-size="14" font-family="sans-serif" text-anchor="middle" transform="rotate(0 -2.9758917219280684e-15 163.95)"><tspan x="-2.9758917219280684e-15" dy="11.200000000000001">add_more:</tspan></text><text x="-1.4879458609640344e-15" y="235.29999999999998" fill="black" font-size="14" font-family="sans-serif" text-anchor="middle" transform="rotate(0 -1.4879458609640344e-15 240.89999999999998)"><tspan x="-1.4879458609640344e-15" dy="11.200000000000001">Load Number</tspan></text><text x="-5.951783443856137e-15" y="324.40000000000003" fill="black" font-size="14" font-family="sans-serif" text-anchor="middle" transform="rotate(0 -5.951783443856137e-15 330.0)"><tspan x="-5.951783443856137e-15" dy="11.200000000000001">Add Number</tspan></text><text x="-1.041562102674824e-14" y="405.09999999999997" fill="black" font-size="14" font-family="sans-serif" text-anchor="middle" transform="rotate(0 -1.041562102674824e-14 419.09999999999997)"><tspan x="-1.041562102674824e-14" dy="14">Subtract 1</tspan><tspan x="-1.041562102674824e-14" dy="14">from Index</tspan></text><text x="-1.4879458609640343e-14" y="510.4" fill="black" font-size="14" font-family="sans-serif" text-anchor="middle" transform="rotate(0 -1.4879458609640343e-14 524.4)"><tspan x="-1.4879458609640343e-14" dy="14">Is Index</tspan><tspan x="-1.4879458609640343e-14" dy="14">equal to 0?</tspan></text><text x="-71.28" y="531.4875000000001" fill="black" font-size="14" font-family="sans-serif" text-anchor="end" transform="rotate(0 -71.28 531.4875000000001)"><tspan x="-71.28" dy="11.200000000000001">No</tspan></text><text x="-3.2400000000000193" y="591.7" fill="black" font-size="14" font-family="sans-serif" text-anchor="end" transform="rotate(0 -3.2400000000000193 597.3000000000001)"><tspan x="-3.2400000000000193" dy="11.200000000000001">Yes</tspan></text><text x="-2.3807133775424547e-14" y="636.25" fill="black" font-size="14" font-family="sans-serif" text-anchor="middle" transform="rotate(0 -2.3807133775424547e-14 641.85)"><tspan x="-2.3807133775424547e-14" dy="11.200000000000001">end:</tspan></text><text x="-2.2319187914460512e-14" y="697.0" fill="black" font-size="14" font-family="sans-serif" text-anchor="middle" transform="rotate(0 -2.2319187914460512e-14 702.6)"><tspan x="-2.2319187914460512e-14" dy="11.200000000000001">Stop</tspan></text></svg>