<svg xmlns="http://www.w3.org/2000/svg" xml:lang="en" height="637.6pt" width="684.4pt" viewBox="-115.40000000000003 -3.8000000000000007 684.4 637.6"><polygon points="24.299999999999994,32.39999999999999 24.557028614123883,32.39796086831677 24.813992522668695,32.39184398660759 25.070827036344625,32.381650894764725 25.327467498436338,32.36738415884452 25.583849301079965,32.34904737042146 25.839907901527756,32.32664514568396 26.095578838396374,32.30018312427231 26.350797747894735,32.26966796785888 26.605500380027213,32.235107358471105 26.859622614768263,32.19650999655759 27.11310047820427,32.153885598797764 27.36587015863864,32.107244895655846 27.617868022656083,32.05659962867941 27.869030631141953,32.001962547543584 28.119294755252717,31.943347406841372 28.36859739233348,31.88076896262097 28.616875781778564,31.814242968671053 28.86406742083116,31.743786172554852 29.11011008031805,31.669416311393995 29.35494182031549,31.591152107403314 29.598501005742225,31.509013263177625 29.84072632187583,31.423020456731713 30.081556789788323,31.333195336294725 30.320931781697304,31.239560514860372 30.55879103622868,31.142139564494215 30.795074673587138,31.040957010399524 31.029723210630557,30.936038324743194 31.262677575844574,30.82740992024326 31.493879124213535,30.715099143519637 31.723269651984044,30.599134268209756 31.950791411317457,30.479544487850823 32.17638712482759,30.35635990853051 32.4,30.2296115413079 32.62157374348918,30.099331294406625 32.841052575290135,29.96555196518213 33.058381242780676,29.828307231865132 33.273505034630986,29.687631645083293 33.48636979457688,29.543560619163287 33.6969219350534,29.396130423215435 33.90510845068517,29.245378172003146 34.110876931630195,29.091341816599478 34.3141755767738,28.934060134833153 34.51495320676926,28.77357272152646 34.713159276921935,28.60991997852744 34.908743889913616,28.44314310453898 35.10165780836392,28.27328408474722 35.29185246722554,28.100385680252035 35.47927998601021,27.924491417302136 35.6638931808424,27.745645576337576 35.84564557633758,27.5638931808424 36.02449141730214,27.379279986010214 36.20038568025203,27.191852467225537 36.37328408474722,27.00165780836392 36.54314310453898,26.808743889913615 36.70991997852744,26.613159276921934 36.87357272152646,26.414953206769262 37.034060134833155,26.2141755767738 37.19134181659948,26.010876931630197 37.345378172003144,25.805108450685175 37.49613042321543,25.596921935053405 37.64356061916329,25.386369794576883 37.787631645083295,25.173505034630985 37.92830723186513,24.958381242780682 38.06555196518213,24.741052575290137 38.199331294406626,24.52157374348918 38.3296115413079,24.299999999999994 38.456359908530516,24.07638712482759 38.579544487850825,23.850791411317456 38.699134268209754,23.623269651984046 38.81509914351964,23.393879124213537 38.927409920243264,23.16267757584458 39.036038324743195,22.929723210630556 39.140957010399525,22.69507467358714 39.24213956449422,22.458791036228682 39.33956051486037,22.220931781697303 39.43319533629472,21.98155678978832 39.523020456731714,21.740726321875837 39.60901326317762,21.498501005742227 39.69115210740331,21.254941820315487 39.769416311394,21.01011008031805 39.84378617255486,20.764067420831157 39.91424296867106,20.516875781778563 39.98076896262097,20.26859739233348 40.04334740684138,20.01929475525272 40.10196254754359,19.769030631141955 40.156599628679416,19.517868022656085 40.20724489565585,19.265870158638645 40.25388559879777,19.01310047820427 40.29650999655759,18.759622614768265 40.33510735847111,18.505500380027218 40.36966796785888,18.250797747894737 40.40018312427232,17.99557883839638 40.42664514568397,17.739907901527754 40.44904737042147,17.48384930107997 40.467384158844524,17.227467498436344 40.481650894764726,16.97082703634462 40.4918439866076,16.713992522668693 40.497960868316774,16.457028614123885 40.5,16.2 40.5,16.200000000000003 40.497960868316774,15.942971385876113 40.4918439866076,15.686007477331307 40.481650894764726,15.429172963655379 40.467384158844524,15.172532501563659 40.44904737042147,14.91615069892003 40.42664514568397,14.660092098472242 40.40018312427232,14.404421161603624 40.36966796785888,14.149202252105265 40.33510735847111,13.894499619972784 40.29650999655759,13.640377385231734 40.25388559879777,13.38689952179573 40.20724489565585,13.134129841361357 40.156599628679416,12.882131977343912 40.10196254754359,12.630969368858045 40.04334740684138,12.380705244747281 39.98076896262097,12.131402607666518 39.91424296867106,11.883124218221434 39.84378617255486,11.635932579168841 39.769416311394004,11.389889919681949 39.69115210740331,11.14505817968451 39.60901326317763,10.901498994257771 39.523020456731714,10.659273678124167 39.43319533629472,10.418443210211677 39.33956051486037,10.179068218302696 39.24213956449422,9.941208963771318 39.140957010399525,9.70492532641286 39.036038324743195,9.470276789369441 38.927409920243264,9.23732242415542 38.81509914351964,9.006120875786461 38.699134268209754,8.776730348015953 38.579544487850825,8.549208588682541 38.456359908530516,8.323612875172408 38.329611541307905,8.1 38.199331294406626,7.878426256510817 38.06555196518213,7.6589474247098615 37.92830723186513,7.441618757219321 37.787631645083295,7.226494965369014 37.643560619163296,7.013630205423116 37.49613042321544,6.80307806494659 37.34537817200315,6.594891549314825 37.19134181659948,6.389123068369801 37.03406013483316,6.185824423226196 36.87357272152646,5.985046793230737 36.70991997852744,5.786840723078064 36.54314310453898,5.591256110086383 36.373284084747226,5.398342191636075 36.20038568025204,5.20814753277446 36.02449141730214,5.020720013989787 35.84564557633758,4.836106819157595 35.6638931808424,4.654354423662422 35.47927998601021,4.475508582697863 35.291852467225546,4.2996143197479615 35.10165780836392,4.126715915252774 34.908743889913616,3.9568568954610157 34.713159276921935,3.790080021472556 34.51495320676926,3.6264272784735394 34.314175576773806,3.4659398651668423 34.110876931630195,3.30865818340052 33.90510845068518,3.15462182799685 33.69692193505341,3.003869576784561 33.48636979457688,2.85643938083671 33.273505034630986,2.7123683549167033 33.05838124278068,2.571692768134866 32.841052575290135,2.434448034817867 32.621573743489186,2.3006687055933734 32.4,2.1703884586920927 32.17638712482759,2.043640091469484 31.95079141131746,1.9204555121491704 31.723269651984047,1.8008657317902397 31.493879124213535,1.684900856480359 31.262677575844577,1.5725900797567351 31.02972321063056,1.463961675256803 30.795074673587138,1.3590429896004708 30.55879103622868,1.25786043550578 30.320931781697304,1.1604394851396245 30.081556789788323,1.0668046637052722 29.84072632187583,0.9769795432682834 29.59850100574223,0.890986736822371 29.35494182031549,0.8088478925966839 29.110110080318055,0.7305836886060032 28.86406742083116,0.6562138274451426 28.616875781778564,0.5857570313289389 28.36859739233348,0.5192310373790288 28.119294755252717,0.4566525931586234 27.869030631141953,0.3980374524564058 27.61786802265609,0.3434003713205844 27.365870158638643,0.29275510434415136 27.11310047820427,0.24611440120222827 26.859622614768263,0.20349000344241072 26.605500380027216,0.16489264152889052 26.350797747894735,0.13033203214111547 26.095578838396374,0.0998168757276832 25.839907901527756,0.07335485431602966 25.58384930107997,0.050952629578533366 25.327467498436338,0.032615841155472114 25.070827036344625,0.018349105235271 24.813992522668695,0.008156013392401662 24.557028614123883,0.0020391316832238937 24.299999999999994,-0.0 -24.299999999999994,3.597122599785507e-15 -24.55702861412388,0.0020391316832274907 -24.813992522668695,0.00815601339240346 -25.07082703634462,0.0183491052352746 -25.327467498436338,0.03261584115547571 -25.583849301079965,0.05095262957853697 -25.839907901527756,0.07335485431603325 -26.095578838396374,0.0998168757276868 -26.350797747894735,0.13033203214111908 -26.605500380027213,0.1648926415288923 -26.859622614768263,0.2034900034424143 -27.113100478204267,0.24611440120223185 -27.36587015863864,0.2927551043441549 -27.617868022656083,0.34340037132058615 -27.869030631141953,0.3980374524564094 -28.119294755252714,0.456652593158627 -28.368597392333477,0.5192310373790305 -28.616875781778564,0.5857570313289407 -28.864067420831155,0.6562138274451444 -29.110110080318048,0.730583688606005 -29.354941820315485,0.8088478925966874 -29.598501005742225,0.8909867368223727 -29.840726321875827,0.9769795432682871 -30.08155678978832,1.0668046637052722 -30.320931781697304,1.1604394851396262 -30.55879103622868,1.2578604355057836 -30.795074673587138,1.3590429896004743 -31.029723210630554,1.463961675256803 -31.262677575844574,1.572590079756737 -31.49387912421353,1.684900856480359 -31.723269651984047,1.8008657317902432 -31.950791411317457,1.920455512149174 -32.17638712482759,2.0436400914694857 -32.39999999999999,2.1703884586920963 -32.62157374348918,2.3006687055933734 -32.84105257529013,2.434448034817867 -33.058381242780676,2.5716927681348642 -33.273505034630986,2.712368354916707 -33.48636979457687,2.8564393808367083 -33.6969219350534,3.0038695767845627 -33.90510845068517,3.1546218279968516 -34.110876931630195,3.30865818340052 -34.3141755767738,3.465939865166844 -34.514953206769256,3.6264272784735394 -34.71315927692193,3.790080021472554 -34.90874388991361,3.956856895461014 -35.10165780836392,4.126715915252776 -35.29185246722554,4.2996143197479615 -35.47927998601021,4.475508582697865 -35.6638931808424,4.654354423662422 -35.845645576337574,4.836106819157595 -36.02449141730213,5.020720013989785 -36.20038568025203,5.208147532774457 -36.37328408474722,5.398342191636077 -36.54314310453898,5.591256110086383 -36.70991997852744,5.786840723078064 -36.87357272152646,5.985046793230735 -37.034060134833155,6.185824423226194 -37.191341816599476,6.389123068369799 -37.345378172003144,6.594891549314822 -37.49613042321544,6.803078064946591 -37.64356061916329,7.01363020542311 -37.787631645083295,7.226494965369016 -37.92830723186513,7.441618757219319 -38.06555196518213,7.65894742470986 -38.199331294406626,7.878426256510815 -38.3296115413079,8.099999999999998 -38.456359908530516,8.323612875172412 -38.579544487850825,8.549208588682536 -38.699134268209754,8.776730348015953 -38.81509914351964,9.00612087578646 -38.92740992024326,9.23732242415542 -39.03603832474319,9.470276789369438 -39.140957010399525,9.704925326412857 -39.24213956449422,9.94120896377132 -39.33956051486037,10.17906821830269 -39.43319533629472,10.418443210211677 -39.52302045673171,10.65927367812416 -39.60901326317762,10.90149899425777 -39.69115210740331,11.145058179684508 -39.769416311394,11.389889919681945 -39.84378617255486,11.635932579168841 -39.914242968671054,11.883124218221429 -39.98076896262097,12.131402607666518 -40.04334740684138,12.380705244747272 -40.10196254754359,12.630969368858043 -40.156599628679416,12.882131977343908 -40.20724489565585,13.134129841361352 -40.25388559879777,13.386899521795725 -40.29650999655759,13.640377385231728 -40.33510735847111,13.894499619972784 -40.36966796785888,14.149202252105257 -40.40018312427232,14.404421161603622 -40.42664514568397,14.660092098472239 -40.44904737042146,14.916150698920026 -40.467384158844524,15.172532501563653 -40.481650894764726,15.42917296365537 -40.4918439866076,15.686007477331307 -40.497960868316774,15.942971385876106 -40.5,16.2 -40.5,16.200000000000003 -40.497960868316774,16.45702861412389 -40.4918439866076,16.713992522668693 -40.481650894764726,16.970827036344623 -40.46738415884453,17.22746749843635 -40.44904737042147,17.483849301079978 -40.42664514568397,17.73990790152776 -40.400183124272324,17.99557883839638 -40.36966796785888,18.250797747894737 -40.33510735847111,18.50550038002722 -40.296509996557596,18.75962261476827 -40.25388559879777,19.01310047820427 -40.207244895655855,19.26587015863865 -40.156599628679416,19.517868022656092 -40.10196254754359,19.769030631141963 -40.04334740684138,20.019294755252723 -39.98076896262097,20.268597392333483 -39.91424296867106,20.516875781778566 -39.84378617255486,20.76406742083116 -39.769416311394004,21.010110080318057 -39.69115210740331,21.254941820315494 -39.60901326317763,21.498501005742234 -39.523020456731714,21.740726321875837 -39.43319533629473,21.981556789788325 -39.33956051486038,22.220931781697306 -39.24213956449422,22.458791036228686 -39.140957010399525,22.695074673587143 -39.036038324743195,22.929723210630566 -38.927409920243264,23.162677575844583 -38.81509914351964,23.393879124213544 -38.69913426820976,23.623269651984046 -38.57954448785083,23.85079141131746 -38.456359908530516,24.07638712482759 -38.329611541307905,24.300000000000008 -38.19933129440663,24.52157374348918 -38.06555196518213,24.741052575290144 -37.92830723186514,24.958381242780682 -37.787631645083295,25.17350503463099 -37.643560619163296,25.386369794576886 -37.49613042321544,25.596921935053413 -37.34537817200315,25.805108450685175 -37.19134181659948,26.010876931630197 -37.03406013483316,26.214175576773805 -36.87357272152646,26.414953206769265 -36.70991997852744,26.613159276921937 -36.54314310453898,26.808743889913618 -36.373284084747226,27.001657808363927 -36.20038568025204,27.19185246722554 -36.024491417302144,27.379279986010214 -35.84564557633758,27.563893180842406 -35.6638931808424,27.74564557633758 -35.47927998601021,27.92449141730214 -35.291852467225546,28.100385680252042 -35.101657808363925,28.273284084747225 -34.908743889913616,28.44314310453898 -34.71315927692194,28.60991997852744 -34.51495320676926,28.773572721526463 -34.314175576773806,28.934060134833153 -34.110876931630195,29.09134181659948 -33.90510845068518,29.245378172003154 -33.69692193505341,29.396130423215443 -33.48636979457689,29.54356061916329 -33.273505034630986,29.687631645083293 -33.05838124278069,29.828307231865132 -32.84105257529014,29.96555196518213 -32.62157374348918,30.099331294406632 -32.4,30.229611541307907 -32.17638712482759,30.356359908530518 -31.95079141131746,30.479544487850827 -31.72326965198405,30.59913426820976 -31.493879124213535,30.715099143519645 -31.262677575844585,30.827409920243262 -31.02972321063056,30.936038324743198 -30.795074673587145,31.040957010399524 -30.558791036228683,31.14213956449422 -30.320931781697308,31.239560514860376 -30.081556789788326,31.33319533629473 -29.840726321875835,31.423020456731717 -29.59850100574223,31.50901326317763 -29.354941820315492,31.591152107403314 -29.110110080318055,31.669416311393995 -28.86406742083116,31.74378617255486 -28.616875781778568,31.81424296867106 -28.368597392333484,31.880768962620973 -28.11929475525272,31.943347406841376 -27.869030631141957,32.00196254754359 -27.61786802265609,32.056599628679415 -27.365870158638646,32.107244895655846 -27.113100478204274,32.15388559879777 -26.859622614768266,32.19650999655759 -26.60550038002722,32.23510735847111 -26.35079774789474,32.26966796785889 -26.09557883839638,32.300183124272316 -25.83990790152776,32.32664514568397 -25.583849301079972,32.34904737042147 -25.327467498436345,32.36738415884452 -25.070827036344625,32.38165089476473 -24.8139925226687,32.3918439866076 -24.557028614123887,32.39796086831678 -24.300000000000004,32.4 24.299999999999994,32.39999999999999 " style="stroke:black;fill:none;stroke-width:2;stroke-linecap:round;stroke-linejoin:round;" /><polygon points="-64.8,194.39999999999998 -2.9758917219280684e-15,145.79999999999998 64.8,194.39999999999998 -2.9758917219280684e-15,243.0 " style="stroke:black;fill:none;stroke-width:2;stroke-linecap:round;stroke-linejoin:round;" /><polygon points="129.6,194.39999999999998 194.39999999999998,162.0 259.2,194.39999999999998 194.39999999999998,226.79999999999998 " style="stroke:black;fill:none;stroke-width:2;stroke-linecap:round;stroke-linejoin:round;" /><polygon points="-64.80000000000003,453.59999999999997 -3.273480894120875e-14,405.0 64.79999999999995,453.59999999999997 -3.273480894120875e-14,502.2 " style="stroke:black;fill:none;stroke-width:2;stroke-linecap:round;stroke-linejoin:round;" /><polygon points="129.59999999999997,453.59999999999997 194.39999999999995,421.2 259.19999999999993,453.59999999999997 194.39999999999995,486.0 " style="stroke:black;fill:none;stroke-width:2;stroke-linecap:round;stroke-linejoin:round;" /><polygon points="546.75,620.4599999999999 547.0712857676548,620.457451085396 547.3924906533359,620.4498049832594 547.7135337954307,620.4370636184559 548.0343343730455,620.4192301985556 548.3548116263499,620.3963092130267 548.6748848769096,620.3683064321049 548.9944735479955,620.3352289053403 549.3134971848684,620.2970849598236 549.631875475034,620.2538841980888 549.9495282684603,620.2056374956969 550.2663755977553,620.1523569984971 550.5823376982983,620.0940561195698 550.8973350283201,620.0307495358493 551.2112882889273,619.9624531844294 551.5241184440658,619.8891842585516 551.8357467404169,619.8109612032762 552.1460947272232,619.7278037108388 552.4550842760389,619.6397327156935 552.7626376003975,619.5467703892424 553.0686772753944,619.4489401342541 553.3731262571778,619.346266578972 553.6759079023448,619.2387755709146 553.9769459872354,619.1264941703683 554.2761647271216,619.0094506435754 554.5734887952858,618.8876744556177 554.868843341984,618.7611962629993 555.1621540132882,618.6300479059289 555.4533469698057,618.4942624003039 555.7423489052669,618.3538739293995 556.02908706498,618.2089178352621 556.3134892641467,618.0594306098135 556.5954839060345,617.9054498856631 556.875,617.7470144266348 557.1519671793615,617.5841641180083 557.4263157191127,617.4169399564776 557.6979765534758,617.2453840398314 557.9668812932887,617.069539556354 558.2329622432211,616.8894507739541 558.4961524188167,616.7051630290192 558.7563855633564,616.5167227150039 559.0135961645377,616.3241772707493 559.2677194709672,616.1275751685414 559.5186915084615,615.926965901908 559.7664490961524,615.7223999731592 560.010929862392,615.5139288806737 560.2520722604548,615.301605105934 560.4898155840319,615.0854821003151 560.7240999825127,614.8656142716277 560.954866476053,614.642056970422 561.182056970422,614.4148664760529 561.4056142716277,614.1840999825127 561.625482100315,613.9498155840319 561.841605105934,613.7120722604549 562.0539288806737,613.470929862392 562.2623999731593,613.2264490961524 562.4669659019081,612.9786915084615 562.6675751685415,612.7277194709673 562.8641772707493,612.4735961645376 563.056722715004,612.2163855633563 563.2451630290193,611.9561524188167 563.4294507739542,611.692962243221 563.6095395563541,611.4268812932886 563.7853840398315,611.1579765534758 563.9569399564776,610.8863157191126 564.1241641180083,610.6119671793614 564.2870144266349,610.3349999999999 564.4454498856632,610.0554839060344 564.5994306098136,609.7734892641467 564.7489178352622,609.4890870649799 564.8938739293995,609.2023489052668 565.034262400304,608.9133469698056 565.170047905929,608.6221540132882 565.3011962629994,608.3288433419839 565.4276744556178,608.0334887952857 565.5494506435755,607.7361647271216 565.6664941703684,607.4369459872354 565.7787755709147,607.1359079023447 565.886266578972,606.8331262571777 565.9889401342541,606.5286772753943 566.0867703892425,606.2226376003974 566.1797327156936,605.9150842760388 566.2678037108388,605.6060947272231 566.3509612032763,605.2957467404167 566.4291842585517,604.9841184440658 566.5024531844294,604.6712882889274 566.5707495358492,604.3573350283201 566.6340561195698,604.0423376982983 566.6923569984972,603.7263755977552 566.745637495697,603.4095282684602 566.7938841980889,603.0918754750339 566.8370849598235,602.7734971848683 566.8752289053404,602.4544735479955 566.908306432105,602.1348848769096 566.9363092130268,601.81481162635 566.9592301985557,601.4943343730454 566.977063618456,601.1735337954307 566.9898049832594,600.8524906533358 566.9974510853959,600.5312857676548 567.0,600.2099999999999 567.0,600.2099999999999 566.9974510853959,599.8887142323451 566.9898049832594,599.567509346664 566.977063618456,599.2464662045692 566.9592301985557,598.9256656269545 566.9363092130268,598.6051883736499 566.908306432105,598.2851151230902 566.8752289053404,597.9655264520044 566.8370849598235,597.6465028151315 566.7938841980889,597.3281245249659 566.745637495697,597.0104717315396 566.6923569984972,596.6936244022446 566.6340561195698,596.3776623017015 566.5707495358492,596.0626649716799 566.5024531844294,595.7487117110725 566.4291842585517,595.4358815559341 566.3509612032763,595.124253259583 566.2678037108388,594.8139052727768 566.1797327156936,594.5049157239611 566.0867703892425,594.1973623996024 565.9889401342541,593.8913227246055 565.886266578972,593.5868737428221 565.7787755709147,593.2840920976552 565.6664941703684,592.9830540127645 565.5494506435755,592.6838352728782 565.4276744556178,592.3865112047141 565.3011962629994,592.091156658016 565.170047905929,591.7978459867116 565.034262400304,591.5066530301942 564.8938739293995,591.217651094733 564.7489178352622,590.9309129350199 564.5994306098136,590.6465107358531 564.4454498856632,590.3645160939654 564.2870144266349,590.0849999999999 564.1241641180083,589.8080328206385 563.9569399564776,589.5336842808872 563.7853840398315,589.2620234465242 563.6095395563541,588.9931187067112 563.4294507739542,588.7270377567788 563.2451630290193,588.4638475811831 563.056722715004,588.2036144366435 562.8641772707493,587.9464038354622 562.6675751685415,587.6922805290326 562.4669659019081,587.4413084915384 562.2623999731593,587.1935509038475 562.0539288806737,586.9490701376079 561.841605105934,586.7079277395451 561.625482100315,586.470184415968 561.4056142716277,586.2359000174872 561.182056970422,586.0051335239469 560.954866476053,585.777943029578 560.7240999825127,585.5543857283722 560.4898155840319,585.3345178996848 560.2520722604548,585.1183948940659 560.010929862392,584.9060711193263 559.7664490961524,584.6976000268406 559.5186915084615,584.4930340980918 559.2677194709672,584.2924248314584 559.0135961645377,584.0958227292506 558.7563855633564,583.903277284996 558.4961524188167,583.7148369709806 558.2329622432211,583.5305492260458 557.9668812932887,583.3504604436458 557.6979765534758,583.1746159601685 557.4263157191127,583.0030600435223 557.1519671793615,582.8358358819916 556.875,582.672985573365 556.5954839060345,582.5145501143368 556.3134892641467,582.3605693901864 556.02908706498,582.2110821647377 555.7423489052669,582.0661260706004 555.4533469698057,581.9257375996959 555.1621540132882,581.7899520940709 554.868843341984,581.6588037370005 554.5734887952858,581.5323255443822 554.2761647271216,581.4105493564244 553.9769459872354,581.2935058296315 553.6759079023448,581.1812244290852 553.3731262571778,581.0737334210279 553.0686772753944,580.9710598657457 552.7626376003975,580.8732296107574 552.4550842760389,580.7802672843063 552.1460947272232,580.6921962891611 551.8357467404169,580.6090387967237 551.5241184440658,580.5308157414482 551.2112882889273,580.4575468155705 550.8973350283201,580.3892504641507 550.5823376982983,580.32594388043 550.2663755977553,580.2676430015027 549.9495282684603,580.2143625043029 549.631875475034,580.166115801911 549.3134971848684,580.1229150401763 548.9944735479955,580.0847710946596 548.6748848769096,580.051693567895 548.3548116263499,580.0236907869731 548.0343343730455,580.0007698014442 547.7135337954307,579.9829363815439 547.3924906533359,579.9701950167405 547.0712857676548,579.9625489146039 546.75,579.9599999999999 490.0499999999999,579.9599999999999 489.72871423234506,579.9625489146039 489.4075093466641,579.9701950167405 489.08646620456915,579.9829363815439 488.7656656269545,580.0007698014442 488.44518837364996,580.0236907869731 488.1251151230902,580.051693567895 487.8055264520045,580.0847710946596 487.4865028151315,580.1229150401763 487.1681245249659,580.166115801911 486.8504717315396,580.2143625043029 486.5336244022446,580.2676430015027 486.21766230170164,580.32594388043 485.90266497167977,580.3892504641507 485.58871171107245,580.4575468155705 485.27588155593406,580.5308157414482 484.9642532595831,580.6090387967237 484.6539052727767,580.6921962891611 484.344915723961,580.7802672843063 484.03736239960233,580.8732296107574 483.73132272460555,580.9710598657457 483.4268737428221,581.0737334210279 483.12409209765514,581.1812244290852 482.8230540127645,581.2935058296315 482.5238352728783,581.4105493564244 482.2265112047141,581.5323255443822 481.931156658016,581.6588037370005 481.63784598671174,581.7899520940709 481.34665303019415,581.9257375996959 481.057651094733,582.0661260706004 480.77091293501985,582.2110821647377 480.4865107358531,582.3605693901864 480.2045160939655,582.5145501143368 479.9249999999999,582.672985573365 479.64803282063843,582.8358358819916 479.37368428088723,583.0030600435223 479.1020234465241,583.1746159601685 478.8331187067112,583.3504604436458 478.56703775677886,583.5305492260458 478.30384758118316,583.7148369709806 478.04361443664345,583.903277284996 477.7864038354622,584.0958227292506 477.5322805290327,584.2924248314584 477.2813084915383,584.4930340980918 477.0335509038475,584.6976000268406 476.7890701376079,584.9060711193263 476.547927739545,585.1183948940659 476.31018441596797,585.3345178996848 476.07590001748713,585.5543857283722 475.8451335239469,585.777943029578 475.61794302957793,586.0051335239469 475.39438572837224,586.2359000174872 475.1745178996849,586.470184415968 474.95839489406586,586.7079277395451 474.7460711193262,586.9490701376079 474.5376000268406,587.1935509038475 474.33303409809184,587.4413084915384 474.1324248314585,587.6922805290326 473.93582272925056,587.9464038354622 473.743277284996,588.2036144366435 473.5548369709806,588.4638475811831 473.3705492260458,588.7270377567788 473.1904604436458,588.9931187067112 473.0146159601685,589.2620234465242 472.84306004352226,589.5336842808872 472.67583588199165,589.8080328206385 472.51298557336503,590.0849999999999 472.35455011433675,590.3645160939654 472.2005693901864,590.6465107358531 472.0510821647377,590.9309129350199 471.9061260706004,591.217651094733 471.76573759969585,591.5066530301942 471.6299520940709,591.7978459867116 471.4988037370005,592.091156658016 471.37232554438214,592.3865112047141 471.2505493564244,592.6838352728782 471.1335058296315,592.9830540127645 471.0212244290853,593.2840920976552 470.91373342102787,593.5868737428221 470.8110598657458,593.8913227246055 470.7132296107574,594.1973623996024 470.62026728430635,594.5049157239611 470.5321962891611,594.8139052727768 470.44903879672376,595.124253259583 470.3708157414482,595.4358815559341 470.2975468155704,595.7487117110725 470.22925046415065,596.0626649716799 470.1659438804301,596.3776623017015 470.1076430015027,596.6936244022446 470.05436250430296,597.0104717315396 470.00611580191105,597.3281245249659 469.9629150401763,597.6465028151315 469.92477109465955,597.9655264520044 469.89169356789495,598.2851151230902 469.8636907869731,598.6051883736499 469.84076980144425,598.9256656269545 469.822936381544,599.2464662045692 469.81019501674047,599.567509346664 469.80254891460396,599.8887142323451 469.7999999999999,600.2099999999999 469.7999999999999,600.2099999999999 469.80254891460396,600.5312857676548 469.81019501674047,600.8524906533358 469.822936381544,601.1735337954307 469.84076980144425,601.4943343730454 469.8636907869731,601.81481162635 469.89169356789495,602.1348848769096 469.92477109465955,602.4544735479955 469.9629150401763,602.7734971848683 470.00611580191105,603.0918754750339 470.05436250430296,603.4095282684602 470.1076430015027,603.7263755977552 470.1659438804301,604.0423376982983 470.22925046415065,604.3573350283201 470.2975468155704,604.6712882889274 470.3708157414482,604.9841184440658 470.44903879672376,605.2957467404167 470.5321962891611,605.6060947272231 470.62026728430635,605.9150842760388 470.7132296107574,606.2226376003974 470.8110598657458,606.5286772753943 470.91373342102787,606.8331262571777 471.0212244290853,607.1359079023447 471.1335058296315,607.4369459872354 471.2505493564244,607.7361647271216 471.37232554438214,608.0334887952857 471.49880373700046,608.3288433419839 471.6299520940709,608.6221540132882 471.76573759969585,608.9133469698056 471.9061260706004,609.2023489052668 472.0510821647377,609.4890870649799 472.2005693901864,609.7734892641467 472.35455011433675,610.0554839060344 472.51298557336503,610.3349999999999 472.67583588199165,610.6119671793614 472.84306004352226,610.8863157191126 473.0146159601685,611.1579765534758 473.1904604436458,611.4268812932886 473.3705492260458,611.692962243221 473.5548369709806,611.9561524188167 473.743277284996,612.2163855633563 473.93582272925056,612.4735961645376 474.1324248314585,612.7277194709673 474.33303409809184,612.9786915084615 474.5376000268406,613.2264490961524 474.7460711193262,613.470929862392 474.95839489406586,613.7120722604549 475.1745178996849,613.9498155840319 475.39438572837224,614.1840999825127 475.61794302957793,614.4148664760529 475.8451335239469,614.642056970422 476.07590001748713,614.8656142716277 476.31018441596797,615.0854821003151 476.547927739545,615.301605105934 476.7890701376079,615.5139288806737 477.0335509038475,615.7223999731592 477.28130849153837,615.926965901908 477.5322805290326,616.1275751685414 477.7864038354622,616.3241772707493 478.04361443664345,616.5167227150039 478.30384758118316,616.7051630290192 478.5670377567788,616.8894507739541 478.8331187067112,617.069539556354 479.1020234465241,617.2453840398314 479.37368428088723,617.4169399564776 479.64803282063843,617.5841641180083 479.9249999999999,617.7470144266348 480.2045160939655,617.9054498856631 480.4865107358531,618.0594306098135 480.77091293501985,618.2089178352621 481.057651094733,618.3538739293995 481.34665303019415,618.4942624003039 481.6378459867117,618.6300479059289 481.931156658016,618.7611962629993 482.2265112047141,618.8876744556177 482.5238352728783,619.0094506435754 482.8230540127645,619.1264941703683 483.12409209765514,619.2387755709146 483.4268737428221,619.346266578972 483.73132272460555,619.4489401342541 484.03736239960233,619.5467703892424 484.344915723961,619.6397327156935 484.6539052727767,619.7278037108388 484.9642532595831,619.8109612032762 485.27588155593406,619.8891842585516 485.58871171107245,619.9624531844294 485.90266497167977,620.0307495358493 486.2176623017016,620.0940561195698 486.5336244022446,620.1523569984971 486.8504717315396,620.2056374956969 487.1681245249659,620.2538841980888 487.4865028151315,620.2970849598236 487.8055264520045,620.3352289053403 488.1251151230902,620.3683064321049 488.44518837364996,620.3963092130267 488.7656656269545,620.4192301985556 489.08646620456915,620.4370636184559 489.4075093466641,620.4498049832594 489.72871423234506,620.457451085396 490.0499999999999,620.4599999999999 546.75,620.4599999999999 " style="stroke:black;fill:none;stroke-width:2;stroke-linecap:round;stroke-linejoin:round;" /><path d="M 145.79999999999998 324.0 C -12.150000000000029 324.0 93.14999999999999 324.0 -64.80000000000003 324.0" style="stroke:black;fill:none;stroke-width:2;stroke-linecap:round;" /><path d="M -64.80000000000003 324.0 C -101.25000000000004 324.0 -113.40000000000003 340.2 -113.40000000000003 388.79999999999995" style="stroke:black;fill:none;stroke-width:2;stroke-linecap:round;" /><path d="M -113.40000000000003 388.79999999999995 C -113.40000000000003 498.15 -113.40000000000003 425.25 -113.40000000000003 534.6" style="stroke:black;fill:none;stroke-width:2;stroke-linecap:round;" /><path d="M -113.40000000000003 534.6 C -113.40000000000003 583.1999999999999 -97.20000000000005 599.4 -52.65000000000004 599.4" style="stroke:black;fill:none;stroke-width:2;stroke-linecap:round;" /><path d="M -50.600000000000044 599.4 L -56.70000000000004 602.64 L -56.70000000000004 596.16 Z" style="stroke:black;fill:black;stroke-linecap:butt;stroke-linejoin:miter;" /><path d="M 48.59999999999995 599.4 C 364.49999999999994 599.4 153.89999999999995 600.2099999999999 465.74999999999994 600.2099999999999" style="stroke:black;fill:none;stroke-width:2;stroke-linecap:round;" /><path d="M 467.7999999999999 600.2099999999999 L 461.6999999999999 603.4499999999999 L 461.6999999999999 596.9699999999999 Z" style="stroke:black;fill:black;stroke-linecap:butt;stroke-linejoin:miter;" /><path d="M 421.2 194.39999999999998 C 494.0999999999999 194.39999999999998 518.3999999999999 218.7 518.3999999999999 291.5999999999999" style="stroke:black;fill:none;stroke-width:2;stroke-linecap:round;" /><path d="M 518.3999999999999 291.5999999999999 C 518.3999999999999 291.5999999999999 518.3999999999999 332.0999999999999 518.3999999999999 453.59999999999997" style="stroke:black;fill:none;stroke-width:2;stroke-linecap:round;" /><path d="M 421.2 453.59999999999997 C 494.0999999999999 453.59999999999997 518.3999999999999 453.59999999999997 518.3999999999999 453.59999999999997" style="stroke:black;fill:none;stroke-width:2;stroke-linecap:round;" /><path d="M 518.3999999999999 453.59999999999997 C 518.3999999999999 453.59999999999997 518.3999999999999 485.18999999999994 518.3999999999999 575.91" style="stroke:black;fill:none;stroke-width:2;stroke-linecap:round;" /><path d="M 518.3999999999999 577.9599999999999 L 515.1599999999999 571.86 L 521.6399999999999 571.86 Z" style="stroke:black;fill:black;stroke-linecap:butt;stroke-linejoin:miter;" /><path d="M 0.0,32.4 L 7.43972930482017e-16,44.55 L 9.91963907309356e-16,48.599999999999994" style="stroke:black;fill:none;stroke-width:2;stroke-linecap:round;stroke-linejoin:round;" /><path d="M 1.3654811810492986e-15 54.699999999999996 L -2.429999999999999 48.6 L 2.4300000000000006 48.6 Z" style="stroke:black;fill:black;stroke-linecap:butt;stroke-linejoin:miter;" /><path d="M -64.8,89.1 L -64.8,56.699999999999996 L 64.8,56.699999999999996 L 64.8,121.5 L -64.8,121.5 L -64.8,89.1" style="stroke:black;fill:none;stroke-width:2;stroke-linecap:round;stroke-linejoin:round;" /><path d="M 55.080000000000005,56.699999999999996 L 55.080000000000005,121.5" style="stroke:black;fill:none;stroke-width:2;stroke-linecap:round;stroke-linejoin:round;" /><path d="M -55.08,56.699999999999996 L -55.08,121.5" style="stroke:black;fill:none;stroke-width:2;stroke-linecap:round;stroke-linejoin:round;" /><path d="M 1.487945860964034e-15,121.5 L -7.439729304820172e-16,133.65 L -1.673312375689993e-15,137.7" style="stroke:black;fill:none;stroke-width:2;stroke-linecap:round;stroke-linejoin:round;" /><path d="M -2.654267191992741e-15 143.79999999999998 L -2.4300000000000015 137.69999999999996 L 2.429999999999998 137.69999999999996 Z" style="stroke:black;fill:black;stroke-linecap:butt;stroke-linejoin:miter;" /><path d="M 64.8,194.39999999999998 L 97.19999999999999,194.39999999999998 L 121.5,194.39999999999998" style="stroke:black;fill:none;stroke-width:2;stroke-linecap:round;stroke-linejoin:round;" /><path d="M 127.6 194.39999999999998 L 121.5 196.82999999999998 L 121.5 191.96999999999997 Z" style="stroke:black;fill:black;stroke-linecap:butt;stroke-linejoin:miter;" /><path d="M 259.2,194.39999999999998 L 291.59999999999997,194.39999999999998 L 315.9,194.39999999999998" style="stroke:black;fill:none;stroke-width:2;stroke-linecap:round;stroke-linejoin:round;" /><path d="M 322.0 194.39999999999998 L 315.9 196.82999999999998 L 315.9 191.96999999999997 Z" style="stroke:black;fill:black;stroke-linecap:butt;stroke-linejoin:miter;" /><path d="M 324.0,194.39999999999998 L 324.0,162.0 L 421.2,162.0 L 421.2,226.79999999999998 L 324.0,226.79999999999998 L 324.0,194.39999999999998" style="stroke:black;fill:none;stroke-width:2;stroke-linecap:round;stroke-linejoin:round;" /><path d="M -2.9758917219280684e-15,243.0 L -1.7855350331568405e-14,324.0 L -3.143222959497067e-14,396.9" style="stroke:black;fill:none;stroke-width:2;stroke-linecap:round;stroke-linejoin:round;" /><path d="M -3.241318441127342e-14 403.0 L -2.4300000000000312 396.9 L 2.429999999999968 396.9 Z" style="stroke:black;fill:black;stroke-linecap:butt;stroke-linejoin:miter;" /><path d="M 64.79999999999995,453.59999999999997 L 97.19999999999996,453.59999999999997 L 121.49999999999997,453.59999999999997" style="stroke:black;fill:none;stroke-width:2;stroke-linecap:round;stroke-linejoin:round;" /><path d="M 127.59999999999997 453.59999999999997 L 121.49999999999997 456.03 L 121.49999999999997 451.16999999999996 Z" style="stroke:black;fill:black;stroke-linecap:butt;stroke-linejoin:miter;" /><path d="M 259.19999999999993,453.59999999999997 L 291.59999999999997,453.59999999999997 L 315.9,453.59999999999997" style="stroke:black;fill:none;stroke-width:2;stroke-linecap:round;stroke-linejoin:round;" /><path d="M 322.0 453.59999999999997 L 315.9 456.03 L 315.9 451.16999999999996 Z" style="stroke:black;fill:black;stroke-linecap:butt;stroke-linejoin:miter;" /><path d="M 324.0,453.59999999999997 L 324.0,421.2 L 421.2,421.2 L 421.2,486.0 L 324.0,486.0 L 324.0,453.59999999999997" style="stroke:black;fill:none;stroke-width:2;stroke-linecap:round;stroke-linejoin:round;" /><path d="M -3.273480894120875e-14,502.2 L -3.868659238506488e-14,534.6 L -4.333579648268295e-14,558.9" style="stroke:black;fill:none;stroke-width:2;stroke-linecap:round;stroke-linejoin:round;" /><path d="M -4.43167512989857e-14 565.0 L -2.4300000000000432 558.9000000000001 L 2.429999999999956 558.9000000000001 Z" style="stroke:black;fill:black;stroke-linecap:butt;stroke-linejoin:miter;" /><path d="M -48.600000000000044,599.4 L -48.600000000000044,567.0 L 48.59999999999995,567.0 L 48.59999999999995,631.8 L -48.600000000000044,631.8 L -48.600000000000044,599.4" style="stroke:black;fill:none;stroke-width:2;stroke-linecap:round;stroke-linejoin:round;" /><path d="M 194.39999999999998,226.79999999999998 L 194.39999999999998,259.2 L 194.39999999999998,283.5" style="stroke:black;fill:none;stroke-width:2;stroke-linecap:round;stroke-linejoin:round;" /><path d="M 194.39999999999998 289.59999999999997 L 191.96999999999997 283.49999999999994 L 196.82999999999998 283.49999999999994 Z" style="stroke:black;fill:black;stroke-linecap:butt;stroke-linejoin:miter;" /><path d="M 145.79999999999998,324.0 L 145.79999999999998,291.59999999999997 L 243.0,291.59999999999997 L 243.0,356.4 L 145.79999999999998,356.4 L 145.79999999999998,324.0" style="stroke:black;fill:none;stroke-width:2;stroke-linecap:round;stroke-linejoin:round;" /><path d="M 194.39999999999995,421.2 L 194.39999999999995,388.79999999999995 L 194.39999999999995,364.5" style="stroke:black;fill:none;stroke-width:2;stroke-linecap:round;stroke-linejoin:round;" /><path d="M 194.39999999999995 358.4 L 196.82999999999996 364.5 L 191.96999999999994 364.5 Z" style="stroke:black;fill:black;stroke-linecap:butt;stroke-linejoin:miter;" /><text x="0.0" y="8.499999999999998" fill="black" font-size="14" font-family="sans-serif" text-anchor="middle" transform="rotate(0 0.0 14.1)"><tspan x="0.0" dy="11.200000000000001">Start</tspan></text><text x="1.487945860964034e-15" y="73.0" fill="black" font-size="14" font-family="sans-serif" text-anchor="middle" transform="rotate(0 1.487945860964034e-15 87.0)"><tspan x="1.487945860964034e-15" dy="14">Load Temp</tspan><tspan x="1.487945860964034e-15" dy="14">Reading</tspan></text><text x="-2.9758917219280684e-15" y="186.7" fill="black" font-size="14" font-family="sans-serif" text-anchor="middle" transform="rotate(0 -2.9758917219280684e-15 192.29999999999998)"><tspan x="-2.9758917219280684e-15" dy="11.200000000000001">Is Temp &gt; 150?</tspan></text><text x="97.19999999999999" y="177.86" fill="black" font-size="14" font-family="sans-serif" text-anchor="middle" transform="rotate(0 97.19999999999999 189.06)"><tspan x="97.19999999999999" dy="11.200000000000001">Yes</tspan></text><text x="194.39999999999998" y="186.7" fill="black" font-size="14" font-family="sans-serif" text-anchor="middle" transform="rotate(0 194.39999999999998 192.29999999999998)"><tspan x="194.39999999999998" dy="11.200000000000001">AC on?</tspan></text><text x="291.59999999999997" y="177.86" fill="black" font-size="14" font-family="sans-serif" text-anchor="middle" transform="rotate(0 291.59999999999997 189.06)"><tspan x="291.59999999999997" dy="11.200000000000001">No</tspan></text><text x="372.59999999999997" y="178.29999999999998" fill="black" font-size="14" font-family="sans-serif" text-anchor="middle" transform="rotate(0 372.59999999999997 192.29999999999998)"><tspan x="372.59999999999997" dy="14">Turn on</tspan><tspan x="372.59999999999997" dy="14">AC</tspan></text><text x="-16.200000000000006" y="245.89999999999998" fill="black" font-size="14" font-family="sans-serif" text-anchor="middle" transform="rotate(0 -16.200000000000006 257.09999999999997)"><tspan x="-16.200000000000006" dy="11.200000000000001">No</tspan></text><text x="-3.273480894120875e-14" y="445.90000000000003" fill="black" font-size="14" font-family="sans-serif" text-anchor="middle" transform="rotate(0 -3.273480894120875e-14 451.5)"><tspan x="-3.273480894120875e-14" dy="11.200000000000001">Is Temp &lt; 100?</tspan></text><text x="97.19999999999996" y="437.06" fill="black" font-size="14" font-family="sans-serif" text-anchor="middle" transform="rotate(0 97.19999999999996 448.26)"><tspan x="97.19999999999996" dy="11.200000000000001">Yes</tspan></text><text x="194.39999999999995" y="445.90000000000003" fill="black" font-size="14" font-family="sans-serif" text-anchor="middle" transform="rotate(0 194.39999999999995 451.5)"><tspan x="194.39999999999995" dy="11.200000000000001">Heater on?</tspan></text><text x="291.59999999999997" y="437.06" fill="black" font-size="14" font-family="sans-serif" text-anchor="middle" transform="rotate(0 291.59999999999997 448.26)"><tspan x="291.59999999999997" dy="11.200000000000001">No</tspan></text><text x="372.59999999999997" y="437.5" fill="black" font-size="14" font-family="sans-serif" text-anchor="middle" transform="rotate(0 372.59999999999997 451.5)"><tspan x="372.59999999999997" dy="14">Turn on</tspan><tspan x="372.59999999999997" dy="14">Heater</tspan></text><text x="-16.200000000000035" y="505.09999999999997" fill="black" font-size="14" font-family="sans-serif" text-anchor="middle" transform="rotate(0 -16.200000000000035 516.3)"><tspan x="-16.200000000000035" dy="11.200000000000001">No</tspan></text><text x="-4.4638375828921025e-14" y="591.7" fill="black" font-size="14" font-family="sans-serif" text-anchor="middle" transform="rotate(0 -4.4638375828921025e-14 597.3000000000001)"><tspan x="-4.4638375828921025e-14" dy="11.200000000000001">All off</tspan></text><text x="518.3999999999999" y="592.51" fill="black" font-size="14" font-family="sans-serif" text-anchor="middle" transform="rotate(0 518.3999999999999 598.11)"><tspan x="518.3999999999999" dy="11.200000000000001">Stop</tspan></text><text x="191.16" y="251.5" fill="black" font-size="14" font-family="sans-serif" text-anchor="end" transform="rotate(0 191.16 257.09999999999997)"><tspan x="191.16" dy="11.200000000000001">Yes</tspan></text><text x="194.39999999999998" y="316.3" fill="black" font-size="14" font-family="sans-serif" text-anchor="middle" transform="rotate(0 194.39999999999998 321.9)"><tspan x="194.39999999999998" dy="11.200000000000001">Error</tspan></text><text x="191.15999999999997" y="381.1" fill="black" font-size="14" font-family="sans-serif" text-anchor="end" transform="rotate(0 191.15999999999997 386.7)"><tspan x="191.15999999999997" dy="11.200000000000001">Yes</tspan></text><circle cx="518.3999999999999" cy="453.59999999999997" r="2.4299999999999997" style="stroke:black;fill:black;stroke-width:2;" /></svg>