<svg xmlns="http://www.w3.org/2000/svg" xml:lang="en" height="66.28pt" width="247.95579999999998pt" viewBox="-30.819800000000004 -36.379999999999995 247.95579999999998 66.28"><polygon points="42.93,-8.1 54.26999999999999,-0.0 42.93,8.1 " style="stroke:black;fill:none;stroke-width:2;stroke-linecap:round;stroke-linejoin:round;" /><path d="M 0.0,-0.0 L 42.93,-0.0 M 54.26999999999999,-8.1 L 54.26999999999999,8.1 M 54.26999999999999,-0.0 L 97.19999999999999,-0.0" style="stroke:black;fill:none;stroke-width:2;stroke-linecap:round;stroke-linejoin:round;" /><path d="M 51.029999999999994,-12.149999999999999 L 55.91501967944772,-20.698784439033503" style="stroke:black;fill:none;stroke-width:2;stroke-linecap:round;stroke-linejoin:round;" /><path d="M 58.13772212328633 -24.58851371575108 L 58.16550590383431 -19.41279231081259 L 53.66453345506111 -21.984776567254418 Z" style="stroke:black;fill:black;stroke-linecap:butt;stroke-linejoin:miter;" /><path d="M 43.739999999999995,-12.149999999999999 L 48.62501967944772,-20.698784439033503" style="stroke:black;fill:none;stroke-width:2;stroke-linecap:round;stroke-linejoin:round;" /><path d="M 50.84772212328634 -24.58851371575108 L 50.875505903834316 -19.41279231081259 L 46.37453345506112 -21.98477656725442 Z" style="stroke:black;fill:black;stroke-linecap:butt;stroke-linejoin:miter;" /><path d="M 97.19999999999999,-0.0 L 129.6,-0.0 L 132.29999999999998,-8.1 L 137.7,8.1 L 143.09999999999997,-8.1 L 148.49999999999997,8.1 L 153.9,-8.1 L 159.29999999999998,8.1 L 162.0,-0.0 L 194.39999999999998,-0.0" style="stroke:black;fill:none;stroke-width:2;stroke-linecap:round;stroke-linejoin:round;" /><path d="M 194.39999999999998,-0.0 L 207.36,7.935711258474849e-16 L 207.36,8.1 L 207.36,-8.099999999999998 M 211.248,5.67 L 211.248,-5.669999999999998 M 215.13599999999997,1.6200000000000014 L 215.13599999999997,-1.6199999999999988" style="stroke:black;fill:none;stroke-width:2;stroke-linecap:round;stroke-linejoin:round;" /><text x="48.599999999999994" y="9.239999999999997" fill="black" font-size="14" font-family="sans-serif" text-anchor="middle" transform="rotate(0 48.599999999999994 9.239999999999998)"><tspan x="48.599999999999994" dy="11.200000000000001">D1</tspan></text><text x="145.79999999999998" y="-24.64" fill="black" font-size="14" font-family="sans-serif" text-anchor="middle" transform="rotate(0 145.79999999999998 -13.44)"><tspan x="145.79999999999998" dy="11.200000000000001">R1</tspan></text><text x="145.79999999999998" y="9.239999999999997" fill="black" font-size="14" font-family="sans-serif" text-anchor="middle" transform="rotate(0 145.79999999999998 9.239999999999998)"><tspan x="145.79999999999998" dy="11.200000000000001">470Ω</tspan></text><circle cx="0.0" cy="-0.0" r="2.4299999999999997" style="stroke:black;fill:white;stroke-width:2;" /><text x="0.0" y="-18.97" fill="black" font-size="14" font-family="sans-serif" text-anchor="middle" transform="rotate(0 0.0 -7.77)"><tspan x="0.0" dy="11.200000000000001">GPIO N</tspan></text></svg>