<svg xmlns="http://www.w3.org/2000/svg" xml:lang="en" height="425.2pt" width="587.1999999999999pt" viewBox="-131.6 -50.599999999999994 587.1999999999999 425.2"><path d="M -129.6,97.19999999999999 L -129.6,-48.599999999999994 L 453.59999999999997,-48.599999999999994 L 453.59999999999997,243.0 L -129.6,243.0 L -129.6,97.19999999999999" style="stroke:black;fill:none;stroke-width:2;stroke-linecap:round;stroke-linejoin:round;" /><path d="M -113.39999999999999,-0.0 L -113.39999999999999,-32.4 L 307.8,-32.4 L 307.8,32.4 L -113.39999999999999,32.4 L -113.39999999999999,-0.0" style="stroke:black;fill:#eeeeee;stroke-width:2;stroke-linecap:round;stroke-linejoin:round;" /><path d="M -113.39999999999999,145.79999999999998 L -113.39999999999999,64.8 L 307.8,64.8 L 307.8,226.79999999999998 L -113.39999999999999,226.79999999999998 L -113.39999999999999,145.79999999999998" style="stroke:black;fill:#eeeeee;stroke-width:2;stroke-linecap:round;stroke-linejoin:round;" /><path d="M 0.0,-0.0 L 0.0,-16.2 L 97.19999999999999,-16.2 L 97.19999999999999,16.2 L 0.0,16.2 L 0.0,-0.0" style="stroke:black;fill:#ffffff;stroke-width:2;stroke-linecap:round;stroke-linejoin:round;" /><path d="M 97.19999999999999,-0.0 L 97.19999999999999,-16.2 L 194.39999999999998,-16.2 L 194.39999999999998,16.2 L 97.19999999999999,16.2 L 97.19999999999999,-0.0" style="stroke:black;fill:#ffffff;stroke-width:2;stroke-linecap:round;stroke-linejoin:round;" /><path d="M 194.39999999999998,-0.0 L 194.39999999999998,-16.2 L 291.59999999999997,-16.2 L 291.59999999999997,16.2 L 194.39999999999998,16.2 L 194.39999999999998,-0.0" style="stroke:black;fill:#ffffff;stroke-width:2;stroke-linecap:round;stroke-linejoin:round;" /><path d="M 0.0,97.19999999999999 L 0.0,81.0 L 97.19999999999999,81.0 L 97.19999999999999,113.39999999999999 L 0.0,113.39999999999999 L 0.0,97.19999999999999" style="stroke:black;fill:#ffffff;stroke-width:2;stroke-linecap:round;stroke-linejoin:round;" /><path d="M 97.19999999999999,97.19999999999999 L 97.19999999999999,81.0 L 194.39999999999998,81.0 L 194.39999999999998,113.39999999999999 L 97.19999999999999,113.39999999999999 L 97.19999999999999,97.19999999999999" style="stroke:black;fill:#ffffff;stroke-width:2;stroke-linecap:round;stroke-linejoin:round;" /><path d="M 0.0,194.39999999999998 L 0.0,178.2 L 97.19999999999999,178.2 L 97.19999999999999,210.6 L 0.0,210.6 L 0.0,194.39999999999998" style="stroke:black;fill:#ffffff;stroke-width:2;stroke-linecap:round;stroke-linejoin:round;" /><path d="M -129.6,324.0 L -129.6,275.4 L 453.59999999999997,275.4 L 453.59999999999997,372.59999999999997 L -129.6,372.59999999999997 L -129.6,324.0" style="stroke:black;fill:none;stroke-width:2;stroke-linecap:round;stroke-linejoin:round;" /><path d="M -113.39999999999999,324.0 L -113.39999999999999,291.59999999999997 L 307.8,291.59999999999997 L 307.8,356.4 L -113.39999999999999,356.4 L -113.39999999999999,324.0" style="stroke:black;fill:#eeeeee;stroke-width:2;stroke-linecap:round;stroke-linejoin:round;" /><path d="M 0.0,324.0 L 0.0,307.8 L 129.6,307.8 L 129.6,340.2 L 0.0,340.2 L 0.0,324.0" style="stroke:black;fill:#ffffff;stroke-width:2;stroke-linecap:round;stroke-linejoin:round;" /><text x="380.7" y="74.1" fill="black" font-size="14" font-family="sans-serif" text-anchor="middle" transform="rotate(0 380.7 95.1)"><tspan x="380.7" dy="14">High-level</tspan><tspan x="380.7" dy="14">Programming</tspan><tspan x="380.7" dy="14">Language</tspan></text><text x="-64.8" y="-7.7" fill="black" font-size="14" font-family="sans-serif" text-anchor="middle" transform="rotate(0 -64.8 -2.0999999999999996)"><tspan x="-64.8" dy="11.200000000000001">Interpreted</tspan></text><text x="-64.8" y="138.1" fill="black" font-size="14" font-family="sans-serif" text-anchor="middle" transform="rotate(0 -64.8 143.7)"><tspan x="-64.8" dy="11.200000000000001">Assembled</tspan></text><text x="48.599999999999994" y="-7.7" fill="black" font-size="14" font-family="sans-serif" text-anchor="middle" transform="rotate(0 48.599999999999994 -2.0999999999999996)"><tspan x="48.599999999999994" dy="11.200000000000001">PHP</tspan></text><text x="145.79999999999998" y="-7.7" fill="black" font-size="14" font-family="sans-serif" text-anchor="middle" transform="rotate(0 145.79999999999998 -2.0999999999999996)"><tspan x="145.79999999999998" dy="11.200000000000001">Javascript</tspan></text><text x="243.0" y="-7.7" fill="black" font-size="14" font-family="sans-serif" text-anchor="middle" transform="rotate(0 243.0 -2.0999999999999996)"><tspan x="243.0" dy="11.200000000000001">Python</tspan></text><text x="48.599999999999994" y="89.49999999999999" fill="black" font-size="14" font-family="sans-serif" text-anchor="middle" transform="rotate(0 48.599999999999994 95.1)"><tspan x="48.599999999999994" dy="11.200000000000001">C</tspan></text><text x="145.79999999999998" y="89.49999999999999" fill="black" font-size="14" font-family="sans-serif" text-anchor="middle" transform="rotate(0 145.79999999999998 95.1)"><tspan x="145.79999999999998" dy="11.200000000000001">C++</tspan></text><text x="48.599999999999994" y="186.7" fill="black" font-size="14" font-family="sans-serif" text-anchor="middle" transform="rotate(0 48.599999999999994 192.29999999999998)"><tspan x="48.599999999999994" dy="11.200000000000001">Assembly</tspan></text><text x="380.7" y="300.9" fill="black" font-size="14" font-family="sans-serif" text-anchor="middle" transform="rotate(0 380.7 321.9)"><tspan x="380.7" dy="14">Low-level</tspan><tspan x="380.7" dy="14">Programming</tspan><tspan x="380.7" dy="14">Language</tspan></text><text x="-64.8" y="316.3" fill="black" font-size="14" font-family="sans-serif" text-anchor="middle" transform="rotate(0 -64.8 321.9)"><tspan x="-64.8" dy="11.200000000000001">Binary</tspan></text><text x="64.8" y="316.3" fill="black" font-size="14" font-family="sans-serif" text-anchor="middle" transform="rotate(0 64.8 321.9)"><tspan x="64.8" dy="11.200000000000001">Machine Code</tspan></text></svg>