<svg xmlns="http://www.w3.org/2000/svg" xml:lang="en" height="109.66pt" width="247.95579999999998pt" viewBox="-30.819800000000004 -79.75999999999999 247.95579999999998 109.66"><polygon points="140.13,-8.1 151.47,-0.0 140.13,8.1 " style="stroke:black;fill:none;stroke-width:2;stroke-linecap:round;stroke-linejoin:round;" /><path d="M 0.0,-0.0 L 32.4,-0.0 L 35.099999999999994,-8.1 L 40.5,8.1 L 45.89999999999999,-8.1 L 51.3,8.1 L 56.699999999999996,-8.1 L 62.099999999999994,8.1 L 64.8,-0.0 L 97.19999999999999,-0.0" style="stroke:black;fill:none;stroke-width:2;stroke-linecap:round;stroke-linejoin:round;" /><path d="M 97.19999999999999,-0.0 L 140.13,-0.0 M 151.47,-8.1 L 151.47,8.1 M 151.47,-0.0 L 194.39999999999998,-0.0" style="stroke:black;fill:none;stroke-width:2;stroke-linecap:round;stroke-linejoin:round;" /><path d="M 148.23,-12.149999999999999 L 153.11501967944773,-20.698784439033503" style="stroke:black;fill:none;stroke-width:2;stroke-linecap:round;stroke-linejoin:round;" /><path d="M 155.33772212328634 -24.58851371575108 L 155.36550590383433 -19.41279231081259 L 150.86453345506112 -21.984776567254418 Z" style="stroke:black;fill:black;stroke-linecap:butt;stroke-linejoin:miter;" /><path d="M 140.93999999999997,-12.149999999999999 L 145.82501967944768,-20.698784439033503" style="stroke:black;fill:none;stroke-width:2;stroke-linecap:round;stroke-linejoin:round;" /><path d="M 148.04772212328632 -24.58851371575108 L 148.0755059038343 -19.41279231081259 L 143.5745334550611 -21.984776567254418 Z" style="stroke:black;fill:black;stroke-linecap:butt;stroke-linejoin:miter;" /><path d="M 194.39999999999998,-0.0 L 207.36,7.935711258474849e-16 L 207.36,8.1 L 207.36,-8.099999999999998 M 211.248,5.67 L 211.248,-5.669999999999998 M 215.13599999999997,1.6200000000000014 L 215.13599999999997,-1.6199999999999988" style="stroke:black;fill:none;stroke-width:2;stroke-linecap:round;stroke-linejoin:round;" /><text x="48.599999999999994" y="-24.64" fill="black" font-size="14" font-family="sans-serif" text-anchor="middle" transform="rotate(0 48.599999999999994 -13.44)"><tspan x="48.599999999999994" dy="11.200000000000001">R1</tspan></text><text x="48.599999999999994" y="9.239999999999997" fill="black" font-size="14" font-family="sans-serif" text-anchor="middle" transform="rotate(0 48.599999999999994 9.239999999999998)"><tspan x="48.599999999999994" dy="11.200000000000001">200Ω</tspan></text><text x="145.79999999999998" y="9.239999999999997" fill="black" font-size="14" font-family="sans-serif" text-anchor="middle" transform="rotate(0 145.79999999999998 9.239999999999998)"><tspan x="145.79999999999998" dy="11.200000000000001">D1</tspan></text><text x="64.8" y="-66.9" fill="black" font-size="14" font-family="sans-serif" text-anchor="middle" transform="rotate(0 64.8 -66.9)"><tspan x="64.8" dy="11.200000000000001">Debounced with τ of 0.1S</tspan></text><circle cx="0.0" cy="-0.0" r="2.4299999999999997" style="stroke:black;fill:white;stroke-width:2;" /><text x="0.0" y="-18.97" fill="black" font-size="14" font-family="sans-serif" text-anchor="middle" transform="rotate(0 0.0 -7.77)"><tspan x="0.0" dy="11.200000000000001">GPIO N</tspan></text></svg>