<svg xmlns="http://www.w3.org/2000/svg" xml:lang="en" height="233.58999999999997pt" width="278.39559999999994pt" viewBox="-21.7856 -79.75999999999999 278.39559999999994 233.58999999999997"><circle cx="133.488" cy="-0.0" r="3.888" style="stroke:black;fill:none;stroke-width:2;" /><circle cx="158.112" cy="-0.0" r="3.888" style="stroke:black;fill:none;stroke-width:2;" /><path d="M 0.0,-0.0 L 32.4,-0.0 L 35.099999999999994,-8.1 L 40.5,8.1 L 45.89999999999999,-8.1 L 51.3,8.1 L 56.699999999999996,-8.1 L 62.099999999999994,8.1 L 64.8,-0.0 L 97.19999999999999,-0.0" style="stroke:black;fill:none;stroke-width:2;stroke-linecap:round;stroke-linejoin:round;" /><path d="M 97.19999999999999,-0.0 L 97.19999999999999,32.4 L 105.3,35.099999999999994 L 89.1,40.5 L 105.29999999999998,45.89999999999999 L 89.09999999999998,51.3 L 105.29999999999998,56.699999999999996 L 89.09999999999998,62.099999999999994 L 97.19999999999997,64.8 L 97.19999999999997,97.19999999999999" style="stroke:black;fill:none;stroke-width:2;stroke-linecap:round;stroke-linejoin:round;" /><path d="M 97.19999999999997,97.19999999999999 L 145.79999999999998,97.19999999999999 L 194.39999999999998,97.19999999999999" style="stroke:black;fill:none;stroke-width:2;stroke-linecap:round;stroke-linejoin:round;" /><path d="M 194.39999999999998,97.19999999999999 L 194.39999999999998,51.516 M 186.29999999999998,51.516 L 202.5,51.516 M 186.29999999999998,45.684000000000005 L 202.5,45.684000000000005 M 194.39999999999998,45.684000000000005 L 194.39999999999998,-0.0" style="stroke:black;fill:none;stroke-width:2;stroke-linecap:round;stroke-linejoin:round;" /><path d="M 97.19999999999997,97.19999999999999 L 97.19999999999997,113.39999999999999 L 97.19999999999997,129.6" style="stroke:black;fill:none;stroke-width:2;stroke-linecap:round;stroke-linejoin:round;" /><path d="M 97.19999999999999,-0.0 L 129.6,-0.0 M 137.376,-3.24 L 155.51999999999998,-14.58 M 162.0,-0.0 L 194.39999999999998,-0.0" style="stroke:black;fill:none;stroke-width:2;stroke-linecap:round;stroke-linejoin:round;" /><path d="M 194.39999999999998,-0.0 L 210.6,-0.0 L 226.79999999999998,-0.0" style="stroke:black;fill:none;stroke-width:2;stroke-linecap:round;stroke-linejoin:round;" /><path d="M 226.79999999999998,-0.0 L 239.76,7.935711258474849e-16 L 239.76,8.1 L 239.76,-8.099999999999998 M 243.64799999999997,5.67 L 243.64799999999997,-5.669999999999998 M 247.53599999999997,1.6200000000000014 L 247.53599999999997,-1.6199999999999988" style="stroke:black;fill:none;stroke-width:2;stroke-linecap:round;stroke-linejoin:round;" /><text x="48.599999999999994" y="-24.64" fill="black" font-size="14" font-family="sans-serif" text-anchor="middle" transform="rotate(0 48.599999999999994 -13.44)"><tspan x="48.599999999999994" dy="11.200000000000001">R2</tspan></text><text x="48.599999999999994" y="9.239999999999997" fill="black" font-size="14" font-family="sans-serif" text-anchor="middle" transform="rotate(0 48.599999999999994 9.239999999999998)"><tspan x="48.599999999999994" dy="11.200000000000001">470Ω</tspan></text><text x="85.86" y="40.89999999999999" fill="black" font-size="14" font-family="sans-serif" text-anchor="end" transform="rotate(0 85.86 46.49999999999999)"><tspan x="85.86" dy="11.200000000000001">R1</tspan></text><text x="108.53999999999998" y="40.89999999999999" fill="black" font-size="14" font-family="sans-serif" text-anchor="start" transform="rotate(0 108.53999999999998 46.49999999999999)"><tspan x="108.53999999999998" dy="11.200000000000001">1MΩ</tspan></text><text x="183.06" y="40.89999999999999" fill="black" font-size="14" font-family="sans-serif" text-anchor="end" transform="rotate(0 183.06 46.49999999999999)"><tspan x="183.06" dy="11.200000000000001">C1</tspan></text><text x="205.73999999999998" y="40.89999999999999" fill="black" font-size="14" font-family="sans-serif" text-anchor="start" transform="rotate(0 205.73999999999998 46.49999999999999)"><tspan x="205.73999999999998" dy="11.200000000000001">100pF</tspan></text><text x="145.79999999999998" y="-31.119999999999997" fill="black" font-size="14" font-family="sans-serif" text-anchor="middle" transform="rotate(0 145.79999999999998 -19.919999999999998)"><tspan x="145.79999999999998" dy="11.200000000000001">SW1</tspan></text><text x="145.79999999999998" y="5.0280000000000005" fill="black" font-size="14" font-family="sans-serif" text-anchor="middle" transform="rotate(0 145.79999999999998 5.0280000000000005)"><tspan x="145.79999999999998" dy="11.200000000000001">Momentary</tspan></text><text x="64.8" y="-66.9" fill="black" font-size="14" font-family="sans-serif" text-anchor="middle" transform="rotate(0 64.8 -66.9)"><tspan x="64.8" dy="11.200000000000001">Debounced with τ of 0.1S</tspan></text><circle cx="0.0" cy="-0.0" r="2.4299999999999997" style="stroke:black;fill:white;stroke-width:2;" /><text x="0.0" y="-18.97" fill="black" font-size="14" font-family="sans-serif" text-anchor="middle" transform="rotate(0 0.0 -7.77)"><tspan x="0.0" dy="11.200000000000001">3.3V</tspan></text><circle cx="97.19999999999999" cy="-0.0" r="2.4299999999999997" style="stroke:black;fill:black;stroke-width:2;" /><circle cx="97.19999999999997" cy="97.19999999999999" r="2.4299999999999997" style="stroke:black;fill:black;stroke-width:2;" /><circle cx="97.19999999999997" cy="129.6" r="2.4299999999999997" style="stroke:black;fill:white;stroke-width:2;" /><text x="97.19999999999997" y="133.17" fill="black" font-size="14" font-family="sans-serif" text-anchor="middle" transform="rotate(0 97.19999999999997 133.17)"><tspan x="97.19999999999997" dy="11.200000000000001">GPIO N</tspan></text><circle cx="194.39999999999998" cy="-0.0" r="2.4299999999999997" style="stroke:black;fill:black;stroke-width:2;" /></svg>